<svg width="102" height="22" viewBox="0 0 102 22" fill="none" xmlns="http://www.w3.org/2000/svg">
<path d="M8.61679 10.55C9.07627 11.3374 8.04243 11.5624 7.58295 11.6187C6.89372 11.6749 6.72141 11.2812 6.83628 10.775C6.89372 10.6063 7.00859 10.4376 7.12346 10.3251C7.23833 10.2126 7.46807 10.1001 7.64038 10.1001C7.81269 10.1001 8.04243 10.1001 8.1573 10.2126C8.38705 10.2688 8.50192 10.3813 8.61679 10.55Z" fill="white" fill-opacity="0.9"/>
<path d="M11.3755 9.14404C10.8586 13.081 17.8657 12.2374 17.7509 15.3308C18.4401 14.4309 18.7273 12.0687 16.717 10.8313C14.8791 9.70647 12.5242 10.3251 11.3755 9.14404Z" fill="white" fill-opacity="0.9"/>
<path d="M15.453 7.62542C15.3953 7.56918 15.3377 7.56918 15.3377 7.51294C15.3377 7.56918 15.3953 7.62542 15.453 7.62542Z" fill="white" fill-opacity="0.9"/>
<path d="M17.0615 10.4938C17.004 10.3814 16.9466 10.2689 16.8317 10.1564C16.602 9.81893 16.2574 9.59395 15.8553 9.53771C15.6256 9.48147 15.3384 9.42523 15.0512 9.42523C14.764 9.42523 14.5343 9.36898 14.2471 9.36898C13.6728 9.31274 13.1558 9.2565 12.5815 9.14401C12.4666 9.08777 12.2943 9.08777 12.1794 9.03152C12.122 9.03152 12.0646 8.97528 11.9497 8.97528C11.8923 8.91904 11.8348 8.91904 11.72 8.8628C11.4328 8.75031 11.203 8.52534 11.0307 8.35661C10.6287 7.96291 10.2841 7.51297 9.93944 7.11927C9.59483 6.66932 9.30765 6.27562 8.9056 5.88192C8.56098 5.48822 8.1015 5.15077 7.64201 4.92579C7.18253 4.70082 6.60817 4.53209 6.09125 4.47585C6.66561 4.41961 7.23996 4.47585 7.75688 4.70082C8.27381 4.9258 8.79073 5.20701 9.19278 5.60071C9.47996 5.82568 9.7097 6.1069 9.93944 6.38811C11.72 6.05065 13.0984 6.33187 14.1897 6.95054C14.5343 7.11927 14.8789 7.34424 15.1661 7.62545C15.2235 7.6817 15.281 7.6817 15.281 7.73794C15.5107 7.96291 15.7405 8.18788 15.9128 8.41285C16.7169 9.14401 17.0615 9.98766 17.0615 10.4938Z" fill="white" fill-opacity="0.9"/>
<path d="M6.26328 4.92578C6.72276 4.98202 7.18225 5.15075 7.46943 5.48821C7.75661 5.82567 7.87148 6.27561 7.98635 6.66931C8.04379 7.00677 8.10122 7.34422 8.21609 7.62544C8.27353 7.79417 8.3884 7.90665 8.44584 8.01914C8.50327 8.13163 8.61814 8.24411 8.67558 8.3566V8.41284V8.46908C8.50327 8.63781 8.10122 8.46908 7.92891 8.3566C7.64173 8.24411 7.41199 8.01914 7.18225 7.79417C6.55045 7.11925 6.20584 6.10688 6.20584 5.207C6.20584 5.15075 6.26328 5.03827 6.26328 4.92578Z" fill="white" fill-opacity="0.9"/>
<path d="M13.7296 12.7998C12.7532 15.4432 17.1758 17.243 15.5101 19.9427C17.1758 19.2677 17.9799 17.1867 17.2906 15.5557C16.7163 14.0934 14.8783 13.531 13.7296 12.7998Z" fill="white" fill-opacity="0.9"/>
<path d="M7.92996 16.2306C8.21714 16.0619 8.50432 15.8932 8.7915 15.7245C9.07868 15.612 9.42329 15.4995 9.76791 15.4432C10.3997 15.3308 11.0889 15.2745 11.6059 15.0495C11.893 14.9371 12.1228 14.8246 12.3525 14.5996C12.5823 14.4309 12.6971 14.2059 12.812 13.9247C12.9269 13.6435 12.9269 13.3623 12.9269 13.081C12.9269 12.7436 12.812 12.4624 12.6971 12.1812C12.9269 12.4061 13.0992 12.7436 13.2141 13.081C13.3289 13.4185 13.3289 13.756 13.2715 14.0934C13.2141 14.4309 12.9843 14.7683 12.7546 15.0495C12.5248 15.2745 12.1802 15.4995 11.8356 15.612C11.491 15.7245 11.1464 15.7807 10.8017 15.8369C10.4571 15.8369 10.17 15.8932 9.82534 15.8932C9.19355 15.8932 8.56176 16.0057 7.92996 16.2306Z" fill="white" fill-opacity="0.9"/>
<path d="M14.132 20.8988C14.0171 20.955 13.9597 21.0675 13.8448 21.1238C13.73 21.18 13.6151 21.2363 13.5002 21.2925C13.2705 21.405 12.9833 21.4612 12.6961 21.4612C11.9494 21.4612 11.4325 20.8988 11.1453 20.2801C10.9156 19.8864 10.8007 19.4365 10.571 19.0428C10.2264 18.4804 9.59458 18.0304 8.90535 18.0867C8.61817 18.1429 8.331 18.2554 8.21612 18.4804C7.81407 19.099 8.38843 19.9989 9.19253 19.8864C9.24997 19.8864 9.3074 19.8864 9.36484 19.8302C9.42228 19.8302 9.47971 19.7739 9.53715 19.7177C9.65202 19.6052 9.70945 19.4927 9.76689 19.3802C9.82433 19.2678 9.82433 19.099 9.82433 18.9303C9.76689 18.7616 9.70945 18.6491 9.59458 18.5928C9.76689 18.6491 9.88176 18.7616 9.9392 18.9303C9.88176 19.2115 9.88176 19.3802 9.88176 19.549C9.82433 19.7177 9.76689 19.8864 9.65202 19.9989C9.59458 20.0552 9.53715 20.1114 9.42228 20.1676C9.36484 20.2239 9.24997 20.2801 9.19253 20.2801C9.02022 20.3364 8.84792 20.3364 8.67561 20.3364C8.44587 20.2801 8.15869 20.2239 7.98638 20.0552C7.75664 19.8864 7.58433 19.6052 7.35459 19.4365C7.12484 19.1553 6.83767 18.9865 6.49305 18.8178C6.26331 18.7053 6.03357 18.6491 5.80382 18.5928C5.68895 18.5928 5.57408 18.5366 5.45921 18.5366C5.40177 18.5366 5.11459 18.4804 5.11459 18.4804C5.51664 18.1429 5.91869 17.8617 6.32074 17.5805C6.78023 17.2993 7.23972 17.1305 7.75664 16.9618C8.27356 16.7931 8.79048 16.7931 9.36484 16.8493C9.65202 16.9056 9.88176 16.9618 10.1689 17.0743C10.4561 17.1868 10.6859 17.3555 10.9156 17.5242C11.1453 17.7492 11.3177 17.9742 11.4325 18.1991C11.5474 18.4241 11.6048 18.7053 11.6623 18.9865C11.8346 19.7739 11.7771 21.0113 12.811 21.18C12.8684 21.18 12.9259 21.18 12.9833 21.18H13.1556C13.2705 21.18 13.3853 21.18 13.5002 21.1238C13.6725 21.1238 13.9023 21.0113 14.132 20.8988Z" fill="white" fill-opacity="0.9"/>
<path d="M7.0685 8.91901C7.01107 9.08774 6.95363 9.20022 6.8962 9.31271C6.72389 9.53768 6.49415 9.70641 6.2644 9.81889C6.03466 9.93138 5.80492 9.98762 5.51774 9.98762C5.4603 9.98762 5.40287 9.98762 5.34543 9.98762C5.17312 9.98762 5.05825 10.0439 4.88595 10.1564C4.77107 10.2688 4.6562 10.3813 4.6562 10.5501C4.6562 10.6063 4.59877 10.7188 4.59877 10.775C4.59877 11 4.54133 11.1687 4.54133 11.4499C4.4839 11.8999 4.36902 12.2936 4.19672 12.6873C3.96697 13.1935 3.67979 13.6434 3.73723 14.2058C3.79467 14.5995 3.96697 14.8808 4.25415 15.1057C4.71364 15.6119 5.80492 15.8369 5.57517 17.018C5.40287 17.7491 4.19672 18.4803 2.53108 18.7615C2.70339 18.7615 2.30134 18.0866 2.30134 18.0304C2.12903 17.7491 1.89929 17.4679 1.78441 17.1867C1.49724 16.6243 1.38236 15.8931 1.49724 15.2745C1.61211 14.5995 2.12903 14.0934 2.53108 13.5309C3.048 12.9123 3.56492 12.1249 3.6798 11.2812C3.6798 11.1125 3.73723 10.8313 3.79467 10.6063C3.8521 10.3251 3.90954 10.1001 4.02441 9.81889C4.08184 9.65017 4.19672 9.53768 4.36902 9.36895C4.42646 9.31271 4.4839 9.20022 4.4839 9.14398C4.4839 9.03149 4.4839 8.97525 4.42646 8.86276L1.72698 4.08212L5.63261 8.80652C5.69005 8.86277 5.74748 8.91901 5.80492 8.91901C5.86235 8.97525 5.91979 8.97525 6.03466 8.97525C6.0921 8.97525 6.14953 8.97525 6.2644 8.91901C6.32184 8.86277 6.37928 8.86277 6.43671 8.80652C6.49415 8.75028 6.49415 8.69404 6.49415 8.58155C6.49415 8.52531 6.49415 8.41282 6.43671 8.35658C6.20697 8.01912 5.91979 7.73791 5.63261 7.40045L4.6562 6.21935L2.70339 3.85715L0.00390625 0.538818L2.93313 3.63218L5.00082 5.88189L6.03466 7.00675C6.37927 7.40045 6.72389 7.73791 7.0685 8.18785L7.12594 8.24409V8.35658C7.12594 8.58155 7.12594 8.75028 7.0685 8.91901Z" fill="white" fill-opacity="0.9"/>
<path d="M7.98677 19.9986C7.81446 19.8299 7.64216 19.6612 7.46985 19.4924C7.64216 19.7174 7.75703 19.8861 7.98677 19.9986Z" fill="white" fill-opacity="0.9"/>
<path fill-rule="evenodd" clip-rule="evenodd" d="M58.5881 7.28791C56.6928 7.73786 55.8312 9.20017 56.3482 10.9437C56.5779 11.6749 57.2671 12.4623 58.301 13.0247C60.0815 14.0371 60.6558 14.4308 60.943 15.0494C61.1728 15.5556 61.2302 15.7243 61.1153 16.2305C60.8281 17.3554 60.024 17.9178 58.8753 17.9178C57.7266 17.9178 56.9225 17.2991 56.6928 16.2305C56.6353 15.7806 56.5205 15.6681 56.3482 15.6681C56.1184 15.6681 56.061 15.7806 56.061 16.8492V18.0303L56.8076 18.2553C58.0138 18.649 59.6794 18.5927 60.6558 18.1428C62.6087 17.2429 63.3553 15.4994 62.4938 13.8683C62.1492 13.2497 61.3451 12.5747 59.9666 11.7311C58.4733 10.8312 57.8415 10.2125 57.7266 9.59387C57.5543 8.5815 58.4733 7.7941 59.7369 7.7941C60.7133 7.7941 61.1153 8.01907 61.4599 8.75023C61.6897 9.20017 61.8046 9.3689 62.0917 9.3689C62.3789 9.3689 62.4363 9.31266 62.3215 9.03144C62.264 8.86271 62.2066 8.41277 62.2066 8.07531C62.2066 7.62537 62.1492 7.4004 61.9769 7.34416C61.5748 7.17543 59.1051 7.11918 58.5881 7.28791ZM20.6805 7.68161C20.6805 7.90659 20.7954 7.96283 21.0252 7.96283C21.7144 7.96283 21.7718 8.13156 21.8293 12.2373C21.8867 15.7806 21.9441 16.0618 22.2313 16.6242C22.6334 17.3554 23.2077 17.8616 24.0693 18.2553C24.6436 18.5365 25.0457 18.5927 26.2518 18.5927C27.5154 18.5927 27.8026 18.5365 28.4918 18.199C28.9513 17.9741 29.5256 17.5804 29.7554 17.2991C30.5595 16.343 30.6744 15.8368 30.7318 11.8998C30.8467 8.07531 30.8467 8.01907 31.4785 8.01907C31.6508 8.01907 31.7082 7.90658 31.7082 7.73786C31.7082 7.45664 31.5933 7.45664 29.9851 7.45664C28.3769 7.45664 28.2621 7.45664 28.2621 7.73786C28.2621 7.96283 28.3769 8.01907 28.7216 8.07531C29.4682 8.13156 29.5256 8.41277 29.5256 11.8998C29.5256 15.4431 29.4108 16.118 28.6067 16.8492C27.9174 17.5241 27.3431 17.7491 26.3667 17.7491C24.9882 17.7491 23.9544 17.1304 23.6672 16.0056C23.5523 15.6119 23.4949 14.262 23.5523 11.8436L23.6098 8.24404L24.1267 8.07531C24.4139 7.96283 24.6436 7.7941 24.701 7.68161C24.7585 7.45664 24.5287 7.45664 22.7482 7.45664C20.7954 7.4004 20.6805 7.4004 20.6805 7.68161ZM34.0631 7.68161C34.0631 7.90659 34.1779 7.96283 34.4651 7.96283C35.2118 7.96283 35.6138 8.24404 35.7861 8.86271C35.901 9.20017 35.901 10.8312 35.901 13.1372C35.8436 17.2991 35.7861 17.5804 34.9246 17.7491C34.6374 17.8053 34.5226 17.9178 34.5226 18.0865C34.5226 18.3115 34.6374 18.3678 36.5328 18.3678C38.3708 18.3678 38.5431 18.3678 38.5431 18.1428C38.5431 17.9741 38.3708 17.8616 37.9113 17.7491C37.3369 17.5804 37.2795 17.5241 37.1072 17.0742C36.8774 16.3993 36.8774 10.0438 37.0497 10.1001C37.1072 10.1001 37.6815 10.6625 38.3133 11.3936C38.9451 12.1248 40.6108 13.9808 42.1041 15.4994C44.4015 17.9178 44.8036 18.3678 45.1482 18.3678H45.5502L45.6077 13.4184C45.6651 9.87509 45.7225 8.41277 45.8374 8.30028C45.9523 8.1878 46.2395 8.07531 46.4692 8.01907C46.7564 7.96283 46.9287 7.85034 46.9287 7.73786C46.9287 7.56913 46.5841 7.51289 44.9759 7.51289C43.0805 7.45664 43.0231 7.45664 43.0231 7.73786C43.0231 7.96283 43.1379 8.01907 43.3677 8.01907C43.54 8.01907 43.8846 8.1878 44.1143 8.35653L44.5164 8.69399L44.5738 12.0686C44.5738 13.9808 44.5738 15.4431 44.5164 15.4431C44.459 15.4431 43.9995 14.9932 43.54 14.487C43.0805 13.9808 41.7595 12.5185 40.6108 11.2812C39.462 10.0438 38.1984 8.69399 37.7964 8.24404L37.1072 7.45664H35.6138C34.1205 7.4004 34.0631 7.4004 34.0631 7.68161ZM49.1112 7.68161C49.1112 7.90659 49.2261 7.96283 49.5133 7.96283C49.743 7.96283 50.0302 8.07531 50.2025 8.1878C50.4897 8.35653 50.4897 8.63774 50.5471 12.5185C50.6046 17.3554 50.5471 17.6366 49.6856 17.7491C49.2836 17.8053 49.1112 17.9178 49.1112 18.0865C49.1112 18.3115 49.2836 18.3678 51.2938 18.3678C53.3615 18.3678 53.4764 18.3678 53.4764 18.0865C53.4764 17.8616 53.3615 17.8053 53.1318 17.8053C52.9594 17.8053 52.6723 17.6928 52.5 17.5804C52.2128 17.4116 52.2128 17.1304 52.1553 12.9684C52.0979 8.69398 52.0979 8.52526 52.3851 8.24404C52.5574 8.07531 52.8446 7.96283 53.0169 7.96283C53.3041 7.96283 53.3615 7.90659 53.3615 7.68161C53.3615 7.4004 53.2466 7.4004 51.1789 7.4004C49.2261 7.4004 49.1112 7.4004 49.1112 7.68161ZM64.2169 7.68161C64.2743 7.85034 64.3892 7.96283 64.6189 7.96283C64.7912 7.96283 65.0784 8.13156 65.2507 8.30028C65.423 8.46901 66.3994 10.775 67.4907 13.5309L69.3861 18.424L69.903 18.4802L70.4199 18.5365L71.7409 15.0494C72.4876 13.1372 73.1768 11.3936 73.2343 11.2249C73.4066 10.8875 73.4066 10.9437 73.8661 12.0686C74.0958 12.7435 74.785 14.4308 75.3594 15.8931L76.3932 18.5365H76.8527C77.0825 18.5365 77.3122 18.4802 77.3696 18.3678C77.4271 18.2553 78.0589 16.6242 78.863 14.712C79.6096 12.7997 80.4712 10.6625 80.7583 9.98757C81.3901 8.41277 81.505 8.24404 81.9645 8.07531C82.1942 8.01907 82.3665 7.85034 82.3665 7.73786C82.3665 7.56913 82.0794 7.51289 80.6435 7.51289C79.0353 7.51289 78.9204 7.51289 78.9204 7.7941C78.9204 8.01907 79.0353 8.07531 79.265 8.07531C79.8394 8.07531 80.0691 8.24404 80.0691 8.5815C80.0691 8.86271 77.3122 16.118 77.1399 16.2868C77.025 16.3993 74.5553 9.65011 74.4979 8.9752C74.383 8.35653 74.6702 8.07531 75.3019 8.07531C75.5317 8.07531 75.6466 8.01907 75.6466 7.7941C75.6466 7.51289 75.5317 7.51289 73.4066 7.51289C71.2815 7.51289 71.1666 7.51289 71.1666 7.7941C71.1666 7.96283 71.2815 8.07531 71.3963 8.07531C71.8558 8.07531 72.4302 8.52526 72.6025 8.91896C72.8322 9.53763 72.6599 10.1563 71.3389 13.5309L70.2476 16.3993L70.0179 15.8368C69.903 15.5556 69.2138 13.7558 68.5245 11.8998C67.1461 8.24404 67.1461 8.07531 68.065 8.07531C68.4097 8.07531 68.4671 8.01907 68.4671 7.7941C68.4671 7.51289 68.3522 7.51289 66.342 7.51289C64.1594 7.4004 64.102 7.4004 64.2169 7.68161ZM93.2793 7.7941C93.2793 7.7941 93.2793 7.96283 93.2793 8.01907C93.2793 8.07531 93.4517 8.07531 93.4517 8.07531C93.5665 8.07531 93.624 8.13156 93.7388 8.13156C94.1983 8.24404 94.4855 8.30028 94.6004 8.5815C94.6578 8.75023 94.7152 9.42514 94.7152 12.9684C94.7152 16.6805 94.7152 17.1304 94.6004 17.3554C94.4855 17.6366 94.2557 17.8053 93.6814 17.9741C93.6814 17.9741 93.4516 18.0303 93.3942 18.0865C93.3368 18.1428 93.3368 18.2553 93.3368 18.2553C93.3368 18.2553 93.3368 18.3678 93.3942 18.424C93.4516 18.4802 93.624 18.4802 93.624 18.4802H95.0599H97.4722C97.4722 18.4802 97.587 18.4802 97.6445 18.424C97.7019 18.3678 97.7019 18.2553 97.7019 18.2553C97.7019 18.2553 97.7019 18.1428 97.6445 18.0865C97.587 18.0303 97.3573 17.9741 97.3573 17.9741C96.8404 17.8616 96.5532 17.6928 96.4383 17.4116C96.3234 17.1867 96.3234 16.6805 96.3234 15.4994V13.8121C96.3809 13.8683 96.4383 13.8683 96.4957 13.9246C96.7829 14.0933 97.1275 14.3745 98.3911 14.3745C99.9419 14.4308 100.861 13.7558 101.435 12.9684C102.01 12.181 102.182 10.9437 101.78 9.59387C101.378 8.30028 100.172 7.45664 98.506 7.4004C97.6445 7.34416 96.3234 7.4004 95.6342 7.45664H95.4619C94.8301 7.45664 94.026 7.56913 93.624 7.56913C93.5091 7.56913 93.5091 7.56913 93.4517 7.62537C93.2793 7.73786 93.2793 7.7941 93.2793 7.7941ZM99.6547 12.9684C100.287 12.406 100.287 11.5061 100.287 10.8875C100.229 9.98757 99.827 8.24404 97.7593 8.24404C97.2424 8.24404 96.266 8.30029 96.2086 8.9752C96.1511 9.08769 96.1511 9.93133 96.1511 11.1687V13.1934L96.3809 13.3059C96.4958 13.3621 96.6681 13.4184 96.8978 13.4746C97.7593 13.6996 99.0229 13.5309 99.6547 12.9684ZM86.4445 7.56913C86.6168 7.51288 86.7317 7.45664 86.7317 7.45664C86.7317 7.45664 86.9614 7.34416 87.0188 7.45664C87.0188 7.51288 87.1337 7.68161 87.3635 8.24404C87.4209 8.35653 87.4783 8.46901 87.4783 8.5815C87.7655 9.3689 88.225 10.4938 88.4547 11.1124C88.6845 11.7311 89.144 12.856 89.4886 13.7558C89.8332 14.5995 90.2353 15.6681 90.465 16.1743C90.6373 16.6805 90.9245 17.1304 90.9819 17.2429C91.0393 17.2991 91.0393 17.3554 91.0968 17.4116C91.2691 17.6366 91.4414 17.9741 91.8434 18.0303C91.8434 18.0303 92.1306 18.0865 92.1881 18.1428C92.2455 18.199 92.2455 18.2553 92.2455 18.2553V18.424C92.2455 18.424 92.2455 18.4802 92.1881 18.4802C92.1881 18.5365 92.0732 18.4802 92.0732 18.4802H89.6609H87.9378C87.9378 18.4802 87.8804 18.4802 87.8229 18.4802C87.7655 18.4802 87.7655 18.3678 87.7655 18.3678V18.2553C87.7655 18.2553 87.7655 18.1428 87.8229 18.0865C87.8804 18.0303 88.1676 17.9741 88.1676 17.9741C88.6845 17.9178 88.9142 17.5241 88.9717 17.2991V17.2429C89.0865 17.0179 89.0291 16.8492 88.5122 15.6681C88.1676 14.8807 88.0527 14.6557 87.9953 14.5995C87.9378 14.5995 87.0188 14.5995 86.0424 14.5995H84.1471L84.0322 14.8807C83.6876 15.7806 83.4004 16.6242 83.4004 16.8492C83.2855 17.2991 83.4578 17.8616 84.1471 17.9741C84.1471 17.9741 84.4342 18.0303 84.4917 18.0865C84.5491 18.1428 84.6065 18.2553 84.6065 18.2553V18.3678C84.6065 18.3678 84.6065 18.424 84.5491 18.4802C84.4917 18.5365 84.3768 18.4802 84.3768 18.4802H82.5963H80.8732C80.8732 18.4802 80.8158 18.4802 80.7583 18.424C80.7009 18.3678 80.7009 18.3115 80.7009 18.3115V18.199C80.7009 18.199 80.7009 18.1428 80.8158 18.0303C80.9307 17.9178 81.1604 17.9178 81.1604 17.9178C81.6199 17.8616 81.9071 17.3554 82.0794 17.0742C82.0794 17.0742 82.0794 17.0179 82.1368 17.0179C82.1942 16.9054 82.4814 16.2868 82.7686 15.6119C83.0558 14.9369 83.343 14.1495 83.4578 13.9246C83.8024 13.0809 84.1471 12.2935 84.664 11.0562C84.9512 10.3813 85.3532 9.3689 85.583 8.80647L85.985 7.7941L86.4445 7.56913ZM86.3296 9.98757C86.4445 10.2125 86.5594 10.55 86.6168 10.7187C86.6742 10.8875 86.904 11.3936 87.0763 11.8436C87.2486 12.2935 87.4783 12.7997 87.5932 13.0247C87.7081 13.2497 87.7655 13.4184 87.7655 13.4184C87.7655 13.4184 87.0763 13.4184 86.2147 13.4184C85.2383 13.4184 84.664 13.4184 84.664 13.3621C84.664 13.3621 84.7214 13.2497 84.7214 13.1372C84.7789 12.9684 85.1235 12.0686 85.8127 10.1563C85.9276 9.87509 86.0424 9.59387 86.0424 9.53763C86.0999 9.53763 86.1573 9.59387 86.3296 9.98757Z" fill="white" fill-opacity="0.9"/>
</svg>
