<svg width="97" height="26" viewBox="0 0 97 26" fill="none" xmlns="http://www.w3.org/2000/svg">
<path d="M12.7785 14.8803L11.5812 18.1656C11.5458 18.2567 11.5458 18.3579 11.5812 18.4491L13.6374 24.1033L16.0169 22.7265L13.1625 14.8803C13.0968 14.6981 12.8442 14.6981 12.7785 14.8803Z" fill="white" fill-opacity="0.9"/>
<path d="M15.1691 9.35274C15.1034 9.17051 14.8508 9.17051 14.7851 9.35274L13.5878 12.638C13.5524 12.7291 13.5524 12.8303 13.5878 12.9215L16.9575 22.1799L19.337 20.803L15.1691 9.35274Z" fill="white" fill-opacity="0.9"/>
<path d="M10.9423 2.15953C11.0029 2.15953 11.0585 2.17471 11.1141 2.20508L20.1876 7.4544C20.2937 7.51515 20.3594 7.62651 20.3594 7.748V18.2466C20.3594 18.3681 20.2937 18.4795 20.1876 18.5402L11.1141 23.7946C11.0635 23.825 11.0029 23.8402 10.9423 23.8402C10.8817 23.8402 10.8261 23.825 10.7705 23.7946L1.70206 18.5453C1.59597 18.4846 1.53029 18.3732 1.53029 18.2517V7.748C1.53029 7.62651 1.59597 7.51515 1.70206 7.4544L10.7756 2.20508C10.8261 2.17471 10.8867 2.15953 10.9423 2.15953ZM10.9423 0.625732C10.619 0.625732 10.2956 0.711787 10.0077 0.878834L0.934145 6.12815C0.358209 6.46225 -0.000488281 7.07981 -0.000488281 7.748V18.2466C-0.000488281 18.9148 0.358209 19.5375 0.934145 19.8715L10.0077 25.1209C10.2956 25.2879 10.619 25.374 10.9423 25.374C11.2656 25.374 11.589 25.2879 11.8769 25.1209L20.9505 19.8715C21.5314 19.5375 21.8851 18.9199 21.8851 18.2466V7.748C21.8851 7.07981 21.5264 6.45718 20.9505 6.12309L11.882 0.878834C11.589 0.711787 11.2656 0.625732 10.9423 0.625732Z" fill="white" fill-opacity="0.9"/>
<path d="M4.9451 22.1899L5.77869 19.9019L7.45598 21.299L5.88984 22.7366L4.9451 22.1899Z" fill="#261F40"/>
<path d="M10.1802 6.99854H7.88152C7.70975 6.99854 7.55314 7.10484 7.49756 7.26682L2.56674 20.8128L4.94627 22.1897L10.3772 7.27188C10.4227 7.14027 10.3267 6.99854 10.1802 6.99854Z" fill="white" fill-opacity="0.9"/>
<path d="M14.206 6.99854H11.9073C11.7355 6.99854 11.5789 7.10484 11.5233 7.26682L5.89026 22.7364L8.26978 24.1132L14.3979 7.27695C14.4485 7.14027 14.3474 6.99854 14.206 6.99854Z" fill="white" fill-opacity="0.9"/>
<path d="M31.68 9.81836C31.9074 9.81836 32.1044 9.86392 32.261 9.9601C32.4176 10.0563 32.5742 10.2385 32.7258 10.5119L35.7267 15.9687C35.7571 16.0295 35.7621 16.0801 35.7469 16.1206C35.7318 16.1611 35.6863 16.1813 35.6156 16.1813H34.4637C34.3627 16.1813 34.2919 16.1408 34.2566 16.0649L33.615 14.8956H29.3561L28.7296 16.0649C28.6892 16.1459 28.6185 16.1813 28.5225 16.1813H27.3454C27.2645 16.1813 27.219 16.1611 27.2039 16.1206C27.1887 16.0801 27.1938 16.0295 27.2241 15.9687L30.1998 10.5119C30.3513 10.2385 30.4978 10.0563 30.6444 9.9601C30.7909 9.86392 30.9576 9.81836 31.1496 9.81836H31.68ZM29.9169 13.8325H33.039L31.5992 11.1699C31.5739 11.1294 31.5436 11.1041 31.4982 11.1041H31.4426C31.4022 11.1041 31.3668 11.1244 31.3415 11.1699L29.9169 13.8325Z" fill="white" fill-opacity="0.9"/>
<path d="M42.32 9.81836C43.0172 9.81836 43.5123 9.97528 43.8154 10.2891C44.1185 10.603 44.2701 11.0687 44.2701 11.6862V12.2026C44.2701 12.724 44.164 13.134 43.9518 13.4377C43.7396 13.7414 43.3961 13.9338 42.9162 14.0198L44.4671 15.9434C44.4975 15.9738 44.5076 16.0193 44.4924 16.0801C44.4823 16.1408 44.4318 16.1712 44.3459 16.1712H43.1789C43.098 16.1712 43.0475 16.1611 43.0172 16.1459C42.9869 16.1256 42.9566 16.0953 42.9263 16.0548L41.4915 14.1666H38.5613V15.9738C38.5613 16.1054 38.4956 16.1712 38.3642 16.1712H37.3841C37.2427 16.1712 37.177 16.1054 37.177 15.9738V10.0917C37.177 9.90948 37.2679 9.81836 37.4498 9.81836H42.32ZM38.5663 13.0631H42.0371C42.3453 13.0631 42.5625 12.9973 42.6888 12.8657C42.8151 12.7341 42.8808 12.5316 42.8808 12.2583V11.8786C42.8808 11.6053 42.8151 11.4028 42.6888 11.2712C42.5625 11.1395 42.3453 11.0737 42.0371 11.0737H38.6825C38.6017 11.0737 38.5663 11.1092 38.5663 11.1851V13.0631Z" fill="white" fill-opacity="0.9"/>
<path d="M51.8521 9.81836C52.4735 9.81836 52.9181 9.94491 53.1808 10.1929C53.4435 10.441 53.5749 10.8156 53.5749 11.3167V11.7521C53.5749 12.2583 53.3829 12.643 52.9939 12.9062C53.4082 13.1492 53.6204 13.5389 53.6204 14.0755V14.602C53.6204 14.8449 53.5951 15.0626 53.5395 15.255C53.4839 15.4473 53.3981 15.6144 53.2718 15.7511C53.1455 15.8877 52.9838 15.994 52.7767 16.0649C52.5695 16.1358 52.3169 16.1763 52.0138 16.1763H46.6283C46.4464 16.1763 46.3555 16.0851 46.3555 15.9029V10.0917C46.3555 9.90948 46.4464 9.81836 46.6283 9.81836H51.8521ZM47.7448 12.4607H51.4631C51.7662 12.4607 51.9683 12.4152 52.0795 12.3241C52.1906 12.2329 52.2411 12.1013 52.2411 11.9242V11.6154C52.2411 11.4281 52.1906 11.2914 52.0845 11.2003C51.9784 11.1142 51.8067 11.0687 51.5743 11.0687H47.866C47.7852 11.0687 47.7498 11.1092 47.7498 11.1851V12.4607H47.7448ZM47.7448 13.4529V14.8045C47.7448 14.8854 47.7852 14.9209 47.861 14.9209H51.5793C51.8218 14.9209 51.9936 14.8753 52.0946 14.7893C52.1957 14.7032 52.2512 14.5615 52.2512 14.3691V14.0249C52.2512 13.8376 52.1957 13.6959 52.0845 13.5997C51.9734 13.5035 51.7662 13.4529 51.4631 13.4529H47.7448Z" fill="white" fill-opacity="0.9"/>
<path d="M57.0008 9.81836C57.1322 9.81836 57.1979 9.88417 57.1979 10.0158V15.9738C57.1979 16.1054 57.1322 16.1712 57.0008 16.1712H56.0207C55.8793 16.1712 55.8136 16.1054 55.8136 15.9738V10.0208C55.8136 9.88923 55.8843 9.82342 56.0207 9.82342L57.0008 9.81836Z" fill="white" fill-opacity="0.9"/>
<path d="M66.5002 9.81836C66.6416 9.81836 66.7073 9.88417 66.7073 10.0158V10.9067C66.7073 11.0484 66.6366 11.1142 66.5002 11.1142H63.6558V15.9738C63.6558 16.1054 63.5902 16.1712 63.4588 16.1712H62.4686C62.3373 16.1712 62.2716 16.1054 62.2716 15.9738V11.1142H59.4273C59.2858 11.1142 59.2201 11.0434 59.2201 10.9067V10.0158C59.2201 9.88417 59.2909 9.81836 59.4273 9.81836H66.5002Z" fill="white" fill-opacity="0.9"/>
<path d="M73.6679 9.81836C74.3651 9.81836 74.8602 9.97528 75.1633 10.2891C75.4664 10.603 75.618 11.0687 75.618 11.6862V12.2026C75.618 12.724 75.5119 13.134 75.2997 13.4377C75.0875 13.7414 74.744 13.9338 74.264 14.0198L75.815 15.9434C75.8453 15.9738 75.8554 16.0193 75.8403 16.0801C75.8302 16.1408 75.7796 16.1712 75.6938 16.1712H74.5267C74.4459 16.1712 74.3954 16.1611 74.3651 16.1459C74.3348 16.1256 74.3044 16.0953 74.2741 16.0548L72.8393 14.1666H69.9091V15.9738C69.9091 16.1054 69.8435 16.1712 69.7121 16.1712H68.732C68.5905 16.1712 68.5249 16.1054 68.5249 15.9738V10.0917C68.5249 9.90948 68.6158 9.81836 68.7977 9.81836H73.6679ZM69.9192 13.0631H73.39C73.6982 13.0631 73.9154 12.9973 74.0417 12.8657C74.168 12.7341 74.2337 12.5316 74.2337 12.2583V11.8786C74.2337 11.6053 74.168 11.4028 74.0417 11.2712C73.9154 11.1395 73.6982 11.0737 73.39 11.0737H70.0354C69.9546 11.0737 69.9192 11.1092 69.9192 11.1851V13.0631Z" fill="white" fill-opacity="0.9"/>
<path d="M78.765 9.81836C78.8963 9.81836 78.962 9.88417 78.962 10.0158V13.6402C78.962 13.8832 78.9822 14.0856 79.0226 14.2426C79.0631 14.4046 79.1287 14.5311 79.2197 14.6222C79.3106 14.7184 79.4319 14.7842 79.5885 14.8196C79.7451 14.8601 79.9371 14.8804 80.1745 14.8804H82.6854C82.9228 14.8804 83.1148 14.8601 83.2714 14.8196C83.4281 14.7791 83.5493 14.7133 83.6402 14.6222C83.7312 14.526 83.7969 14.3995 83.8322 14.2426C83.8676 14.0806 83.8878 13.8832 83.8878 13.6402V10.0158C83.8878 9.88417 83.9535 9.81836 84.0848 9.81836H85.075C85.2064 9.81836 85.2721 9.88417 85.2721 10.0158V13.7769C85.2721 14.2122 85.2266 14.5817 85.1357 14.8905C85.0447 15.1942 84.8982 15.4423 84.6961 15.6346C84.494 15.827 84.2313 15.9637 83.908 16.0497C83.5847 16.1358 83.1957 16.1763 82.7359 16.1763H80.124C79.6643 16.1763 79.2753 16.1358 78.957 16.0497C78.6387 15.9637 78.376 15.827 78.1739 15.6346C77.9718 15.4423 77.8253 15.1942 77.7293 14.8905C77.6333 14.5868 77.5879 14.2122 77.5879 13.7769V10.0158C77.5879 9.88417 77.6586 9.81836 77.795 9.81836H78.765Z" fill="white" fill-opacity="0.9"/>
<path d="M89.1679 9.81836C89.2992 9.81836 89.4154 9.82848 89.5114 9.84367C89.6074 9.86392 89.6933 9.89429 89.764 9.94997C89.8348 10.0006 89.9004 10.0715 89.9611 10.1575C90.0166 10.2436 90.0773 10.36 90.1379 10.5068L92.0223 14.8652C92.0476 14.9209 92.088 14.9462 92.1486 14.9462H92.2597C92.3204 14.9462 92.3608 14.9209 92.3861 14.8652L94.2705 10.5068C94.3311 10.36 94.3917 10.2436 94.4473 10.1575C94.5029 10.0715 94.5685 10.0006 94.6443 9.94997C94.7151 9.89935 94.8009 9.86392 94.8919 9.84367C94.9879 9.82342 95.099 9.81836 95.2304 9.81836H96.2004C96.5136 9.81836 96.7258 9.88923 96.8369 10.031C96.9481 10.1727 96.9986 10.4157 96.9986 10.7599V15.9738C96.9986 16.1054 96.9279 16.1712 96.7915 16.1712H95.8669C95.7356 16.1712 95.6699 16.1054 95.6699 15.9738V11.2307C95.6699 11.1699 95.6446 11.1395 95.5992 11.1395H95.5183C95.4577 11.1395 95.4173 11.1649 95.4021 11.2104L93.5733 15.2803C93.5026 15.4423 93.4268 15.584 93.351 15.6954C93.2752 15.8067 93.1944 15.8978 93.1085 15.9738C93.0226 16.0446 92.9216 16.1003 92.8104 16.1307C92.6993 16.1611 92.5679 16.1763 92.4164 16.1763H91.9819C91.8303 16.1763 91.699 16.1611 91.5878 16.1307C91.4767 16.1003 91.3756 16.0497 91.2898 15.9738C91.2039 15.9029 91.118 15.8067 91.0473 15.6954C90.9715 15.584 90.8957 15.4473 90.825 15.2803L88.9961 11.2104C88.9759 11.1598 88.9405 11.1395 88.8799 11.1395H88.7991C88.7486 11.1395 88.7284 11.1699 88.7284 11.2307V15.9738C88.7284 16.1054 88.6627 16.1712 88.5313 16.1712H87.6068C87.4653 16.1712 87.3997 16.1054 87.3997 15.9738V10.7599C87.3997 10.4157 87.4552 10.1727 87.5613 10.031C87.6725 9.88923 87.8847 9.81836 88.2029 9.81836H89.1679Z" fill="white" fill-opacity="0.9"/>
</svg>
