<svg width="100" height="14" viewBox="0 0 100 14" fill="none" xmlns="http://www.w3.org/2000/svg">
<mask id="mask0_1_530" style="mask-type:luminance" maskUnits="userSpaceOnUse" x="0" y="0" width="100" height="14">
<path d="M0.364319 0H99.637V14H0.364319V0Z" fill="white"/>
</mask>
<g mask="url(#mask0_1_530)">
<path d="M17.0413 11.0382L14.3182 13.809C14.2594 13.8692 14.188 13.9172 14.1087 13.9501C14.0294 13.983 13.9438 14 13.8572 14.0001H0.948697C0.88713 14 0.826909 13.983 0.775408 13.9509C0.723907 13.9189 0.683361 13.8734 0.658736 13.8198C0.63411 13.7663 0.626472 13.7071 0.636759 13.6495C0.647046 13.5919 0.67481 13.5383 0.716651 13.4955L3.43666 10.7246C3.49556 10.6645 3.56689 10.6164 3.64621 10.5836C3.72553 10.5507 3.81113 10.5337 3.89768 10.5336H16.8062C16.8683 10.5324 16.9295 10.5486 16.9819 10.5803C17.0343 10.612 17.0757 10.6577 17.1008 10.7116C17.126 10.7655 17.1337 10.8253 17.1231 10.8834C17.1125 10.9415 17.0841 10.9954 17.0413 11.0382ZM14.3182 5.45715C14.2591 5.39724 14.1877 5.3494 14.1085 5.31655C14.0292 5.2837 13.9437 5.26654 13.8572 5.26611H0.948697C0.88713 5.26614 0.826909 5.28321 0.775408 5.31522C0.723907 5.34724 0.683361 5.39281 0.658736 5.44636C0.63411 5.49991 0.626472 5.55911 0.636759 5.61672C0.647046 5.67432 0.67481 5.72783 0.716651 5.77069L3.43666 8.54298C3.49579 8.60289 3.56716 8.65073 3.64643 8.68358C3.7257 8.71643 3.81119 8.73359 3.89768 8.73402H16.8062C16.8676 8.73371 16.9277 8.71643 16.9789 8.68431C17.0302 8.65218 17.0705 8.6066 17.0949 8.5531C17.1194 8.49961 17.1269 8.44053 17.1166 8.38305C17.1062 8.32558 17.0785 8.27221 17.0367 8.22944L14.3182 5.45715ZM0.948697 3.46652H13.8572C13.9438 3.46645 14.0294 3.44945 14.1087 3.41658C14.188 3.38371 14.2594 3.33568 14.3182 3.27548L17.0413 0.504648C17.0732 0.472624 17.0973 0.434304 17.1118 0.392427C17.1263 0.35055 17.1309 0.30615 17.1252 0.2624C17.1195 0.218651 17.1037 0.176633 17.079 0.13935C17.0542 0.102068 17.021 0.0704408 16.9819 0.0467309C16.9294 0.0150784 16.8683 -0.00115782 16.8062 6.42454e-05H3.89768C3.81113 0.000150701 3.72553 0.0171586 3.64621 0.0500273C3.56689 0.082896 3.49556 0.130921 3.43666 0.191106L0.716651 2.96194C0.67481 3.0048 0.647046 3.05831 0.636759 3.11591C0.626472 3.17352 0.63411 3.23272 0.658736 3.28627C0.683361 3.33982 0.723907 3.38539 0.775408 3.41741C0.826909 3.44942 0.88713 3.46649 0.948697 3.46652Z" fill="white" fill-opacity="0.9"/>
<path d="M32.7806 5.92084H25.8745V3.7625H34.5755V1.60417H25.8514C25.5534 1.6026 25.2579 1.65676 24.9819 1.76358C24.7058 1.8704 24.4547 2.02777 24.2428 2.22671C24.0309 2.42564 23.8623 2.66225 23.7468 2.92302C23.6312 3.18378 23.571 3.46359 23.5694 3.74646V5.93396C23.5706 6.21708 23.6305 6.49721 23.7459 6.75831C23.8613 7.01941 24.0297 7.25636 24.2417 7.45561C24.4537 7.65485 24.7049 7.81248 24.9812 7.91948C25.2574 8.02648 25.5531 8.08075 25.8514 8.07917H32.7667V10.2375H23.7338V12.3958H32.7806C33.2295 12.3982 33.6691 12.2742 34.0437 12.0394C34.4183 11.8046 34.7111 11.4697 34.8851 11.0769C35.0007 10.8162 35.061 10.5364 35.0626 10.2535V8.06605C35.0614 7.78293 35.0014 7.50282 34.886 7.24173C34.7707 6.98063 34.6022 6.74369 34.3902 6.54445C34.1783 6.3452 33.927 6.18757 33.6508 6.08057C33.3746 5.97356 33.0789 5.91928 32.7806 5.92084ZM46.1593 1.60417H39.2271C38.7775 1.60077 38.3368 1.72419 37.9612 1.95877C37.5855 2.19335 37.2917 2.52852 37.1171 2.92178C37.001 3.18286 36.9405 3.46312 36.9389 3.74646V10.2535C36.9405 10.5369 37.001 10.8172 37.1171 11.0784C37.2917 11.4716 37.5855 11.8068 37.9611 12.0414C38.3368 12.2759 38.7775 12.3993 39.2271 12.3958H46.1593C46.4574 12.3974 46.7529 12.3432 47.0289 12.2364C47.3049 12.1296 47.5561 11.9722 47.768 11.7733C47.9799 11.5744 48.1484 11.3378 48.264 11.077C48.3795 10.8162 48.4398 10.5364 48.4414 10.2535V3.74646C48.4398 3.4636 48.3795 3.1838 48.264 2.92305C48.1484 2.66231 47.9798 2.42575 47.7678 2.22688C47.556 2.02788 47.3049 1.87045 47.0289 1.7636C46.7529 1.65675 46.4574 1.60258 46.1593 1.60417ZM46.1424 10.2375H39.244V3.7625H46.1393L46.1424 10.2375ZM70.4397 1.60417H63.678C63.38 1.6026 63.0845 1.65676 62.8085 1.76358C62.5324 1.8704 62.2813 2.02777 62.0694 2.22671C61.8575 2.42564 61.6889 2.66225 61.5734 2.92302C61.4578 3.18378 61.3976 3.46359 61.396 3.74646V12.3958H63.7011V8.85063H70.432V12.3958H72.7371V3.74646C72.7355 3.46234 72.6748 3.18131 72.5583 2.91957C72.4418 2.65783 72.2719 2.42055 72.0583 2.22142C71.8448 2.02228 71.5918 1.86521 71.314 1.75928C71.0362 1.65334 70.739 1.60063 70.4397 1.60417ZM70.4227 6.6923H63.6919V3.7625H70.4227V6.6923ZM97.3555 1.60417H90.5939C90.2958 1.6026 90.0003 1.65676 89.7243 1.76358C89.4483 1.8704 89.1971 2.02777 88.9852 2.22671C88.7733 2.42564 88.6047 2.66225 88.4892 2.92302C88.3737 3.18378 88.3134 3.46359 88.3118 3.74646V12.3958H90.6169V8.85063H97.3324V12.3958H99.6375V3.74646C99.636 3.4636 99.5757 3.1838 99.4601 2.92305C99.3445 2.66231 99.1759 2.42575 98.964 2.22688C98.536 1.82512 97.9574 1.60113 97.3555 1.60417ZM97.3324 6.6923H90.6015V3.7625H97.3324V6.6923ZM83.9629 10.2375H83.0408L79.7445 2.50834C79.6316 2.24165 79.4373 2.01308 79.1864 1.85197C78.9356 1.69087 78.6398 1.60457 78.3369 1.60417H76.2915C75.9921 1.60264 75.699 1.68545 75.4492 1.84212C75.1994 1.99879 75.0042 2.22227 74.8883 2.48428C74.8114 2.65817 74.7712 2.84473 74.7702 3.03334V12.3958H77.0752V3.7625H77.9973L81.292 11.4917C81.4068 11.7579 81.6026 11.9855 81.8545 12.1456C82.1063 12.3056 82.4027 12.3907 82.7058 12.39H84.7512C84.95 12.391 85.1471 12.3548 85.3311 12.2835C85.5152 12.2122 85.6826 12.1072 85.8238 11.9744C86.1091 11.7063 86.2705 11.3418 86.2726 10.9608V1.60417H83.9629V10.2375ZM52.7826 1.60417H50.4775V10.2535C50.4791 10.537 50.5396 10.8174 50.6556 11.0786C50.7717 11.3399 50.9409 11.5768 51.1537 11.7758C51.3664 11.9748 51.6185 12.132 51.8954 12.2384C52.1723 12.3448 52.4685 12.3983 52.7673 12.3958H59.6825V10.2375H52.7826V1.60417Z" fill="white" fill-opacity="0.9"/>
</g>
</svg>
