<svg width="88" height="24" viewBox="0 0 88 24" fill="none" xmlns="http://www.w3.org/2000/svg">
<path d="M21.0432 6.41535L20.5574 5.56222C20.5193 5.49536 20.4662 5.4382 20.4024 5.39522C20.3385 5.35224 20.2656 5.32459 20.1894 5.31443C20.1131 5.30427 20.0355 5.31188 19.9626 5.33666C19.8898 5.36144 19.8236 5.40272 19.7693 5.45728L18.6519 6.57373C18.5702 6.65584 18.5194 6.76365 18.5081 6.87893C18.4967 6.9942 18.5256 7.10985 18.5897 7.20629C18.9972 7.82892 19.3237 8.50089 19.5614 9.20599C20.0055 10.5241 20.1295 11.929 19.9232 13.3045C19.7169 14.68 19.1861 15.9867 18.3749 17.1165C17.5636 18.2463 16.4951 19.1668 15.2576 19.8019C14.0202 20.437 12.6494 20.7684 11.2585 20.7689C9.8266 20.7728 8.41598 20.4227 7.15217 19.7496L9.04207 17.8587C10.2132 18.3017 11.4902 18.3832 12.7081 18.0927C13.926 17.8022 15.0288 17.1531 15.8739 16.2293C16.719 15.3055 17.2676 14.1495 17.4488 12.9106C17.63 11.6717 17.4354 10.407 16.8903 9.27984C16.8557 9.20767 16.8042 9.14485 16.7403 9.09666C16.6764 9.04847 16.6019 9.01631 16.523 9.00289C16.4441 8.98947 16.3631 8.99517 16.2868 9.01952C16.2106 9.04387 16.1413 9.08616 16.0848 9.14283L14.9537 10.2661C14.8934 10.3263 14.8495 10.401 14.8262 10.4829C14.8029 10.5649 14.801 10.6515 14.8206 10.7344L14.9178 11.1406C15.085 11.8521 15.0408 12.5969 14.7908 13.2836C14.5407 13.9704 14.0956 14.5692 13.51 15.0066C12.9245 15.4439 12.224 15.7008 11.4945 15.7458C10.7651 15.7907 10.0383 15.6217 9.40353 15.2595L8.90507 14.9738C8.80981 14.919 8.69909 14.8971 8.59013 14.9117C8.48118 14.9263 8.3801 14.9765 8.30263 15.0545L3.68622 19.6699C3.63582 19.7203 3.59678 19.7809 3.57169 19.8476C3.5466 19.9143 3.53605 19.9856 3.54074 20.0567C3.54543 20.1278 3.56526 20.1971 3.59889 20.2599C3.63253 20.3228 3.6792 20.3777 3.73577 20.421L4.41594 20.9428C6.37745 22.4544 8.78598 23.2707 11.2623 23.2632C13.2339 23.2606 15.1702 22.741 16.8782 21.7562C18.5861 20.7714 20.0059 19.3558 20.9957 17.6508C21.9856 15.9458 22.5109 14.0109 22.5192 12.0394C22.5275 10.0679 22.0186 8.12869 21.0432 6.41535Z" fill="white" fill-opacity="0.9"/>
<path d="M18.1091 3.05819C16.1478 1.54606 13.7392 0.7294 11.2627 0.736867C9.29017 0.7384 7.35263 1.25753 5.64361 2.24239C3.9346 3.22725 2.51395 4.64336 1.52362 6.34921C0.533295 8.05506 0.00796171 9.99094 0.000112164 11.9634C-0.00773739 13.9359 0.502171 15.8759 1.47889 17.5895L1.96473 18.4417C2.00299 18.5085 2.05612 18.5656 2.12 18.6085C2.18388 18.6515 2.25679 18.6792 2.33308 18.6894C2.40938 18.6997 2.48701 18.6922 2.55995 18.6676C2.6329 18.643 2.6992 18.602 2.75372 18.5476L3.8692 17.4321C3.95034 17.3499 4.00079 17.2423 4.01211 17.1274C4.02343 17.0124 3.99493 16.897 3.93139 16.8005C3.52357 16.1781 3.19703 15.5061 2.95972 14.8008C2.51562 13.4827 2.3916 12.0779 2.59792 10.7024C2.80424 9.32684 3.33497 8.02017 4.14624 6.89037C4.95752 5.76057 6.02604 4.84007 7.26348 4.20497C8.50092 3.56986 9.87175 3.23839 11.2627 3.23795C12.6945 3.23471 14.1048 3.58588 15.368 4.26015L13.4771 6.15005C12.5299 5.79105 11.5097 5.66741 10.5041 5.78975C9.49857 5.91209 8.53776 6.27675 7.70426 6.85239C6.87076 7.42803 6.18948 8.19745 5.71899 9.09451C5.24849 9.99158 5.00284 10.9895 5.00315 12.0024C5.00315 12.1064 5.03132 12.5806 5.04007 12.6622C5.11669 13.3798 5.3162 14.0789 5.62987 14.7289C5.6646 14.8011 5.71613 14.8639 5.78013 14.9121C5.84412 14.9603 5.91874 14.9925 5.99771 15.0059C6.07669 15.0193 6.15773 15.0136 6.23405 14.9892C6.31036 14.9649 6.37974 14.9226 6.43636 14.8659L7.56739 13.734C7.62763 13.6739 7.67155 13.5994 7.69501 13.5176C7.71848 13.4359 7.7207 13.3495 7.70148 13.2666L7.60431 12.8594C7.43689 12.148 7.4809 11.4031 7.73093 10.7162C7.98096 10.0294 8.42613 9.43053 9.01177 8.99318C9.59742 8.55583 10.298 8.29904 11.0276 8.25433C11.7571 8.20962 12.4839 8.37894 13.1186 8.7415L13.617 9.02717C13.7124 9.08155 13.823 9.10311 13.9318 9.08854C14.0407 9.07397 14.1417 9.02408 14.2195 8.94652L18.8349 4.33108C18.8854 4.28067 18.9245 4.22006 18.9497 4.15332C18.9748 4.08658 18.9855 4.01523 18.9809 3.94404C18.9763 3.87286 18.9566 3.80347 18.923 3.74052C18.8894 3.67757 18.8428 3.62251 18.7863 3.57901L18.1091 3.05819Z" fill="white" fill-opacity="0.9"/>
<path d="M37.0827 15.109C36.9985 15.0407 36.8928 15.0045 36.7843 15.007C36.6759 15.0095 36.5719 15.0505 36.491 15.1226C35.7671 15.6843 34.9275 16.2041 33.7003 16.2041C31.4538 16.2041 29.6261 14.3123 29.6261 11.9851C29.6261 9.65796 31.447 7.74959 33.6838 7.74959C34.6555 7.74959 35.7049 8.15867 36.4764 8.83592C36.5199 8.88637 36.5739 8.92662 36.6347 8.95382C36.6955 8.98103 36.7615 8.99452 36.8281 8.99333C36.8858 8.98875 36.9418 8.97159 36.9922 8.94305C37.0426 8.91451 37.0861 8.87529 37.1196 8.82815L37.8503 8.07608C37.8968 8.03107 37.9335 7.97694 37.9581 7.91708C37.9827 7.85721 37.9946 7.79291 37.9932 7.72822C37.9904 7.66248 37.9742 7.59801 37.9454 7.53883C37.9167 7.47965 37.876 7.42703 37.826 7.38424C36.5502 6.27265 35.2686 5.7771 33.6663 5.7771C30.246 5.7771 27.4632 8.57746 27.4632 12.0191C27.4644 13.6644 28.1183 15.2419 29.2812 16.4057C30.4441 17.5695 32.0211 18.2246 33.6663 18.2271C34.4392 18.2363 35.2062 18.0925 35.9233 17.804C36.6404 17.5155 37.2933 17.088 37.8445 16.5461C37.8929 16.4968 37.9309 16.4383 37.9562 16.374C37.9816 16.3098 37.9938 16.2411 37.9922 16.172C37.9909 16.1171 37.9785 16.0629 37.9558 16.0128C37.9331 15.9627 37.9005 15.9178 37.8601 15.8805L37.0827 15.109Z" fill="white" fill-opacity="0.9"/>
<path d="M42.4013 5.94604H41.2946C41.1711 5.95019 41.0538 6.00123 40.9667 6.08878C40.8795 6.17633 40.8289 6.2938 40.8253 6.41731V17.5915C40.8287 17.7152 40.8791 17.8329 40.9663 17.9207C41.0535 18.0084 41.1709 18.0596 41.2946 18.0638H42.4013C42.525 18.0596 42.6424 18.0084 42.7296 17.9207C42.8168 17.8329 42.8672 17.7152 42.8706 17.5915V6.41731C42.867 6.2938 42.8165 6.17633 42.7293 6.08878C42.6421 6.00123 42.5248 5.95019 42.4013 5.94604Z" fill="white" fill-opacity="0.9"/>
<path d="M55.4999 9.70739C55.4999 7.63384 53.7926 5.94604 51.6938 5.94604H47.1299C47.0052 5.94656 46.8859 5.99644 46.7979 6.08476C46.7099 6.17308 46.6606 6.29266 46.6606 6.41731V17.5915C46.6603 17.7164 46.7096 17.8362 46.7976 17.9247C46.8855 18.0132 47.0051 18.0633 47.1299 18.0638H48.2201C48.3437 18.0596 48.4611 18.0084 48.5484 17.9207C48.6356 17.8329 48.686 17.7152 48.6894 17.5915V13.4357H50.9767L53.1678 17.8228C53.2077 17.8947 53.2662 17.9545 53.3371 17.9961C53.4081 18.0376 53.4889 18.0593 53.5711 18.0589H54.879C54.9616 18.0616 55.0435 18.0425 55.1163 18.0034C55.1892 17.9644 55.2504 17.9067 55.2939 17.8364C55.3352 17.7621 55.3569 17.6785 55.3569 17.5935C55.3569 17.5085 55.3352 17.4248 55.2939 17.3506L53.0707 13.2073C54.5729 12.5398 55.4999 11.2125 55.4999 9.70739ZM53.4545 9.7414C53.4545 10.7937 52.5868 11.6847 51.5597 11.6847H48.7234V7.88453H51.5558C52.5848 7.88453 53.4506 8.73474 53.4506 9.7414H53.4545Z" fill="white" fill-opacity="0.9"/>
<path d="M67.4105 15.109C67.3263 15.0407 67.2205 15.0045 67.1121 15.007C67.0037 15.0095 66.8997 15.0505 66.8188 15.1226C66.0949 15.6843 65.2553 16.2041 64.0281 16.2041C61.7816 16.2041 59.9539 14.3123 59.9539 11.9851C59.9539 9.65796 61.7738 7.74959 64.0106 7.74959C64.9823 7.74959 66.0317 8.15867 66.8042 8.83592C66.8479 8.88686 66.9024 8.92741 66.9638 8.95464C67.0251 8.98187 67.0917 8.99509 67.1588 8.99333C67.2165 8.98875 67.2725 8.97159 67.3229 8.94305C67.3733 8.91451 67.4168 8.87529 67.4503 8.82815L68.181 8.07608C68.2274 8.03103 68.264 7.97686 68.2884 7.91699C68.3128 7.85713 68.3246 7.79285 68.3229 7.72822C68.3206 7.66249 68.3046 7.59798 68.276 7.53876C68.2474 7.47954 68.2068 7.42692 68.1568 7.38424C66.8839 6.27265 65.6022 5.7771 63.9999 5.7771C60.5797 5.7771 57.7968 8.57746 57.7968 12.0191C57.7981 13.6644 58.4519 15.2419 59.6148 16.4057C60.7777 17.5695 62.3547 18.2246 63.9999 18.2271C64.7728 18.2362 65.5398 18.0923 66.2569 17.8038C66.9739 17.5153 67.6269 17.0879 68.1781 16.5461C68.2266 16.4967 68.2646 16.438 68.29 16.3736C68.3153 16.3091 68.3275 16.2403 68.3258 16.1711C68.3246 16.1161 68.3122 16.0619 68.2895 16.0118C68.2668 15.9617 68.2342 15.9168 68.1937 15.8796L67.4105 15.109Z" fill="white" fill-opacity="0.9"/>
<path d="M77.5877 16.1875H73.1958V6.41731C73.1921 6.2938 73.1416 6.17633 73.0544 6.08878C72.9672 6.00123 72.8499 5.95019 72.7264 5.94604H71.6197C71.4951 5.94656 71.3757 5.99644 71.2877 6.08476C71.1998 6.17308 71.1504 6.29266 71.1504 6.41731V17.5915C71.1501 17.7164 71.1994 17.8362 71.2874 17.9247C71.3754 18.0132 71.4949 18.0633 71.6197 18.0638H77.5877C77.6496 18.0636 77.7109 18.0513 77.768 18.0275C77.8251 18.0037 77.877 17.9689 77.9207 17.925C77.9643 17.8812 77.9989 17.8292 78.0225 17.772C78.0461 17.7147 78.0581 17.6534 78.058 17.5915V16.6636C78.0586 16.6014 78.047 16.5397 78.0236 16.482C78.0003 16.4243 77.9658 16.3718 77.922 16.3276C77.8783 16.2833 77.8263 16.2481 77.7689 16.2241C77.7115 16.2 77.6499 16.1876 77.5877 16.1875Z" fill="white" fill-opacity="0.9"/>
<path d="M87.5307 7.83693C87.6553 7.83642 87.7747 7.78654 87.8627 7.69822C87.9506 7.6099 88 7.49032 88 7.36567V6.42024C88 6.29559 87.9506 6.17601 87.8627 6.08769C87.7747 5.99937 87.6553 5.94949 87.5307 5.94897H80.8261C80.7015 5.94949 80.5821 5.99937 80.4942 6.08769C80.4062 6.17601 80.3568 6.29559 80.3568 6.42024V17.5945C80.3566 17.7193 80.4058 17.8391 80.4938 17.9276C80.5818 18.0162 80.7013 18.0662 80.8261 18.0667H87.5307C87.6555 18.0662 87.775 18.0162 87.863 17.9276C87.951 17.8391 88.0003 17.7193 88 17.5945V16.6665C88 16.5419 87.9506 16.4223 87.8627 16.334C87.7747 16.2456 87.6553 16.1958 87.5307 16.1953H82.3808V12.8614H86.7057C86.8306 12.8612 86.9502 12.8114 87.0383 12.7231C87.1265 12.6347 87.176 12.515 87.176 12.3902V11.4457C87.1726 11.3219 87.122 11.204 87.0346 11.1163C86.9472 11.0285 86.8296 10.9774 86.7057 10.9735H82.3837V7.83693H87.5307Z" fill="white" fill-opacity="0.9"/>
</svg>
