<svg width="110" height="8" viewBox="0 0 110 8" fill="none" xmlns="http://www.w3.org/2000/svg">
<path d="M10.7754 3.79403C10.308 3.33462 9.74631 3.10502 9.09006 3.10502H2.58476C2.46394 3.10502 2.36029 3.06281 2.27359 2.97817C2.1869 2.89375 2.14366 2.79078 2.14366 2.66927V2.13866C2.14366 2.02268 2.1869 1.92227 2.27359 1.83764C2.36029 1.75322 2.46394 1.7108 2.58476 1.7108H10.9723C10.9933 1.7108 11.0103 1.70419 11.0234 1.69097C11.0366 1.67797 11.0431 1.66326 11.0431 1.64748V0.0633155C11.0431 0.0422103 11.0366 0.0264347 11.0234 0.0157756C11.0103 0.00532957 10.9931 0 10.9723 0H2.58476C1.92321 0 1.36001 0.229812 0.895377 0.689224C0.430743 1.14863 0.198425 1.70291 0.198425 2.35248V2.45545C0.198425 3.11035 0.430743 3.6674 0.895377 4.12679C1.36001 4.5862 1.92321 4.8158 2.58476 4.8158H9.09006C9.20558 4.8158 9.3067 4.85676 9.39319 4.93861C9.47987 5.02049 9.52311 5.12217 9.52311 5.24369V5.7743C9.52311 5.89578 9.47987 5.9975 9.39319 6.07935C9.30646 6.16123 9.20538 6.20215 9.09006 6.20215H0.694642C0.678958 6.20215 0.664329 6.20875 0.651401 6.22199C0.638261 6.23519 0.631689 6.25247 0.631689 6.27355V7.85774C0.631689 7.8735 0.638261 7.88822 0.651401 7.90122C0.664541 7.91442 0.678958 7.92106 0.694642 7.92106H9.09006C9.74631 7.92106 10.308 7.69017 10.7754 7.22797C11.2426 6.766 11.4764 6.21023 11.4764 5.5607V5.45749C11.4762 4.80792 11.2426 4.25343 10.7754 3.79403Z" fill="white" fill-opacity="0.9"/>
<path d="M24.8986 0H23.0792C23.0635 0 23.0489 0.00532957 23.036 0.0157756C23.0229 0.0264347 23.0163 0.0422103 23.0163 0.0633155V2.07513C23.0163 2.2493 22.9268 2.38147 22.7486 2.47122L19.118 3.98397L15.4874 2.47122C15.3089 2.38147 15.2197 2.24951 15.2197 2.07513V0.0633155C15.2197 0.0422103 15.2144 0.0264347 15.204 0.0157756C15.1932 0.00532957 15.1775 0 15.1565 0H13.3372C13.3215 0 13.3069 0.00532957 13.2939 0.0157756C13.2808 0.0264347 13.2742 0.0422103 13.2742 0.0633155V2.36826C13.2742 2.7117 13.3688 3.02571 13.5579 3.31074C13.7469 3.59598 14.004 3.80703 14.3296 3.94432L18.1415 5.55214V7.84942C18.1415 7.87054 18.148 7.88778 18.1611 7.90102C18.1743 7.91422 18.1913 7.92082 18.2123 7.92082H20.0316C20.0472 7.92082 20.0616 7.91422 20.0748 7.90102C20.0879 7.88778 20.0945 7.87074 20.0945 7.84942V5.55238L23.9063 3.95242C24.2317 3.8098 24.4892 3.59726 24.6781 3.31479C24.8672 3.03232 24.9615 2.71958 24.9615 2.37615V0.0633155C24.9615 0.0422103 24.9549 0.0264347 24.9418 0.0157756C24.9286 0.00532957 24.9143 0 24.8986 0Z" fill="white" fill-opacity="0.9"/>
<path d="M38.412 0H36.5927C36.5717 0 36.5558 0.00660867 36.5454 0.0198261C36.5348 0.0330435 36.5297 0.04754 36.5297 0.0633155V6.20983H35.7658C35.624 6.20983 35.5031 6.14651 35.4035 6.01966L31.8753 0.831631C31.4972 0.298457 30.9746 0.0211052 30.308 0H27.2682C27.2472 0 27.23 0.00660867 27.2169 0.0198261C27.2037 0.0330435 27.1972 0.04754 27.1972 0.0633155V7.8573C27.1972 7.8731 27.2037 7.88778 27.2169 7.90078C27.23 7.91402 27.247 7.92062 27.2682 7.92062H29.0875C29.1032 7.92062 29.1176 7.91402 29.1307 7.90078C29.1439 7.88778 29.1504 7.8731 29.1504 7.8573V1.7108H29.9144C30.0562 1.7108 30.1768 1.77689 30.2766 1.90885L33.8048 7.09688C34.183 7.63025 34.7053 7.90486 35.3722 7.92062H38.4122C38.4332 7.92062 38.4488 7.91402 38.4594 7.90078C38.4698 7.88778 38.4751 7.8731 38.4751 7.8573V0.0633155C38.4751 0.04754 38.4698 0.0330435 38.4594 0.0198261C38.4486 0.00660867 38.433 0 38.412 0Z" fill="white" fill-opacity="0.9"/>
<path d="M51.5615 0H40.4173C40.3965 0 40.3805 0.00660867 40.3701 0.0198261C40.3593 0.0330435 40.3545 0.04754 40.3545 0.0633155V1.64748C40.3545 1.66326 40.3593 1.67797 40.3701 1.69097C40.3805 1.70419 40.3965 1.7108 40.4173 1.7108H45.0166V7.8573C45.0166 7.8731 45.0218 7.88778 45.0322 7.90078C45.0426 7.91402 45.0586 7.92062 45.0794 7.92062H46.899C46.9198 7.92062 46.9354 7.91402 46.9462 7.90078C46.9566 7.88778 46.9618 7.8731 46.9618 7.8573V1.7108H51.5611C51.5823 1.7108 51.5991 1.70419 51.6123 1.69097C51.6255 1.67775 51.6319 1.66326 51.6319 1.64748V0.0633155C51.6319 0.04754 51.6255 0.0330435 51.6123 0.0198261C51.5995 0.00660867 51.5823 0 51.5615 0Z" fill="white" fill-opacity="0.9"/>
<path d="M65.0748 0H63.2556C63.2396 0 63.2252 0.00660867 63.212 0.0198261C63.1992 0.0330435 63.1924 0.04754 63.1924 0.0633155V3.10481H55.821V0.0633155C55.821 0.04754 55.8142 0.0330435 55.801 0.0198261C55.7878 0.00682188 55.7706 0 55.7502 0H53.9306C53.915 0 53.9006 0.00660867 53.8874 0.0198261C53.8742 0.0330435 53.8678 0.04754 53.8678 0.0633155V7.8573C53.8678 7.8731 53.8742 7.88778 53.8874 7.90078C53.9006 7.91402 53.915 7.92062 53.9306 7.92062H55.7502C55.771 7.92062 55.7878 7.91402 55.801 7.90078C55.8142 7.88758 55.821 7.8731 55.821 7.8573V4.8158H63.1924V7.8573C63.1924 7.8731 63.1992 7.88778 63.212 7.90078C63.2252 7.91402 63.2396 7.92062 63.2556 7.92062H65.0748C65.0956 7.92062 65.1128 7.91402 65.126 7.90078C65.1388 7.88758 65.1456 7.8731 65.1456 7.8573V0.0633155C65.1456 0.04754 65.1388 0.0330435 65.126 0.0198261C65.1128 0.00660867 65.0956 0 65.0748 0Z" fill="white" fill-opacity="0.9"/>
<path d="M78.5392 0H69.7106C69.0542 0 68.4926 0.229599 68.0254 0.689008C67.5578 1.14842 67.3242 1.70291 67.3242 2.35248V5.56026C67.3242 6.21515 67.5578 6.7722 68.0254 7.23161C68.4926 7.69101 69.0542 7.92082 69.7106 7.92082H78.5392C78.5548 7.92082 78.5692 7.91422 78.5824 7.90102C78.5956 7.88778 78.602 7.8733 78.602 7.85754V6.27335C78.602 6.25223 78.5956 6.23647 78.5824 6.22583C78.5692 6.21535 78.5548 6.21003 78.5392 6.21003H69.7106C69.5898 6.21003 69.4874 6.16783 69.4034 6.08339C69.3194 5.99898 69.2774 5.89858 69.2774 5.78238V4.8158H78.5336C78.5544 4.8158 78.57 4.8092 78.5808 4.796C78.5912 4.78276 78.5964 4.76828 78.5964 4.75248V3.16834C78.5964 3.14723 78.5912 3.13145 78.5808 3.12079C78.57 3.11035 78.5544 3.10502 78.5336 3.10502H69.2774V2.13866C69.2774 2.02247 69.3194 1.92228 69.4034 1.83764C69.4874 1.75322 69.5898 1.7108 69.7106 1.7108H78.5392C78.5548 1.7108 78.5692 1.70419 78.5824 1.69097C78.5956 1.67797 78.602 1.66326 78.602 1.64748V0.0633155C78.602 0.04754 78.5956 0.0330435 78.5824 0.0198261C78.5692 0.00682188 78.5548 0 78.5392 0Z" fill="white" fill-opacity="0.9"/>
<path d="M91.9887 0H80.8445C80.8237 0 80.8077 0.00660867 80.7973 0.0198261C80.7869 0.0330435 80.7817 0.04754 80.7817 0.0633155V1.64748C80.7817 1.66326 80.7869 1.67797 80.7973 1.69097C80.8077 1.70419 80.8237 1.7108 80.8445 1.7108H85.4438V7.8573C85.4438 7.8731 85.449 7.88778 85.4598 7.90078C85.4702 7.91402 85.4858 7.92062 85.507 7.92062H87.3262C87.3474 7.92062 87.363 7.91402 87.3734 7.90078C87.3842 7.88778 87.389 7.8731 87.389 7.8573V1.7108H91.9883C92.0095 1.7108 92.0263 1.70419 92.0395 1.69097C92.0527 1.67775 92.0591 1.66326 92.0591 1.64748V0.0633155C92.0591 0.04754 92.0527 0.0330435 92.0395 0.0198261C92.0267 0.00660867 92.0095 0 91.9887 0Z" fill="white" fill-opacity="0.9"/>
<path d="M96.2247 0.0157756C96.2139 0.00532957 96.1983 0 96.1775 0H94.3582C94.337 0 94.321 0.00532957 94.311 0.0157756C94.3002 0.0264348 94.295 0.0422103 94.295 0.0633155V7.8573C94.295 7.8731 94.3002 7.88778 94.311 7.90078C94.321 7.91402 94.337 7.92062 94.3582 7.92062H96.1775C96.1983 7.92062 96.2139 7.91402 96.2247 7.90078C96.2351 7.88758 96.2403 7.8731 96.2403 7.8573V0.0633155C96.2403 0.0424235 96.2351 0.0264348 96.2247 0.0157756Z" fill="white" fill-opacity="0.9"/>
<path d="M101.248 1.92488C101.169 1.83513 101.072 1.79015 100.956 1.79015H98.5935C98.5723 1.79015 98.5551 1.78353 98.5423 1.77032C98.5291 1.75731 98.5227 1.7426 98.5227 1.72683V0.142661C98.5227 0.126886 98.5291 0.112389 98.5423 0.099172C98.5551 0.0861678 98.5723 0.0793457 98.5935 0.0793457H101.09C101.72 0.0793457 102.263 0.335593 102.72 0.847657L103.327 1.58421L102.145 3.01787L101.248 1.92488ZM105.61 0.839773C106.067 0.332821 106.613 0.0793457 107.248 0.0793457H109.737C109.758 0.0793457 109.774 0.0846754 109.784 0.0951212C109.795 0.105781 109.8 0.121556 109.8 0.142661V1.72683C109.8 1.7426 109.795 1.75731 109.784 1.77032C109.774 1.78353 109.758 1.79015 109.737 1.79015H107.374C107.259 1.79015 107.162 1.83513 107.083 1.92488L105.342 4.03176L107.091 6.15444C107.17 6.23908 107.264 6.28128 107.374 6.28128H109.737C109.758 6.28128 109.774 6.28788 109.784 6.30112C109.795 6.31432 109.8 6.3316 109.8 6.35249V7.93667C109.8 7.95243 109.795 7.96715 109.784 7.98015C109.774 7.99335 109.758 7.99995 109.737 7.99995H107.248C106.613 7.99995 106.07 7.74395 105.618 7.23166L104.169 5.47331L102.72 7.23166C102.263 7.74395 101.717 7.99995 101.082 7.99995H98.5935C98.5723 7.99995 98.5563 7.99335 98.5459 7.98015C98.5355 7.96691 98.5303 7.94987 98.5303 7.92855V6.3444C98.5303 6.3286 98.5355 6.31412 98.5459 6.30088C98.5563 6.28768 98.5723 6.28108 98.5935 6.28108H100.956C101.066 6.28108 101.163 6.23628 101.248 6.14632L102.956 4.07121L105.61 0.839773Z" fill="white" fill-opacity="0.9"/>
</svg>
