<svg width="76" height="18" viewBox="0 0 76 18" fill="none" xmlns="http://www.w3.org/2000/svg">
<path d="M61.4859 15.362C61.4859 15.4841 61.4143 15.5942 61.3062 15.6371C61.0577 15.7356 60.8151 15.7973 60.5437 15.7973C59.0413 15.7973 58.3909 14.2105 58.3909 11.0369C58.3909 8.0999 59.2206 6.6078 60.3869 6.6078C60.7123 6.6078 61.0538 6.69405 61.3422 6.86656C61.4304 6.91935 61.4859 7.01757 61.4859 7.1246V15.362ZM49.9149 17.1473C48.0759 17.1473 44.196 10.0184 44.196 7.69729C44.196 6.96308 44.5323 6.53677 45.0929 6.53677C47.0667 6.53677 50.8343 13.9499 50.8343 15.9395C50.8343 16.7447 50.5205 17.1473 49.9149 17.1473ZM20.4483 6.93949C21.4127 6.93949 23.1013 8.32646 23.1011 11.108C23.101 12.2364 22.4142 12.9943 21.3149 12.1031C20.3079 11.2867 19.5287 9.58836 19.5287 8.33677C19.5287 7.46051 19.8652 6.93949 20.4483 6.93949ZM7.28747 17.6211H7.2064C7.05304 17.6211 6.92866 17.4898 6.92866 17.3278V1.61954C6.92866 1.45763 7.05304 1.32631 7.2064 1.32631H7.48936C10.4274 1.32631 12.0871 4.09734 12.0871 9.28416C12.0871 14.5421 10.1807 17.6211 7.28747 17.6211ZM73.6435 10.4921L71.9618 9.54467C70.6381 8.81046 70.2795 8.21836 70.2795 7.38939C70.2795 6.72621 70.773 6.13411 71.7596 6.13411C71.8405 6.13411 71.9447 6.14646 72.0387 6.17113C72.1026 6.18782 72.1571 6.2299 72.1951 6.28657L73.7609 8.63883C74.1346 9.19961 74.9993 9.04724 75.1572 8.39291L75.4924 7.00176C75.5269 6.85289 75.5557 6.6816 75.5781 6.51289C75.6375 6.07505 75.3004 5.68416 74.8571 5.68416H71.9165C68.9339 5.68416 67.0948 7.24729 67.0948 9.63944C67.0948 11.4394 67.9917 12.5526 69.8533 13.5946L71.3338 14.4236C72.2755 14.9447 72.6789 15.3473 72.6789 16.0578C72.6789 17.0289 72.0066 17.5736 71.0196 17.5736C70.7794 17.5736 70.6284 17.5548 70.375 17.4832C70.3136 17.4659 70.2596 17.427 70.2225 17.3749L68.3727 14.7599C68.0468 14.2989 67.3248 14.4561 67.2215 15.0106L66.8279 17.1213C66.8225 17.1534 66.8191 17.2125 66.8172 17.2854C66.8142 17.4072 66.8459 17.5204 66.899 17.6211H66.2491C66.0956 17.6211 65.9714 17.4898 65.9714 17.3278V0.864292C65.9714 0.662239 65.7824 0.520769 65.6016 0.587535L64.4387 0.582957C64.3837 0.575786 64.3281 0.570829 64.2711 0.570829H59.8247C59.6493 0.570829 59.507 0.712523 59.507 0.88741V1.5337C59.507 2.41516 60.2241 3.12982 61.1089 3.12982H61.1362C61.2945 3.12982 61.4255 3.24656 61.4509 3.40237C61.4704 3.52301 61.4859 3.3952 61.4859 3.42664V6.03467C61.4859 6.25962 61.257 6.39895 61.0714 6.2891C60.4668 5.93158 59.755 5.68416 58.7943 5.68416C56.1231 5.68416 54.1646 7.77931 53.6984 10.91C53.3169 7.69145 50.7865 5.68416 47.3806 5.68416C44.0165 5.68416 41.6229 7.97118 41.2621 10.9753V10.0512C41.2621 9.88925 41.1377 9.75795 40.9843 9.75795H35.3088C35.0482 9.75795 34.9311 10.103 35.1325 10.2778L36.451 11.4227C36.5151 11.4784 36.5523 11.5614 36.5523 11.6492V15.7238C36.5523 16.4406 35.735 16.8059 35.2492 16.3053C32.0298 12.9883 29.6446 7.78349 29.6446 4.09742C29.6446 2.01319 30.5193 1.04207 31.6182 1.04207C32.3519 1.04207 33.6088 2.23592 34.8465 3.65913C36.4576 5.51179 39.3675 4.7676 39.9822 2.33748L40.1498 1.67494C40.1838 1.5408 40.1248 1.39857 40.0071 1.33676C38.4168 0.501315 36.5902 0 34.3095 0C29.3276 0 26.3136 3.46266 25.9766 7.938C25.7678 7.57104 25.4926 7.24417 25.1637 6.9605C24.4773 6.24191 23.4712 5.75504 22.3314 5.75504C19.78 5.75504 18.0351 7.38404 17.239 9.56817C17.2416 9.46581 17.2454 9.36452 17.2454 9.26051C17.2454 3.8605 13.814 0.947384 7.91549 0.947384H0.276235C0.122833 0.947384 -0.00146484 1.0787 -0.00146484 1.2407V2.19296C-0.00146484 3.0803 0.720511 3.79969 1.61113 3.79969H1.66613C1.84756 3.79969 1.99453 3.94611 1.99453 4.12687V15.2169C1.99453 15.3976 1.84756 15.5441 1.66613 15.5441C0.856609 15.5441 0.200341 16.198 0.200341 17.0046V17.8106C0.200341 17.9152 0.280602 18 0.379704 18H7.62392C12.2776 18 15.5583 16.0678 16.7501 12.5158C16.7739 14.1084 17.4875 15.5115 18.3539 16.461L18.3572 16.4572C19.1722 17.4303 20.5492 18 22.3451 18H25.2853C25.7289 18 26.0661 17.6091 26.0068 17.1712C25.984 17.0025 25.9556 16.8313 25.9208 16.6823L25.5856 15.2912C25.4279 14.6369 24.5629 14.4845 24.1896 15.0453L22.6236 17.3975C22.5858 17.4543 22.5308 17.4963 22.4671 17.513C22.3732 17.5377 22.269 17.55 22.1882 17.55C21.2014 17.55 20.708 16.9579 20.708 16.2948C20.708 15.4657 21.0668 14.8737 22.39 14.1394L24.0721 13.1921C25.1117 12.6035 25.8155 11.8751 26.1667 11.0158C27.0142 15.1366 30.2563 18 35.117 18C37.4645 18 39.5546 17.2294 41.156 15.9099C41.2234 15.8544 41.2621 15.7683 41.2621 15.6781V12.5897C41.6526 15.9261 44.4114 18 47.4031 18C51.0627 18 53.1162 15.9555 53.6238 13.1882C53.8577 16.319 55.4703 18 57.5836 18C58.7387 18 59.945 17.3682 61.0236 16.3567C61.2029 16.1886 61.4859 16.3217 61.4859 16.5749V17.7067C61.4859 17.8687 61.6102 18 61.7636 18H66.9131C67.0003 18 67.0695 17.9331 67.0861 17.8461C67.2064 17.9409 67.3569 18 67.5226 18H70.8851C73.6435 18 75.9985 16.4843 75.9985 14.021C75.9985 12.5526 75.1913 11.3683 73.6435 10.4921Z" fill="#FAFAFA"/>
</svg>
