<svg width="105" height="10" viewBox="0 0 105 10" fill="none" xmlns="http://www.w3.org/2000/svg">
<g clip-path="url(#clip0_1_562)">
<mask id="mask0_1_562" style="mask-type:luminance" maskUnits="userSpaceOnUse" x="0" y="0" width="105" height="10">
<path d="M104.39 0H0.0010376V10H104.39V0Z" fill="white"/>
</mask>
<g mask="url(#mask0_1_562)">
<path d="M20.2142 0.148193L15.039 9.85175H17.282L18.483 7.59588H24.2853L25.4725 9.85175H27.7456L22.5725 0.148193H20.2142ZM21.3853 2.10766L23.3863 5.90451H19.3705L21.3853 2.10766Z" fill="white" fill-opacity="0.9"/>
<path d="M28.0054 7.74412C29.0059 9.10858 31.4357 10 33.8793 10C36.7816 10 39.0246 8.932 39.0246 6.81125C39.0246 4.71665 36.966 4.35266 34.0498 4.04098C31.4495 3.75763 30.7625 3.59416 30.7625 2.89232C30.7625 2.24281 31.5924 1.68919 33.4205 1.68919C35.1633 1.68919 36.6225 2.24281 37.4086 3.20183L38.8102 1.93112C37.8835 0.769398 35.8248 0 33.538 0C30.6219 0 28.7223 1.25762 28.7223 3.09503C28.7223 5.01307 30.6519 5.45989 33.1669 5.73017C36.0531 6.02659 36.8968 6.10942 36.8968 7.02703C36.8968 7.81168 35.6819 8.29773 33.9668 8.29773C32.4522 8.29773 30.5943 7.83784 29.4208 6.35135L28.0054 7.74412Z" fill="white" fill-opacity="0.9"/>
<path d="M49.5552 0.148193V4.01262H42.9668V0.148193H40.8668V9.85175H42.9668V5.73015H49.5552V9.85175H51.6714V0.148193H49.5552Z" fill="white" fill-opacity="0.9"/>
<path d="M55.4696 9.85175V6.00041H62.3577V4.28507H55.4696V1.86572H63.1738V0.148193H53.3972V9.85175H55.4696Z" fill="white" fill-opacity="0.9"/>
<path d="M65.0883 9.85175H74.4062V8.13642H67.1884V0.148193H65.0883V9.85175Z" fill="white" fill-opacity="0.9"/>
<path d="M80.8806 0C77.3651 0 74.8201 2.12075 74.8201 5C74.8201 7.87925 77.3651 10 80.8806 10C84.3823 10 86.9411 7.87925 86.9411 5C86.9411 2.12075 84.3823 0 80.8806 0ZM80.8806 1.74368C83.1812 1.74368 84.7834 3.04054 84.7834 5C84.7834 6.95946 83.1835 8.25632 80.8806 8.25632C78.5777 8.25632 76.9778 6.95946 76.9778 5C76.9778 3.04054 78.5799 1.74368 80.8806 1.74368Z" fill="white" fill-opacity="0.9"/>
<path d="M94.7869 0.148193L92.214 7.66127L89.5122 0.148193H87.3109L90.8975 9.85175H93.3275L95.8563 2.43242L98.3578 9.85175H100.801L104.389 0.148193H102.23L99.5287 7.66127L96.9699 0.148193H94.7869Z" fill="white" fill-opacity="0.9"/>
<path d="M14.5242 4.55561V2.83154H12.6592V0.150635H10.5568V2.83372H3.96839V0.150635H1.866V2.83372H0.0010376V4.55778H1.866V5.44706H0.0010376V7.17112H1.866V9.852H3.96839V7.16894H10.5568V9.852H12.6592V7.16894H14.5242V5.44488H12.6592V4.55561H14.5242ZM10.5568 5.44488H3.96839V4.55561H10.5568V5.44488Z" fill="white" fill-opacity="0.9"/>
</g>
</g>
<defs>
<clipPath id="clip0_1_562">
<rect width="105" height="10" fill="white" transform="translate(0.0010376)"/>
</clipPath>
</defs>
</svg>
