<svg width="84" height="16" viewBox="0 0 84 16" fill="none" xmlns="http://www.w3.org/2000/svg">
<g clip-path="url(#clip0_2481_4265)">
<path d="M15.7305 13.2134V2.83374H20.1151C20.8296 2.83374 21.4421 2.95449 21.9525 3.19599C22.4628 3.43748 22.8526 3.78579 23.1217 4.24092C23.3908 4.68675 23.5254 5.23012 23.5254 5.87101C23.5254 6.32614 23.4001 6.76269 23.1495 7.18069C22.899 7.58935 22.4861 7.93302 21.9107 8.21169V7.15282C22.4582 7.36642 22.8805 7.62189 23.1774 7.91909C23.4743 8.21629 23.6785 8.54142 23.7898 8.89435C23.9012 9.23802 23.9568 9.60029 23.9568 9.98109C23.9568 11.0028 23.6181 11.797 22.9408 12.3636C22.2633 12.9301 21.3215 13.2134 20.1151 13.2134H15.7305ZM17.888 11.3326H20.3656C20.8018 11.3326 21.1498 11.2072 21.4096 10.9564C21.6695 10.7056 21.7994 10.3805 21.7994 9.98109C21.7994 9.57242 21.6695 9.24269 21.4096 8.99189C21.1498 8.74109 20.8018 8.61569 20.3656 8.61569H17.888V11.3326ZM17.888 6.73482H20.2682C20.6023 6.73482 20.8668 6.64194 21.0616 6.45617C21.2658 6.26112 21.3678 6.00569 21.3678 5.68989C21.3678 5.37409 21.2658 5.12331 21.0616 4.93754C20.8668 4.74249 20.6023 4.64496 20.2682 4.64496H17.888V6.73482Z" fill="white"/>
<path d="M27.5395 13.3807C26.9919 13.3807 26.5187 13.2925 26.1196 13.116C25.7206 12.9395 25.4144 12.6887 25.201 12.3637C24.9876 12.0293 24.8809 11.6345 24.8809 11.1794C24.8809 10.7521 24.9782 10.3759 25.1732 10.0509C25.368 9.71646 25.6649 9.43779 26.064 9.21492C26.4723 8.99199 26.978 8.83406 27.5812 8.74119L29.9058 8.36499V9.89759L27.957 10.2459C27.6601 10.3017 27.4327 10.3991 27.275 10.5385C27.1172 10.6685 27.0383 10.8589 27.0383 11.1097C27.0383 11.3419 27.1265 11.5231 27.3028 11.6531C27.4792 11.7831 27.6972 11.8481 27.957 11.8481C28.3004 11.8481 28.6019 11.7738 28.8618 11.6252C29.1216 11.4766 29.3212 11.2769 29.4603 11.0261C29.6088 10.7661 29.6831 10.4827 29.6831 10.1763V8.19786C29.6831 7.90992 29.5671 7.66839 29.3351 7.47332C29.1123 7.27832 28.8061 7.18079 28.4164 7.18079C28.0452 7.18079 27.7158 7.28292 27.4281 7.48726C27.1497 7.69159 26.9456 7.96099 26.8156 8.29539L25.1453 7.50119C25.2938 7.07392 25.5304 6.70706 25.8552 6.40055C26.18 6.09404 26.5697 5.85718 27.0244 5.69C27.4792 5.5228 27.9756 5.43921 28.5138 5.43921C29.1541 5.43921 29.7202 5.55532 30.212 5.78752C30.7038 6.01973 31.0842 6.34482 31.3534 6.76279C31.6318 7.17146 31.7709 7.64979 31.7709 8.19786V13.2135H29.8222V11.9875L30.2955 11.9039C30.0728 12.2383 29.8269 12.5169 29.5578 12.7398C29.2887 12.9535 28.9871 13.1113 28.653 13.2135C28.3189 13.325 27.9478 13.3807 27.5395 13.3807Z" fill="white"/>
<path d="M37.0327 13.3807C36.2718 13.3807 35.5851 13.2089 34.9726 12.8652C34.3695 12.5123 33.8869 12.0339 33.525 11.4301C33.1724 10.8264 32.9961 10.1484 32.9961 9.39599C32.9961 8.64366 33.1724 7.97026 33.525 7.37579C33.8776 6.77206 34.3602 6.29838 34.9726 5.95471C35.5851 5.61104 36.2718 5.43921 37.0327 5.43921C37.5988 5.43921 38.1231 5.53674 38.6056 5.73179C39.0882 5.92684 39.5011 6.20085 39.8445 6.5538C40.1878 6.89746 40.4337 7.30612 40.5822 7.77986L38.7727 8.56006C38.6428 8.17926 38.42 7.87739 38.1045 7.65446C37.7983 7.43152 37.441 7.32006 37.0327 7.32006C36.6709 7.32006 36.346 7.40832 36.0584 7.58479C35.78 7.76126 35.5572 8.00739 35.3902 8.32319C35.2325 8.63906 35.1536 9.00126 35.1536 9.40992C35.1536 9.81866 35.2325 10.1809 35.3902 10.4967C35.5572 10.8125 35.78 11.0586 36.0584 11.2351C36.346 11.4116 36.6709 11.4998 37.0327 11.4998C37.4503 11.4998 37.8122 11.3883 38.1185 11.1655C38.4247 10.9425 38.6428 10.6407 38.7727 10.2599L40.5822 11.054C40.443 11.4998 40.2017 11.8992 39.8584 12.2522C39.515 12.6051 39.1021 12.8838 38.6195 13.0881C38.137 13.2832 37.6081 13.3807 37.0327 13.3807Z" fill="white"/>
<path d="M41.8125 13.2136V2.66675H43.9004V9.42395L43.1209 9.17321L46.4755 5.60649H49.0506L46.2946 8.67162L49.0366 13.2136H46.6703L44.3737 9.35428L45.5846 9.04781L43.2601 11.5835L43.9004 10.3713V13.2136H41.8125Z" fill="white"/>
<path d="M49.9668 16V5.6064H51.9156V7.05539L51.7346 6.6374C51.9851 6.25658 52.3239 5.964 52.7507 5.75966C53.1869 5.54602 53.6833 5.43921 54.2401 5.43921C54.9639 5.43921 55.6181 5.61569 56.2027 5.96864C56.7873 6.3216 57.2513 6.79992 57.5947 7.40366C57.938 7.99812 58.1097 8.66686 58.1097 9.40992C58.1097 10.1437 57.938 10.8125 57.5947 11.4162C57.2606 12.02 56.8012 12.4983 56.2166 12.8513C55.632 13.2042 54.9686 13.3807 54.2262 13.3807C53.7065 13.3807 53.2239 13.2878 52.7786 13.1021C52.3424 12.907 51.9898 12.6237 51.7206 12.2522L52.0547 11.8203V16H49.9668ZM53.9756 11.4998C54.3653 11.4998 54.7087 11.4116 55.0056 11.2351C55.3026 11.0586 55.5346 10.8125 55.7016 10.4967C55.8686 10.1809 55.9522 9.81866 55.9522 9.40992C55.9522 9.00126 55.8686 8.64366 55.7016 8.33712C55.5346 8.02132 55.3026 7.77519 55.0056 7.59872C54.7087 7.41299 54.3653 7.32006 53.9756 7.32006C53.6044 7.32006 53.2703 7.40832 52.9734 7.58479C52.6857 7.76126 52.4584 8.00739 52.2913 8.32319C52.1336 8.63906 52.0547 9.00126 52.0547 9.40992C52.0547 9.81866 52.1336 10.1809 52.2913 10.4967C52.4584 10.8125 52.6857 11.0586 52.9734 11.2351C53.2703 11.4116 53.6044 11.4998 53.9756 11.4998Z" fill="white"/>
<path d="M61.686 13.3807C61.1385 13.3807 60.6652 13.2925 60.2662 13.116C59.8671 12.9395 59.5609 12.6887 59.3475 12.3637C59.134 12.0293 59.0273 11.6345 59.0273 11.1794C59.0273 10.7521 59.1248 10.3759 59.3197 10.0509C59.5145 9.71646 59.8115 9.43779 60.2105 9.21492C60.6188 8.99199 61.1246 8.83406 61.7277 8.74119L64.0523 8.36499V9.89759L62.1036 10.2459C61.8066 10.3017 61.5793 10.3991 61.4215 10.5385C61.2637 10.6685 61.1849 10.8589 61.1849 11.1097C61.1849 11.3419 61.273 11.5231 61.4493 11.6531C61.6256 11.7831 61.8437 11.8481 62.1036 11.8481C62.4469 11.8481 62.7485 11.7738 63.0083 11.6252C63.2681 11.4766 63.4676 11.2769 63.6069 11.0261C63.7553 10.7661 63.8296 10.4827 63.8296 10.1763V8.19786C63.8296 7.90992 63.7136 7.66839 63.4816 7.47332C63.2589 7.27832 62.9526 7.18079 62.5629 7.18079C62.1917 7.18079 61.8623 7.28292 61.5746 7.48726C61.2962 7.69159 61.092 7.96099 60.9621 8.29539L59.2918 7.50119C59.4403 7.07392 59.6769 6.70706 60.0017 6.40055C60.3265 6.09404 60.7163 5.85718 61.171 5.69C61.6256 5.5228 62.1221 5.43921 62.6603 5.43921C63.3006 5.43921 63.8666 5.55532 64.3585 5.78752C64.8503 6.01973 65.2308 6.34482 65.4999 6.76279C65.7783 7.17146 65.9175 7.64979 65.9175 8.19786V13.2135H63.9687V11.9875L64.442 11.9039C64.2193 12.2383 63.9734 12.5169 63.7043 12.7398C63.4352 12.9535 63.1336 13.1113 62.7995 13.2135C62.4654 13.325 62.0943 13.3807 61.686 13.3807Z" fill="white"/>
<path d="M71.1789 13.3807C70.4185 13.3807 69.7318 13.2089 69.1193 12.8652C68.5162 12.5123 68.0336 12.0339 67.6715 11.4301C67.3189 10.8264 67.1426 10.1484 67.1426 9.39599C67.1426 8.64366 67.3189 7.97026 67.6715 7.37579C68.0243 6.77206 68.5069 6.29838 69.1193 5.95471C69.7318 5.61104 70.4185 5.43921 71.1789 5.43921C71.7452 5.43921 72.2693 5.53674 72.7519 5.73179C73.2345 5.92684 73.6475 6.20085 73.9909 6.5538C74.3343 6.89746 74.5799 7.30612 74.7285 7.77986L72.9192 8.56006C72.7894 8.17926 72.5665 7.87739 72.2512 7.65446C71.9447 7.43152 71.5872 7.32006 71.1789 7.32006C70.8175 7.32006 70.4928 7.40832 70.205 7.58479C69.9266 7.76126 69.7037 8.00739 69.537 8.32319C69.379 8.63906 69.3 9.00126 69.3 9.40992C69.3 9.81866 69.379 10.1809 69.537 10.4967C69.7037 10.8125 69.9266 11.0586 70.205 11.2351C70.4928 11.4116 70.8175 11.4998 71.1789 11.4998C71.5966 11.4998 71.9587 11.3883 72.2653 11.1655C72.5712 10.9425 72.7894 10.6407 72.9192 10.2599L74.7285 11.054C74.5893 11.4998 74.3483 11.8992 74.0049 12.2522C73.6616 12.6051 73.2486 12.8838 72.766 13.0881C72.2834 13.2832 71.7546 13.3807 71.1789 13.3807Z" fill="white"/>
<path d="M75.957 13.2136V2.66675H78.0448V9.42395L77.2656 9.17321L80.6204 5.60649H83.1954L80.439 8.67162L83.1814 13.2136H80.8152L78.518 9.35428L79.7295 9.04781L77.4048 11.5835L78.0448 10.3713V13.2136H75.957Z" fill="white"/>
<mask id="mask0_2481_4265" style="mask-type:luminance" maskUnits="userSpaceOnUse" x="0" y="0" width="11" height="14">
<path d="M10.1658 0H0.501953V14H10.1658V0Z" fill="white"/>
</mask>
<g mask="url(#mask0_2481_4265)">
<path fill-rule="evenodd" clip-rule="evenodd" d="M6.24929 1.10079C6.7602 1.10079 7.23941 1.16901 7.68313 1.29552C7.24872 0.287148 6.34677 0 5.34298 0C4.33721 0 3.43369 0.288277 3.00027 1.30146C3.44072 1.1705 3.91788 1.10079 4.42704 1.10079H6.24929ZM4.31018 2.11316C1.88419 2.11316 0.501953 4.014 0.501953 6.35881V8.76747C0.501953 9.002 0.698618 9.18747 0.941217 9.18747H9.72647C9.96911 9.18747 10.1658 9.002 10.1658 8.76747V6.35881C10.1658 4.014 8.55844 2.11316 6.13243 2.11316H4.31018ZM5.33042 6.37964C6.17952 6.37964 6.86785 5.69407 6.86785 4.84839C6.86785 4.0027 6.17952 3.31714 5.33042 3.31714C4.48133 3.31714 3.793 4.0027 3.793 4.84839C3.793 5.69407 4.48133 6.37964 5.33042 6.37964ZM0.501953 10.6033C0.501953 10.3688 0.698618 10.1787 0.941217 10.1787H9.72647C9.96911 10.1787 10.1658 10.3688 10.1658 10.6033V13.1507C10.1658 13.6196 9.77245 13.9998 9.28724 13.9998H1.38048C0.895283 13.9998 0.501953 13.6196 0.501953 13.1507V10.6033Z" fill="white"/>
</g>
</g>
<defs>
<clipPath id="clip0_2481_4265">
<rect width="83" height="16" fill="white" transform="translate(0.501953)"/>
</clipPath>
</defs>
</svg>
