<svg width="89" height="18" viewBox="0 0 89 18" fill="none" xmlns="http://www.w3.org/2000/svg">
<g clip-path="url(#clip0_1_576)">
<path fill-rule="evenodd" clip-rule="evenodd" d="M9.88925 13.0135L8.66867 11.6801C8.20504 12.1467 7.7364 12.5163 7.26236 12.7886C6.78872 13.0607 6.22206 13.1967 5.56291 13.1967C5.04778 13.1967 4.57143 13.0886 4.13364 12.8718C3.69586 12.6551 3.31729 12.358 2.99792 11.9801C2.67854 11.6023 2.4315 11.1607 2.25618 10.6552C2.08107 10.1498 1.99372 9.60786 1.99372 9.03048C1.99372 8.45262 2.08107 7.91364 2.25618 7.41354C2.4315 6.91374 2.67854 6.47772 2.99792 6.10536C3.31729 5.73326 3.69586 5.43893 4.13364 5.22217C4.57143 5.00565 5.04778 4.89727 5.56291 4.89727C6.18079 4.89727 6.73198 5.03061 7.21608 5.29728C7.70035 5.56372 8.15876 5.91382 8.59113 6.3471L9.81188 4.83071C9.55445 4.56404 9.28155 4.31962 8.99302 4.09725C8.70472 3.8751 8.39055 3.6833 8.05057 3.52231C7.71053 3.36109 7.33718 3.23629 6.93023 3.14748C6.52333 3.05844 6.0726 3.01392 5.57831 3.01392C4.75426 3.01392 4.00231 3.17244 3.3225 3.48903C2.64248 3.80562 2.05543 4.23891 1.56094 4.78889C1.06645 5.33887 0.682875 5.98037 0.409782 6.71382C0.136689 7.44708 0.000350952 8.23044 0.000350952 9.06372C0.000350952 9.90804 0.139399 10.6969 0.417496 11.4303C0.695591 12.1633 1.07938 12.7994 1.56865 13.3384C2.05793 13.8771 2.63727 14.3021 3.30686 14.6133C3.97646 14.9245 4.70798 15.0799 5.50099 15.0799C6.0059 15.0799 6.46681 15.0326 6.88395 14.9382C7.30113 14.8438 7.68489 14.705 8.0351 14.5218C8.38538 14.3383 8.71245 14.1215 9.01638 13.8717C9.3201 13.6217 9.61113 13.3355 9.88925 13.0135Z" fill="white" fill-opacity="0.9"/>
<path fill-rule="evenodd" clip-rule="evenodd" d="M34.407 6.31727C34.407 5.92917 34.5606 5.5994 34.868 5.32795C35.1753 5.05606 35.6057 4.92033 36.1589 4.92033C36.6507 4.92033 37.1373 5.02308 37.6188 5.22812C38.1004 5.43317 38.587 5.72974 39.0786 6.11759L40.0929 4.57127C39.5399 4.09455 38.9482 3.73158 38.3181 3.48234C37.6878 3.23288 36.9785 3.10815 36.1896 3.10815C35.657 3.10815 35.1652 3.18846 34.7169 3.34931C34.2662 3.50994 33.8822 3.73988 33.5619 4.03914C33.2417 4.33863 32.9906 4.696 32.8064 5.11169C32.6245 5.52738 32.5322 5.99019 32.5322 6.50009C32.5322 7.04321 32.6117 7.50335 32.7705 7.88021C32.9293 8.25713 33.1623 8.57855 33.4646 8.84465C33.7667 9.11069 34.1432 9.33233 34.5888 9.50981C35.037 9.68723 35.5469 9.84767 36.1231 9.99191C36.6252 10.1249 37.0322 10.2524 37.3474 10.3742C37.6598 10.4962 37.9057 10.6265 38.0876 10.7649C38.2667 10.9036 38.3898 11.0559 38.4564 11.2221C38.5229 11.3886 38.5561 11.5768 38.5561 11.7875C38.5561 12.2422 38.3847 12.6025 38.0415 12.8683C37.6982 13.1346 37.2346 13.2674 36.6507 13.2674C35.9746 13.2674 35.37 13.137 34.8374 12.8766C34.3045 12.6162 33.7771 12.2422 33.2544 11.7543L32.1174 13.2176C32.7628 13.8494 33.4646 14.3177 34.2226 14.6226C34.9809 14.9275 35.7747 15.0798 36.6045 15.0798C37.168 15.0798 37.6855 15.0022 38.1568 14.8472C38.6253 14.6917 39.0301 14.4645 39.363 14.1652C39.6985 13.8659 39.9598 13.5003 40.1492 13.068C40.3363 12.6357 40.431 12.1424 40.431 11.588C40.431 11.1003 40.3568 10.6763 40.2082 10.316C40.0595 9.95579 39.8393 9.64013 39.5526 9.36827C39.2656 9.09677 38.902 8.86661 38.4665 8.67821C38.0313 8.48999 37.5292 8.31815 36.9657 8.16287C36.4509 8.02985 36.0283 7.90223 35.6928 7.78037C35.3599 7.65857 35.0986 7.52555 34.9064 7.38131C34.7169 7.23725 34.5865 7.08203 34.5145 6.91583C34.443 6.74933 34.407 6.54989 34.407 6.31727Z" fill="white" fill-opacity="0.9"/>
<path fill-rule="evenodd" clip-rule="evenodd" d="M55.4433 6.48199V14.797H57.3208V3.20239H55.3046L52.0263 8.68501L48.748 3.20239H46.7319V14.797H48.6095V6.51505L51.98 11.9481H52.0417L55.4433 6.48199Z" fill="white" fill-opacity="0.9"/>
<path fill-rule="evenodd" clip-rule="evenodd" d="M73.0966 9.06378C73.0966 9.63036 73.0065 10.1664 72.8268 10.6721C72.6466 11.1776 72.3974 11.6162 72.0787 11.9884C71.7599 12.3605 71.3767 12.6551 70.9295 12.8718C70.4822 13.0886 69.9916 13.1968 69.4571 13.1968C68.9219 13.1968 68.4286 13.0856 67.9763 12.8635C67.5241 12.6411 67.1358 12.3412 66.8121 11.9636C66.4884 11.5857 66.2364 11.1441 66.0561 10.6386C65.8765 10.1332 65.7864 9.59688 65.7864 9.03048C65.7864 8.4636 65.8765 7.92756 66.0561 7.42212C66.2364 6.91644 66.4856 6.47772 66.8043 6.10542C67.123 5.73327 67.5057 5.43894 67.953 5.22218C68.4002 5.00565 68.8914 4.89727 69.4259 4.89727C69.9605 4.89727 70.4544 5.00835 70.9066 5.23072C71.3589 5.45288 71.7471 5.75283 72.0709 6.13056C72.3946 6.50808 72.6466 6.94992 72.8268 7.45542C73.0065 7.96086 73.0966 8.49714 73.0966 9.06378ZM75.0858 9.03048C75.0858 8.20818 74.9472 7.43046 74.6697 6.69696C74.3921 5.96396 74.0066 5.32493 73.5132 4.78057C73.0193 4.23598 72.4285 3.80562 71.7394 3.48903C71.0502 3.17244 70.2898 3.01392 69.4571 3.01392C68.6238 3.01392 67.8634 3.17514 67.1742 3.49735C66.4856 3.81956 65.8893 4.25554 65.3853 4.80553C64.8813 5.35551 64.4909 5.99724 64.2133 6.7305C63.9357 7.4637 63.7967 8.24148 63.7967 9.06372C63.7967 9.88578 63.9357 10.6633 64.2133 11.3968C64.4909 12.1303 64.8763 12.7691 65.3697 13.3134C65.8631 13.8578 66.4544 14.2884 67.1436 14.605C67.8323 14.9216 68.5932 15.0799 69.4259 15.0799C70.2586 15.0799 71.0196 14.9186 71.7082 14.5966C72.3974 14.2744 72.9937 13.8385 73.4977 13.2883C74.0016 12.7385 74.3921 12.0968 74.6697 11.3635C74.9472 10.6303 75.0858 9.85254 75.0858 9.03048Z" fill="white" fill-opacity="0.9"/>
<path fill-rule="evenodd" clip-rule="evenodd" d="M82.9762 6.31727C82.9762 5.92917 83.1297 5.5994 83.4373 5.32795C83.7449 5.05606 84.1749 4.92033 84.7284 4.92033C85.2201 4.92033 85.7068 5.02308 86.188 5.22812C86.6697 5.43317 87.1564 5.72974 87.6481 6.11759L88.6621 4.57127C88.1092 4.09455 87.5174 3.73158 86.8872 3.48234C86.2575 3.23288 85.5477 3.10815 84.7589 3.10815C84.2261 3.10815 83.7343 3.18846 83.286 3.34931C82.8354 3.50994 82.4516 3.73988 82.1312 4.03914C81.8108 4.33863 81.56 4.696 81.3753 5.11169C81.1939 5.52738 81.1016 5.99019 81.1016 6.50009C81.1016 7.04321 81.1811 7.50335 81.3397 7.88021C81.4988 8.25713 81.7318 8.57855 82.0339 8.84465C82.3359 9.11069 82.7125 9.33233 83.1581 9.50981C83.6064 9.68723 84.1159 9.84767 84.6922 9.99191C85.1945 10.1249 85.6017 10.2524 85.9165 10.3742C86.2291 10.4962 86.475 10.6265 86.6569 10.7649C86.836 10.9036 86.9589 11.0559 87.0257 11.2221C87.0924 11.3886 87.1258 11.5768 87.1258 11.7875C87.1258 12.2422 86.9539 12.6025 86.6107 12.8683C86.2675 13.1346 85.8041 13.2674 85.2201 13.2674C84.5437 13.2674 83.939 13.137 83.4067 12.8766C82.8738 12.6162 82.3465 12.2422 81.8236 11.7543L80.6866 13.2176C81.3319 13.8494 82.0339 14.3177 82.792 14.6226C83.5502 14.9275 84.344 15.0798 85.1739 15.0798C85.7374 15.0798 86.2547 15.0022 86.7258 14.8472C87.1948 14.6917 87.5992 14.4645 87.9324 14.1652C88.2678 13.8659 88.5292 13.5003 88.7183 13.068C88.9052 12.6357 89.0004 12.1424 89.0004 11.588C89.0004 11.1003 88.9258 10.6763 88.7773 10.316C88.6288 9.95579 88.4085 9.64013 88.1215 9.36827C87.835 9.09677 87.4712 8.86661 87.0357 8.67821C86.6007 8.48999 86.0984 8.31815 85.5349 8.16287C85.0204 8.02985 84.5976 7.90223 84.2622 7.78037C83.929 7.65857 83.6681 7.52555 83.4757 7.38131C83.286 7.23725 83.1558 7.08203 83.0841 6.91583C83.0123 6.74933 82.9762 6.54989 82.9762 6.31727Z" fill="white" fill-opacity="0.9"/>
<path fill-rule="evenodd" clip-rule="evenodd" d="M22.7696 5.52355L17.6247 11.0656C17.5584 10.9269 17.4985 10.7824 17.4449 10.6326C17.2652 10.129 17.1753 9.59478 17.1753 9.03054C17.1753 8.46582 17.2652 7.93176 17.4449 7.42824C17.6247 6.92448 17.8739 6.48744 18.1924 6.11646C18.511 5.74576 18.8939 5.45254 19.3408 5.23661C19.7879 5.0209 20.2784 4.91293 20.8127 4.91293C21.3471 4.91293 21.8404 5.02358 22.2923 5.24512C22.4603 5.32733 22.6194 5.42006 22.7696 5.52355ZM22.3155 12.8573C21.8685 13.0733 21.3779 13.181 20.8436 13.181C20.3092 13.181 19.816 13.0704 19.3639 12.8491C19.196 12.7666 19.0369 12.6739 18.887 12.5702L24.0316 7.02864C24.0979 7.16706 24.1578 7.3113 24.2115 7.46136C24.3911 7.96494 24.481 8.49918 24.481 9.06366C24.481 9.62814 24.3911 10.1622 24.2115 10.666C24.0316 11.1695 23.7825 11.6065 23.4639 11.9773C23.1453 12.348 22.7627 12.6414 22.3155 12.8573ZM23.094 14.5757C23.7825 14.2547 24.3785 13.8203 24.8819 13.2722C25.3854 12.7245 25.7757 12.0852 26.0532 11.3548C26.3307 10.6243 26.4695 9.84948 26.4695 9.03054C26.4695 8.21136 26.3307 7.43652 26.0532 6.70584C25.8886 6.27264 25.6861 5.87255 25.4457 5.50541L28.7919 1.90102L27.4622 0.46875L24.1058 4.08413C23.8045 3.86282 23.4774 3.67152 23.1247 3.51001C22.4362 3.19462 21.6759 3.0367 20.8436 3.0367C20.0112 3.0367 19.2509 3.19731 18.5624 3.5183C17.8739 3.8393 17.2779 4.27363 16.7744 4.82154C16.2709 5.36945 15.8804 6.00876 15.603 6.7392C15.3256 7.4697 15.1869 8.24448 15.1869 9.06366C15.1869 9.8826 15.3256 10.6572 15.603 11.3879C15.7677 11.8214 15.9702 12.2214 16.2106 12.5888L12.8646 16.1927L14.1943 17.625L17.5505 14.0098C17.8518 14.2312 18.1789 14.4224 18.5316 14.584C19.2202 14.8994 19.9805 15.0571 20.8127 15.0571C21.6451 15.0571 22.4054 14.8964 23.094 14.5757Z" fill="white" fill-opacity="0.9"/>
</g>
<defs>
<clipPath id="clip0_1_576">
<rect width="89" height="18" fill="white" transform="translate(0.000350952)"/>
</clipPath>
</defs>
</svg>
