<svg width="63" height="16" viewBox="0 0 63 16" fill="none" xmlns="http://www.w3.org/2000/svg">
<path d="M48.2677 5.54572H46.9624C46.887 5.54564 46.8126 5.5295 46.744 5.49836C46.6754 5.46723 46.6143 5.42182 46.5647 5.36517L46.0352 4.7674C45.9961 4.72361 45.9481 4.68858 45.8945 4.66459C45.8409 4.64061 45.7828 4.62821 45.7241 4.62821C45.6654 4.62821 45.6073 4.64061 45.5537 4.66459C45.5001 4.68858 45.4522 4.72361 45.413 4.7674L44.9592 5.27977C44.8861 5.36315 44.7961 5.42998 44.6951 5.47584C44.5941 5.5217 44.4845 5.54552 44.3736 5.54572H37.2297C37.0237 6.13605 36.8934 6.75009 36.8418 7.37319H43.5856C43.644 7.37311 43.7018 7.36117 43.7555 7.33811C43.8092 7.31504 43.8576 7.28132 43.8979 7.23899L44.5274 6.58267C44.5663 6.54247 44.613 6.51052 44.6645 6.48872C44.7161 6.46693 44.7715 6.45573 44.8275 6.45579H44.8519C44.9107 6.45606 44.9689 6.46856 45.0226 6.4925C45.0764 6.51645 45.1246 6.5513 45.1642 6.59487L45.6936 7.19264C45.7431 7.24941 45.8043 7.2949 45.8729 7.32605C45.9415 7.35719 46.016 7.37327 46.0913 7.37319H51.5932C51.5428 6.74992 51.4124 6.13573 51.2053 5.54572H48.2774H48.2677ZM40.9212 11.216C40.9796 11.2156 41.0373 11.2036 41.091 11.1805C41.1446 11.1575 41.1931 11.1239 41.2335 11.0818L41.8606 10.4255C41.8998 10.3856 41.9465 10.3539 41.998 10.3321C42.0495 10.3103 42.1048 10.2989 42.1607 10.2986H42.1875C42.2464 10.2989 42.3045 10.3114 42.3583 10.3353C42.4121 10.3592 42.4603 10.3941 42.4998 10.4377L43.0268 11.0354C43.0767 11.0918 43.1379 11.1371 43.2064 11.1682C43.2749 11.1993 43.3493 11.2156 43.4245 11.216H50.8832C51.1674 10.6317 51.3725 10.0123 51.4932 9.37388H44.3322C44.2575 9.37361 44.1837 9.35761 44.1156 9.32693C44.0475 9.29624 43.9866 9.25155 43.9369 9.19577L43.4075 8.598C43.3684 8.55364 43.3204 8.51808 43.2665 8.49368C43.2127 8.46929 43.1543 8.45661 43.0952 8.45649C43.0364 8.45632 42.9782 8.46888 42.9247 8.49331C42.8712 8.51774 42.8237 8.55345 42.7853 8.598L42.3315 9.11038C42.2577 9.19337 42.1671 9.25976 42.0657 9.30519C41.9644 9.35061 41.8545 9.37402 41.7435 9.37388H36.9418C37.0613 10.0138 37.2656 10.635 37.5493 11.2209L40.9212 11.216ZM46.2133 3.54746C46.2721 3.54743 46.3303 3.53553 46.3844 3.51247C46.4385 3.48941 46.4873 3.45567 46.5281 3.41327L47.1551 2.75938C47.1938 2.71863 47.2403 2.68616 47.2919 2.66393C47.3435 2.6417 47.399 2.63018 47.4552 2.63007H47.482C47.5408 2.6299 47.599 2.64246 47.6525 2.66689C47.706 2.69132 47.7535 2.72703 47.7919 2.77158L48.3214 3.36935C48.3716 3.42508 48.4329 3.4697 48.5014 3.50037C48.5699 3.53104 48.644 3.54708 48.7191 3.54746H50.1366C49.447 2.6292 48.5532 1.88399 47.5258 1.37075C46.4985 0.857515 45.3659 0.590332 44.2175 0.590332C43.0691 0.590332 41.9365 0.857515 40.9091 1.37075C39.8818 1.88399 38.988 2.6292 38.2984 3.54746H46.2133ZM43.3635 13.0459H41.4238C41.3489 13.0458 41.2748 13.0296 41.2066 12.9985C41.1385 12.9673 41.0777 12.9219 41.0286 12.8653L40.5016 12.2676C40.4622 12.2237 40.4141 12.1887 40.3603 12.1647C40.3064 12.1406 40.2482 12.1282 40.1893 12.1282C40.1303 12.1282 40.0721 12.1406 40.0183 12.1647C39.9645 12.1887 39.9163 12.2237 39.877 12.2676L39.4207 12.7897C39.3477 12.8732 39.2577 12.9401 39.1567 12.986C39.0557 13.0319 38.9461 13.0556 38.8351 13.0557H38.8059C39.4983 13.7984 40.3362 14.3907 41.2674 14.7957C42.1986 15.2007 43.2032 15.4097 44.2187 15.4097C45.2342 15.4097 46.2388 15.2007 47.17 14.7957C48.1012 14.3907 48.9391 13.7984 49.6316 13.0557L43.3635 13.0459ZM11.4841 14.9222L9.97874 11.2623H3.24712L1.74172 14.9222H-0.000350952L6.60195 1.07831L13.2262 14.9222H11.4841ZM3.81561 9.87406H9.39073L6.58731 3.972L3.81561 9.87406ZM15.6319 14.9222V1.07831H19.4869C22.5002 1.07831 24.0837 2.45684 24.0837 5.06018C24.0837 7.5635 22.4026 9.01278 19.4674 9.01278H17.2569V14.9222H15.6319ZM17.2569 7.5635H19.0965C21.4242 7.5635 22.4465 6.80226 22.4465 5.06018C22.4465 3.25956 21.4095 2.5154 19.1014 2.5154H17.2569V7.5635ZM29.9833 2.55443H25.2084V1.06855H36.3806V2.55443H31.6058V14.9222H29.9833V2.55443ZM53.8818 12.3969L55.2799 11.4478L55.3872 11.6722C56.2485 13.2386 57.1879 13.8681 58.6152 13.8681C60.2011 13.8681 61.3161 12.7726 61.3161 11.4405C61.3161 10.1888 60.6891 9.34704 58.1858 8.3101C55.3092 7.117 54.3308 5.88486 54.3308 4.12327C54.3308 2.20553 55.8386 0.707449 58.4395 0.707449C60.3573 0.707449 61.6675 1.52725 62.4116 2.85942L61.2771 3.64262L60.9453 3.5621C60.3573 2.64471 59.6326 2.11526 58.4005 2.11526C56.8951 2.11526 56.0143 2.95701 56.0143 4.09155C56.0143 5.14802 56.5803 5.75555 59.0275 6.87057C62.2164 8.31742 62.9996 9.51052 62.9996 11.4283C62.9996 13.5217 61.199 15.3028 58.6347 15.3028C56.4827 15.3028 54.9969 14.4805 53.8818 12.4066" fill="white" fill-opacity="0.9"/>
</svg>
