<svg width="1785" height="1191" viewBox="0 0 1785 1191" fill="none" xmlns="http://www.w3.org/2000/svg">
<mask id="mask0_1946_2857" style="mask-type:alpha" maskUnits="userSpaceOnUse" x="0" y="0" width="1785" height="1191">
<rect width="1784.81" height="1190.04" transform="matrix(-1 0 0 1 1784.81 0.489258)" fill="url(#paint0_linear_1946_2857)"/>
</mask>
<g mask="url(#mask0_1946_2857)">
<mask id="mask1_1946_2857" style="mask-type:alpha" maskUnits="userSpaceOnUse" x="-26" y="16" width="1837" height="1194">
<rect x="-25.4961" y="16.7217" width="1835.81" height="1193.27" fill="url(#paint1_linear_1946_2857)"/>
</mask>
<g mask="url(#mask1_1946_2857)">
<path d="M-374.29 745.945C-19.8041 814.651 326.495 911.438 694.838 947.497C1095.87 986.747 1469.16 930.696 1800.68 779.436C1809.53 923.286 1801.4 1065.16 1800.85 1209.01C1498.09 1200.61 1195.3 1200.79 893.633 1221.04C551.065 1244.04 213.878 1290.26 -120.243 1342.38C-54.6915 1211.79 37.0688 1025.59 -152.44 917.931C-240.266 868.024 -394.424 838.385 -374.29 745.964V745.945Z" stroke="white" stroke-width="0.6" stroke-miterlimit="10"/>
<path d="M-100.885 1304.6C229.822 1256.8 563.393 1216.31 901.564 1197.25C1200.77 1180.39 1500.93 1181.26 1800.88 1187.51" stroke="white" stroke-width="0.6" stroke-miterlimit="10"/>
<path d="M-84.4551 1269.09C243.359 1225.55 573.806 1190.66 908.1 1175.39C1205.31 1161.81 1503.3 1163.59 1801.03 1167.61" stroke="white" stroke-width="0.6" stroke-miterlimit="10"/>
<path d="M-70.8633 1235.8C254.55 1196.44 582.307 1167.04 913.216 1155.41C1208.89 1145.01 1505.17 1147.6 1801.14 1149.29" stroke="white" stroke-width="0.6" stroke-miterlimit="10"/>
<path d="M-59.8945 1204.6C263.581 1169.33 589.023 1145.34 917.069 1137.2C1211.67 1129.88 1506.63 1133.11 1801.37 1132.38" stroke="white" stroke-width="0.6" stroke-miterlimit="10"/>
<path d="M-51.5137 1175.44C270.486 1144.19 593.99 1125.5 919.635 1120.71C1213.57 1116.38 1507.66 1120.12 1801.63 1116.88" stroke="white" stroke-width="0.6" stroke-miterlimit="10"/>
<path d="M-45.5527 1148.22C570.329 1095.84 1183.2 1115.03 1801.89 1102.65" stroke="white" stroke-width="0.6" stroke-miterlimit="10"/>
<path d="M-41.877 1122.84C572.905 1077.88 1186.07 1107.63 1802.24 1089.6" stroke="white" stroke-width="0.6" stroke-miterlimit="10"/>
<path d="M-40.3457 1099.23C574.089 1061.58 1187.92 1101.58 1802.61 1077.7" stroke="white" stroke-width="0.6" stroke-miterlimit="10"/>
<path d="M-40.8633 1077.32C574.006 1046.85 1188.7 1096.74 1803.02 1066.86" stroke="white" stroke-width="0.6" stroke-miterlimit="10"/>
<path d="M-43.3242 1056.98C572.702 1033.59 1188.47 1093.03 1803.39 1056.98" stroke="white" stroke-width="0.6" stroke-miterlimit="10"/>
<path d="M-47.5469 1038.14C570.302 1021.72 1187.34 1090.41 1803.83 1047.93" stroke="white" stroke-width="0.6" stroke-miterlimit="10"/>
<path d="M-53.416 1020.73C566.92 1011.16 1185.38 1088.85 1804.27 1039.72" stroke="white" stroke-width="0.6" stroke-miterlimit="10"/>
<path d="M-60.8535 1004.67C562.578 1001.86 1182.57 1088.17 1804.7 1032.22" stroke="white" stroke-width="0.6" stroke-miterlimit="10"/>
<path d="M-69.6484 989.828C557.428 993.698 1179.1 1088.32 1805.19 1025.32" stroke="white" stroke-width="0.6" stroke-miterlimit="10"/>
<path d="M-79.7441 976.165C551.469 986.601 1174.99 1089.29 1805.62 1018.99" stroke="white" stroke-width="0.6" stroke-miterlimit="10"/>
<path d="M-90.9922 963.582C544.763 980.529 1170.36 1090.92 1806.06 1013.14" stroke="white" stroke-width="0.6" stroke-miterlimit="10"/>
<path d="M-103.262 951.972C537.411 975.302 1165.27 1093.2 1806.49 1007.67" stroke="white" stroke-width="0.6" stroke-miterlimit="10"/>
<path d="M-116.455 941.279C529.454 970.937 1159.8 1095.93 1806.86 1002.5" stroke="white" stroke-width="0.6" stroke-miterlimit="10"/>
<path d="M-130.369 931.394C202.161 949.698 528.123 993.075 858.57 1020.79C1178 1047.58 1492.88 1046.47 1807.3 997.55" stroke="white" stroke-width="0.6" stroke-miterlimit="10"/>
<path d="M-144.947 922.242C189.578 943.628 517.075 990.526 849.691 1019.65C1172.7 1047.93 1490.71 1045.57 1807.62 992.745" stroke="white" stroke-width="0.6" stroke-miterlimit="10"/>
<path d="M-160.049 913.731C176.502 938.106 505.618 988.49 840.578 1018.88C1167.26 1048.54 1488.54 1044.83 1807.97 988.013" stroke="white" stroke-width="0.6" stroke-miterlimit="10"/>
<path d="M-175.523 905.789C163.081 933.099 493.875 986.784 831.236 1018.37C1161.77 1049.33 1486.34 1044.12 1808.26 983.244" stroke="white" stroke-width="0.6" stroke-miterlimit="10"/>
<path d="M-191.258 898.306C149.401 928.477 481.93 985.298 821.75 1018.02C1156.33 1050.24 1484.06 1043.44 1808.52 978.383" stroke="white" stroke-width="0.6" stroke-miterlimit="10"/>
<path d="M-207.143 891.226C135.57 924.167 469.835 984.143 812.171 1017.82C1150.31 1051.09 1482.26 1042.52 1808.75 973.34" stroke="white" stroke-width="0.6" stroke-miterlimit="10"/>
<path d="M-223.025 884.421C121.683 920.095 457.684 983.024 802.537 1017.6C1144.73 1051.89 1480.12 1041.42 1808.86 968.002" stroke="white" stroke-width="0.6" stroke-miterlimit="10"/>
<path d="M-238.789 877.837C107.858 916.133 445.594 981.887 792.964 1017.29C1139.47 1052.59 1478.1 1040.05 1808.98 962.335" stroke="white" stroke-width="0.6" stroke-miterlimit="10"/>
<path d="M-254.297 871.381C94.2011 912.264 433.616 980.75 783.502 1016.85C1134.17 1053.01 1476.13 1038.27 1809.04 956.228" stroke="white" stroke-width="0.6" stroke-miterlimit="10"/>
<path d="M-269.426 864.962C80.8369 908.321 421.842 979.539 774.159 1016.19C1128.96 1053.09 1474.25 1036.03 1809.01 949.588" stroke="white" stroke-width="0.6" stroke-miterlimit="10"/>
<path d="M-284.062 858.506C67.849 904.286 410.388 977.999 765.047 1015.16C1123.9 1052.76 1472.6 1033.22 1808.92 942.38" stroke="white" stroke-width="0.6" stroke-miterlimit="10"/>
<path d="M-298.061 851.921C55.3263 900.048 399.283 976.201 756.228 1013.76C1119.19 1051.97 1470.96 1029.76 1808.78 934.493" stroke="white" stroke-width="0.6" stroke-miterlimit="10"/>
<path d="M-311.312 845.098C43.4051 895.481 388.663 974.018 747.749 1011.89C1114.53 1050.57 1469.65 1025.56 1808.55 925.836" stroke="white" stroke-width="0.6" stroke-miterlimit="10"/>
<path d="M-323.699 837.981C32.1754 890.547 378.562 971.34 739.615 1009.42C1110.39 1048.52 1468.26 1020.51 1808.16 916.316" stroke="white" stroke-width="0.6" stroke-miterlimit="10"/>
<path d="M-335.039 830.462C21.7903 885.137 369.131 968.039 732.006 1006.26C1106.92 1045.75 1466.99 1014.68 1807.79 905.899" stroke="white" stroke-width="0.6" stroke-miterlimit="10"/>
<path d="M-345.275 822.483C12.2771 879.194 360.399 964.151 724.865 1002.41C1103.62 1042.17 1465.98 1007.77 1807.24 894.473" stroke="white" stroke-width="0.6" stroke-miterlimit="10"/>
<path d="M-354.215 813.937C3.80058 872.592 352.501 959.547 718.356 997.734C1100.79 1037.64 1465.37 999.751 1806.66 881.946" stroke="white" stroke-width="0.6" stroke-miterlimit="10"/>
<path d="M-361.797 804.729C-3.57898 865.254 345.44 954.081 712.452 992.139C1098.44 1032.16 1464.82 990.562 1805.94 868.281" stroke="white" stroke-width="0.6" stroke-miterlimit="10"/>
<path d="M-367.842 794.788C-9.71066 857.111 339.395 947.717 707.275 985.536C1096.68 1025.56 1464.56 980.089 1805.13 853.333" stroke="white" stroke-width="0.6" stroke-miterlimit="10"/>
<path d="M-372.234 784.022C-14.4793 848.051 334.366 940.307 702.882 977.833C1095.44 1017.8 1464.65 968.296 1804.21 837.065" stroke="white" stroke-width="0.6" stroke-miterlimit="10"/>
<path d="M-374.871 772.356C-17.8393 838.018 330.485 931.888 699.291 968.993C1094.88 1008.79 1464.96 955.016 1803.16 819.365" stroke="white" stroke-width="0.6" stroke-miterlimit="10"/>
<path d="M-375.594 759.683C-19.6323 826.921 327.853 922.277 696.601 958.905C1095.03 998.467 1465.57 940.197 1802.01 800.18" stroke="white" stroke-width="0.6" stroke-miterlimit="10"/>
<path d="M1743.03 804.05C1752.17 939.628 1755.61 1071.91 1752.72 1207.67" stroke="white" stroke-width="0.6" stroke-miterlimit="10"/>
<path d="M1685.89 826.628C1695.47 955.346 1710.25 1077.26 1705.3 1206.51" stroke="white" stroke-width="0.6" stroke-miterlimit="10"/>
<path d="M1629.25 847.207C1633.94 903.955 1641.4 958.08 1657.31 1013.64C1675.13 1075.81 1661.97 1143.03 1658.53 1205.52" stroke="white" stroke-width="0.6" stroke-miterlimit="10"/>
<path d="M1573.07 865.842C1577.99 919.893 1584.82 968.369 1608.28 1019.56C1634.78 1077.39 1616.61 1145.95 1612.36 1204.71" stroke="white" stroke-width="0.6" stroke-miterlimit="10"/>
<path d="M1517.33 882.605C1522.65 934.951 1529.56 977.466 1559.76 1024.6C1593.99 1078.03 1571.6 1148.86 1566.71 1204.09" stroke="white" stroke-width="0.6" stroke-miterlimit="10"/>
<path d="M1462.04 897.535C1467.83 949.111 1472.95 986.233 1511.71 1028.84C1554.9 1076.33 1526.96 1152.88 1521.61 1203.61" stroke="white" stroke-width="0.6" stroke-miterlimit="10"/>
<path d="M1407.14 910.741C1410.78 940.344 1407.4 985.922 1433.95 1013.12C1442.6 1022 1454.84 1024.97 1464.04 1032.36C1515.44 1073.65 1482.55 1156.92 1476.91 1203.39" stroke="white" stroke-width="0.6" stroke-miterlimit="10"/>
<path d="M1352.63 922.223C1356.31 948.91 1352.84 998.376 1384.6 1021.39C1394.14 1028.33 1407.57 1029.37 1416.74 1035.17C1474.71 1071.87 1438.72 1158.9 1432.68 1203.32" stroke="white" stroke-width="0.6" stroke-miterlimit="10"/>
<path d="M1298.51 932.09C1302.24 957.016 1299.41 1005.97 1333.51 1026.13C1344.74 1032.76 1359.17 1031.92 1369.85 1037.2C1434.59 1069.26 1395.25 1160.88 1388.77 1203.47" stroke="white" stroke-width="0.6" stroke-miterlimit="10"/>
<path d="M1244.7 940.38C1248.43 964.096 1246.44 1009.49 1279.76 1028.03C1294.28 1036.1 1307.88 1033.65 1323.36 1038.43C1396.66 1061.1 1351.24 1167.81 1345.14 1203.82" stroke="white" stroke-width="0.6" stroke-miterlimit="10"/>
<path d="M1191.22 947.148C1195.19 970.478 1193.83 1013.89 1229.03 1030.84C1245.09 1038.56 1260.36 1034.91 1277.11 1039.09C1356.4 1058.88 1308.5 1168.16 1301.82 1204.37" stroke="white" stroke-width="0.6" stroke-miterlimit="10"/>
<path d="M1138.05 952.467C1142.33 975.944 1141.58 1016.9 1178.55 1032.64C1195.99 1040.06 1213.15 1035.42 1231.08 1039.15C1316.28 1056.87 1266.06 1168.01 1258.68 1205.14" stroke="white" stroke-width="0.6" stroke-miterlimit="10"/>
<path d="M1085.13 956.392C1089.79 980.364 1089.65 1018.68 1128.32 1033.48C1147.07 1040.65 1166.16 1035.19 1185.31 1038.62C1276.29 1054.98 1223.93 1167.54 1215.75 1206.11" stroke="white" stroke-width="0.6" stroke-miterlimit="10"/>
<path d="M1032.46 958.978C1037.55 983.647 1037.98 1019.34 1078.28 1033.41C1098.3 1040.39 1119.36 1034.25 1139.67 1037.53C1236.26 1053.16 1181.99 1166.88 1172.85 1207.34" stroke="white" stroke-width="0.6" stroke-miterlimit="10"/>
<path d="M980.045 960.3C985.628 986.803 988.029 1020.95 1032.38 1033.04C1052.25 1038.47 1073.63 1033.9 1094.08 1036.07C1196.37 1046.83 1139.47 1169.7 1130.04 1208.77" stroke="white" stroke-width="0.6" stroke-miterlimit="10"/>
<path d="M927.822 960.409C933.781 987.371 937.051 1020.29 982.931 1031.24C1004.22 1036.32 1026.9 1031.98 1048.71 1033.99C1156.56 1043.94 1097.46 1170.16 1087.27 1210.45" stroke="white" stroke-width="0.6" stroke-miterlimit="10"/>
<path d="M875.781 959.363C882.117 987.755 886.861 1020.53 937.427 1029.63C958.921 1033.5 981.861 1029.26 1003.56 1031.28C1117.65 1041.95 1056.18 1168.58 1044.46 1212.36" stroke="white" stroke-width="0.6" stroke-miterlimit="10"/>
<path d="M823.943 957.236C830.741 986.784 836.527 1017.47 888.453 1026.33C911.162 1030.2 935.433 1026 958.344 1028.31C1077.44 1040.34 1014.55 1167.98 1001.59 1214.51" stroke="white" stroke-width="0.6" stroke-miterlimit="10"/>
<path d="M772.223 954.063C779.484 984.748 786.369 1013.56 839.51 1022.38C863.375 1026.35 888.977 1022.6 913.103 1024.95C1037.41 1037.08 972.406 1169.08 958.549 1216.93" stroke="white" stroke-width="0.6" stroke-miterlimit="10"/>
<path d="M720.611 949.937C736.956 1019.58 779.307 1011.43 867.711 1021.38C996.008 1035.81 930.167 1170.51 915.327 1219.59" stroke="white" stroke-width="0.6" stroke-miterlimit="10"/>
<path d="M669.094 944.892C685.959 1015.67 733.256 1005.95 822.384 1017.34C955.309 1034.32 888.254 1170.12 871.909 1222.52" stroke="white" stroke-width="0.6" stroke-miterlimit="10"/>
<path d="M617.654 938.987C634.433 1011.09 686.966 1000.48 777.049 1012.83C914.689 1031.7 846.071 1170.43 828.165 1225.68" stroke="white" stroke-width="0.6" stroke-miterlimit="10"/>
<path d="M566.311 932.311C582.829 1005.35 640.627 993.699 731.404 1008.37C873.297 1031.3 804.187 1169.43 784.14 1229.14" stroke="white" stroke-width="0.6" stroke-miterlimit="10"/>
<path d="M514.961 924.901C531.624 998.999 594.224 987.004 685.666 1003.55C831.696 1029.96 761.574 1169.5 739.733 1232.87" stroke="white" stroke-width="0.6" stroke-miterlimit="10"/>
<path d="M463.611 916.812C479.666 991.461 548.342 980.897 639.784 998.357C790.269 1027.12 718.266 1170.89 694.834 1236.83" stroke="white" stroke-width="0.6" stroke-miterlimit="10"/>
<path d="M412.27 908.137C428.238 983.923 501.455 973.633 593.62 993.185C747.952 1025.92 674.909 1171.41 649.539 1241.14" stroke="white" stroke-width="0.6" stroke-miterlimit="10"/>
<path d="M360.893 898.893C376.08 975.468 455.256 966.352 547.046 987.995C705.312 1025.28 631.603 1171.09 603.687 1245.71" stroke="white" stroke-width="0.6" stroke-miterlimit="10"/>
<path d="M309.457 889.172C323.921 967.544 406.8 958.741 500.354 982.437C661.716 1023.32 586.56 1174.29 557.285 1250.55" stroke="white" stroke-width="0.6" stroke-miterlimit="10"/>
<path d="M257.961 879.029C271.499 958.612 359.933 950.743 453.139 977.081C617.625 1023.54 542.499 1173.83 510.244 1255.7" stroke="white" stroke-width="0.6" stroke-miterlimit="10"/>
<path d="M206.354 868.502C219.284 949.387 311.797 942.876 405.64 971.561C573.192 1022.77 497.111 1175.17 462.571 1261.15" stroke="white" stroke-width="0.6" stroke-miterlimit="10"/>
<path d="M154.6 857.68C166.344 939.83 263.08 935.52 357.791 965.911C528.67 1020.75 450.39 1178.71 414.143 1266.91" stroke="white" stroke-width="0.6" stroke-miterlimit="10"/>
<path d="M102.734 846.621C113.149 929.963 214.744 927.432 309.311 960.538C482.648 1021.23 404.253 1179.5 364.94 1272.98" stroke="white" stroke-width="0.6" stroke-miterlimit="10"/>
<path d="M50.6944 835.359C47.1941 918.224 173.292 922.938 260.511 954.999C436.828 1019.82 356.465 1182.69 314.953 1279.34" stroke="white" stroke-width="0.6" stroke-miterlimit="10"/>
<path d="M-1.55273 823.987C6.31574 910.136 115.751 912.3 211.098 949.698C389.759 1019.76 308.239 1185.13 264.095 1286.08" stroke="white" stroke-width="0.6" stroke-miterlimit="10"/>
<path d="M-53.997 812.542C-60.1587 898.104 73.2292 907.586 161.055 944.599C341.741 1020.75 259.758 1186.83 212.316 1293.1" stroke="white" stroke-width="0.6" stroke-miterlimit="10"/>
<path d="M-106.676 801.098C-114.255 887.595 22.1127 900.47 110.575 939.464C293.488 1020.11 209.683 1190.5 159.58 1300.46" stroke="white" stroke-width="0.6" stroke-miterlimit="10"/>
<path d="M-159.581 789.726C-168.751 877.746 -29.4618 893.005 59.3188 934.75C243.534 1021.38 159.237 1193.38 105.835 1308.16" stroke="white" stroke-width="0.6" stroke-miterlimit="10"/>
<path d="M-212.815 778.446C-223.721 867.767 -81.8278 886.164 7.50247 930.036C193.684 1021.47 107.102 1197.96 51.0105 1316.19" stroke="white" stroke-width="0.6" stroke-miterlimit="10"/>
<path d="M-266.301 767.349C-279.174 858.12 -134.533 879.414 -45.0584 925.689C142.454 1022.68 54.2232 1202.11 -4.90606 1324.55" stroke="white" stroke-width="0.6" stroke-miterlimit="10"/>
<path d="M-320.139 756.492C-338.19 847.482 -186.173 874.316 -98.4335 921.728C90.2652 1023.7 0.153825 1207.12 -61.955 1333.29" stroke="white" stroke-width="0.6" stroke-miterlimit="10"/>
<path fill-rule="evenodd" clip-rule="evenodd" d="M1878.32 336.8C1548.15 465.932 1188.74 472.278 847.167 362.65C676.659 307.92 529.933 231.307 386.196 149.857C309.884 144.085 233.735 135.885 157.768 125.605C130.756 135.304 99.8092 141.757 68.9041 144.317C30.9832 147.458 -6.89847 144.74 -37.3894 134.949C-67.8753 125.16 -91.0301 108.279 -99.3782 83.0551L-99.549 82.5393L-99.0154 82.642C-13.6967 99.0667 71.8853 113.337 157.7 124.953C163.767 122.771 169.633 120.425 175.255 117.922C205.894 104.281 229.177 86.0166 237.882 64.3665L237.962 64.1667L238.288 64.1667L238.362 64.209C255.395 73.9889 272.37 83.7828 289.321 93.5626C321.685 112.236 353.961 130.858 386.386 149.232C609.386 166.091 833.757 162.214 1058.97 128.933C1153.21 115 1246.03 97.3129 1338.74 79.6479C1380.34 71.7222 1421.91 63.801 1463.58 56.2254C1598.1 31.7666 1733.59 10.9141 1873.94 5.16321L1874.27 5.14966L1874.27 5.48023C1874.46 46.9838 1875.93 87.8196 1877.41 128.488C1879.9 197.499 1882.38 266.028 1878.52 336.521L1878.51 336.726L1878.32 336.8ZM387.688 149.97C531.035 231.163 677.376 307.481 847.362 362.043C1188.74 471.608 1547.92 465.285 1877.9 336.282C1881.74 265.883 1879.26 197.478 1876.77 128.559C1875.3 87.9924 1873.83 47.2477 1873.63 5.81369C1733.44 11.5819 1598.1 32.4146 1463.69 56.8526C1422.04 64.4261 1380.47 72.3461 1338.88 80.2712C1246.16 97.9375 1153.31 115.629 1059.06 129.563C834.251 162.785 610.282 166.714 387.688 149.97ZM384.894 149.119C352.863 130.96 320.977 112.563 289.007 94.1174C272.153 84.3933 255.275 74.6555 238.34 64.9317C229.441 86.6702 206.049 104.909 175.514 118.504C170.233 120.855 164.737 123.068 159.063 125.137C234.169 135.279 309.452 143.384 384.894 149.119ZM156.393 125.419C71.1547 113.856 -13.8529 99.6765 -98.5997 83.3712C-90.1988 108.035 -67.3776 124.65 -37.1946 134.342C-6.80667 144.1 30.9859 146.818 68.8515 143.681C99.2679 141.162 129.716 134.866 156.393 125.419Z" fill="white"/>
<path fill-rule="evenodd" clip-rule="evenodd" d="M1050.33 145.741C663.105 197.102 279.655 164.505 -97.9591 90.5491L-97.8364 89.9235C279.734 163.871 663.111 196.458 1050.25 145.109C1152.03 131.608 1252.33 113.824 1352.54 96.057C1388.32 89.7133 1424.08 83.3717 1459.9 77.2276C1596.04 53.8764 1732.92 33.382 1873.96 26.4939L1873.99 27.1306C1732.99 34.0168 1596.14 54.5058 1460.01 77.8559C1424.2 83.9986 1388.44 90.3394 1352.66 96.6826C1252.45 114.451 1152.12 132.238 1050.33 145.741Z" fill="white"/>
<path fill-rule="evenodd" clip-rule="evenodd" d="M1042.13 160.69C657.593 206.291 277.708 171.621 -95.7763 97.3351L-95.6519 96.71C277.79 170.988 657.604 205.648 1042.05 160.057C1152.63 146.949 1261.64 128.866 1370.59 110.794C1399.22 106.046 1427.84 101.298 1456.48 96.6414C1594.15 74.2625 1732.34 53.9886 1874.06 45.8624L1874.1 46.4988C1732.42 54.623 1594.25 74.8923 1456.59 97.2706C1427.95 101.926 1399.33 106.674 1370.7 111.422C1261.75 129.494 1152.72 147.58 1042.13 160.69Z" fill="white"/>
<path fill-rule="evenodd" clip-rule="evenodd" d="M1034.42 174.463C652.842 214.69 276.626 178.076 -92.6782 103.607L-92.5521 102.982C276.71 177.443 652.858 214.047 1034.36 173.829C1155.2 161.095 1274.36 142.479 1393.49 123.868C1413.42 120.754 1433.35 117.641 1453.29 114.555C1592.39 93.0243 1731.83 72.8424 1874.21 63.3774L1874.25 64.0134C1731.9 73.4765 1592.49 93.6545 1453.39 115.185C1433.45 118.27 1413.52 121.384 1393.59 124.498C1274.46 143.109 1155.29 161.727 1034.42 174.463Z" fill="white"/>
<path fill-rule="evenodd" clip-rule="evenodd" d="M1027.19 187.101C648.784 222.302 276.441 183.891 -88.6817 109.385L-88.5542 108.76C276.529 183.258 648.806 221.66 1027.13 186.467C1159.93 174.11 1290.91 154.684 1421.9 135.257C1431.37 133.852 1440.85 132.447 1450.33 131.044C1590.8 110.252 1731.42 90.0473 1874.43 79.1517L1874.48 79.7873C1731.5 90.681 1590.89 110.882 1450.42 131.674C1440.94 133.077 1431.47 134.483 1421.99 135.888C1291 155.314 1160 174.743 1027.19 187.101Z" fill="white"/>
<path fill-rule="evenodd" clip-rule="evenodd" d="M1020.42 198.675C645.477 229.216 277.008 189.118 -83.8316 114.685L-83.7029 114.061C277.099 188.485 645.504 228.574 1020.36 198.04C1164.07 186.33 1305.83 166.334 1447.59 146.166L1456.47 144.902C1595.26 125.151 1734.08 105.397 1874.71 93.2563L1874.77 93.8914C1734.15 106.03 1595.35 125.783 1456.56 145.534L1447.68 146.797C1305.93 166.965 1164.14 186.963 1020.42 198.675Z" fill="white"/>
<path fill-rule="evenodd" clip-rule="evenodd" d="M1014.05 209.258C642.833 235.452 278.314 193.776 -78.1908 119.527L-78.0609 118.903C278.407 193.144 642.864 234.811 1014.01 208.622C1158.95 198.388 1302.09 179.677 1445.05 160.031C1462.7 157.607 1480.34 155.168 1497.98 152.73C1623.28 135.407 1748.6 118.082 1875.02 105.839L1875.08 106.473C1748.67 118.716 1623.37 136.038 1498.06 153.361C1480.42 155.8 1462.78 158.238 1445.14 160.663C1302.18 180.309 1159.02 199.023 1014.05 209.258Z" fill="white"/>
<path fill-rule="evenodd" clip-rule="evenodd" d="M1008.12 218.851C640.779 241.009 280.339 197.848 -71.7802 123.892L-71.6491 123.269C280.435 197.217 640.815 240.369 1008.09 218.215C1189.68 207.265 1368.62 182.873 1547.56 158.482C1656.65 143.612 1765.74 128.742 1875.43 116.917L1875.49 117.551C1765.84 129.371 1656.77 144.239 1547.69 159.108C1368.72 183.502 1189.73 207.9 1008.12 218.851Z" fill="white"/>
<path fill-rule="evenodd" clip-rule="evenodd" d="M1002.53 227.563C639.264 245.943 282.98 201.387 -64.7023 127.817L-64.5703 127.194C283.078 200.757 639.305 245.303 1002.5 226.926L1002.52 227.245L1002.5 226.926C1205.85 216.647 1406.09 189.283 1606.21 161.935C1696.01 149.664 1785.78 137.396 1875.81 126.675L1875.88 127.308C1785.88 138.026 1696.12 150.292 1606.33 162.562C1406.19 189.912 1205.91 217.282 1002.53 227.563Z" fill="white"/>
<path fill-rule="evenodd" clip-rule="evenodd" d="M997.323 235.45C638.287 250.29 286.209 204.359 -56.9583 131.302L-56.8256 130.679C286.31 203.728 638.332 249.65 997.296 234.813C1225.88 225.364 1450.72 193.977 1675.22 162.636C1742.23 153.281 1809.22 143.93 1876.27 135.168L1876.35 135.8C1809.31 144.56 1742.34 153.91 1675.33 163.265C1450.82 194.606 1225.94 226 997.323 235.45Z" fill="white"/>
<path fill-rule="evenodd" clip-rule="evenodd" d="M992.372 242.511C637.723 254.049 290.03 206.834 -48.6227 134.346L-48.4894 133.723C290.133 206.204 637.771 253.41 992.351 241.874C1250.27 233.489 1503.63 196.644 1756.19 159.916C1796.38 154.071 1836.56 148.229 1876.72 142.505L1876.81 143.136C1836.65 148.859 1796.48 154.701 1756.28 160.546C1503.73 197.274 1250.33 234.124 992.372 242.511Z" fill="white"/>
<path fill-rule="evenodd" clip-rule="evenodd" d="M987.754 248.821C637.568 257.259 294.364 208.796 -39.7233 136.951L-39.5892 136.328C294.47 208.167 637.62 256.62 987.739 248.184C1279.8 241.156 1566.18 196.866 1850.9 152.831C1859.68 151.473 1868.46 150.116 1877.23 148.76L1877.33 149.39C1868.55 150.746 1859.77 152.105 1850.99 153.463C1566.27 197.497 1279.86 241.792 987.754 248.821Z" fill="white"/>
<path fill-rule="evenodd" clip-rule="evenodd" d="M983.365 254.47C637.744 259.991 299.183 210.336 -30.3388 139.17L-30.2041 138.547C299.291 209.708 637.801 259.352 983.355 253.832C1286.5 248.991 1583.55 203.123 1877.74 154.079L1877.85 154.707C1583.65 203.752 1286.56 249.627 983.365 254.47Z" fill="white"/>
<path fill-rule="evenodd" clip-rule="evenodd" d="M979.204 259.44C638.225 262.191 304.434 211.381 -20.4957 140.967L-20.3607 140.344C304.545 210.753 638.285 261.553 979.198 258.802C1284.37 256.327 1583.34 211.321 1878.25 158.536L1878.36 159.163C1583.44 211.95 1284.43 256.964 979.204 259.44Z" fill="white"/>
<path fill-rule="evenodd" clip-rule="evenodd" d="M975.28 263.86C639.02 263.989 310.051 211.986 -10.2362 142.361L-10.1008 141.738C310.165 211.359 639.084 263.351 975.279 263.223C1282.45 263.094 1583.24 218.786 1878.81 162.223L1878.93 162.849C1583.34 219.415 1282.51 263.732 975.28 263.86Z" fill="white"/>
<path fill-rule="evenodd" clip-rule="evenodd" d="M1879.5 165.857C1583.32 226.202 1280.74 269.95 971.536 267.749C640.072 265.383 316.002 212.207 0.357163 143.37L0.493028 142.747C316.118 211.58 640.14 264.746 971.54 267.112C1280.68 269.312 1583.21 225.573 1879.37 165.233L1879.5 165.857Z" fill="white"/>
<path fill-rule="evenodd" clip-rule="evenodd" d="M1880.04 168.314C1583.32 232.438 1279.04 275.709 967.914 271.16L967.914 271.16L967.919 270.842L967.914 271.16M1880.04 168.314L1879.9 167.691L1880.04 168.314ZM1879.9 167.691C1583.21 231.809 1278.99 275.071 967.924 270.523L1879.9 167.691ZM967.914 271.16C641.298 266.41 322.229 212.023 11.2532 144.012L11.3893 143.389C322.348 211.396 641.37 265.773 967.924 270.523" fill="white"/>
<path fill-rule="evenodd" clip-rule="evenodd" d="M1880.56 170.331C1583.37 238.197 1277.48 281.084 964.429 274.205C642.686 267.124 328.746 211.472 22.4133 144.287L22.5498 143.664C328.869 210.846 642.761 266.489 964.443 273.568C1277.43 280.445 1583.27 237.568 1880.42 169.709L1880.56 170.331Z" fill="white"/>
<path fill-rule="evenodd" clip-rule="evenodd" d="M1881.1 171.962C1583.45 243.571 1275.99 286.128 961.039 276.846C644.194 267.528 335.434 210.573 33.7704 144.195L33.9075 143.573C335.56 209.948 644.273 266.893 961.057 276.209C1275.94 285.489 1583.34 242.942 1880.95 171.343L1881.1 171.962Z" fill="white"/>
<path fill-rule="evenodd" clip-rule="evenodd" d="M1881.62 173.319C1583.55 248.615 1274.56 290.897 957.731 279.194C645.785 267.656 342.308 209.362 45.2876 143.755L45.4252 143.133C342.438 208.738 645.869 267.021 957.755 278.557C1274.51 290.257 1583.44 247.986 1881.46 172.701L1881.62 173.319Z" fill="white"/>
<path fill-rule="evenodd" clip-rule="evenodd" d="M1882.13 174.51C1583.63 253.439 1273.17 295.482 954.467 281.248C647.394 267.546 349.379 207.858 56.9256 142.985L57.0637 142.363C349.514 207.235 647.482 266.912 954.496 280.611C1273.12 294.842 1583.52 252.809 1881.97 173.894L1882.13 174.51Z" fill="white"/>
<path fill-rule="evenodd" clip-rule="evenodd" d="M1882.57 175.646C1583.68 258.153 1271.71 299.958 951.186 283.137C649.011 267.288 356.433 206.096 68.5976 141.884L68.7363 141.262C356.572 205.474 649.103 266.655 951.22 282.5C1271.66 299.317 1583.57 257.523 1882.4 175.032L1882.57 175.646Z" fill="white"/>
<path fill-rule="evenodd" clip-rule="evenodd" d="M1883.01 176.82C1583.73 262.812 1270.24 304.397 947.925 284.879C650.597 266.885 363.584 204.079 80.2897 140.454L80.4293 139.832C363.728 203.458 650.694 266.252 947.964 284.243C1270.2 303.756 1583.62 262.182 1882.84 176.207L1883.01 176.82Z" fill="white"/>
<path fill-rule="evenodd" clip-rule="evenodd" d="M1883.43 178.12C1583.74 267.525 1268.7 308.853 944.617 286.529C657.181 266.74 380.519 204.075 106.505 142.011L91.9344 138.711L92.0753 138.089L106.627 141.385C380.654 203.452 657.274 266.107 944.661 285.893C1268.67 308.212 1583.62 266.895 1883.25 177.509L1883.43 178.12Z" fill="white"/>
<path fill-rule="evenodd" clip-rule="evenodd" d="M1883.76 179.642C1583.66 272.313 1266.88 313.421 941.229 288.18C672.813 267.375 414.888 208.155 158.838 149.365C140.383 145.128 121.938 140.893 103.499 136.675L103.641 136.053C122.077 140.271 140.519 144.505 158.971 148.742C415.03 207.533 672.912 266.743 941.278 287.545C1266.85 312.779 1583.54 271.682 1883.58 179.033L1883.76 179.642Z" fill="white"/>
<path fill-rule="evenodd" clip-rule="evenodd" d="M1884.07 181.494C1583.48 277.394 1265.08 318.154 937.762 289.813C686.408 268.038 445.447 211.63 205.695 155.505C175.419 148.418 145.163 141.335 114.908 134.327L115.052 133.706C145.308 140.715 175.565 147.798 205.84 154.885C445.597 211.01 686.512 267.407 937.817 289.178C1265.05 317.511 1583.36 276.763 1883.88 180.887L1884.07 181.494Z" fill="white"/>
<path fill-rule="evenodd" clip-rule="evenodd" d="M1884.33 183.767C1583.19 282.767 1263.13 323.124 934.14 291.499C698 268.821 472.205 214.606 247.148 160.569C206.797 150.88 166.47 141.198 126.111 131.703L126.257 131.083C166.621 140.579 206.952 150.262 247.305 159.951C472.364 213.989 698.11 268.191 934.201 290.864L934.17 291.182L934.201 290.864C1263.1 322.48 1583.07 282.135 1884.13 183.161L1884.33 183.767Z" fill="white"/>
<path fill-rule="evenodd" clip-rule="evenodd" d="M1884.51 186.572C1582.79 288.563 1260.98 328.407 930.422 293.351C707.944 269.759 495.897 217.26 284.215 164.852C235.203 152.718 186.211 140.589 137.114 128.824L137.263 128.204C186.37 139.971 235.369 152.102 284.384 164.237C496.063 216.644 708.059 269.13 930.489 292.718C1260.95 327.763 1582.67 287.931 1884.31 185.968L1884.51 186.572Z" fill="white"/>
<path fill-rule="evenodd" clip-rule="evenodd" d="M1884.64 190.02C1581.79 294.965 1259.13 334.148 926.519 295.332C715.826 270.75 515.793 219.431 315.826 168.13C259.891 153.78 203.961 139.431 147.805 125.669L147.957 125.05C204.128 138.815 260.067 153.167 316.008 167.518C515.968 218.818 715.947 270.122 926.593 294.699C1259.1 333.503 1581.67 294.332 1884.43 189.417L1884.64 190.02Z" fill="white"/>
<path fill-rule="evenodd" clip-rule="evenodd" d="M1884.72 194.182C1581.02 301.861 1256.49 340.274 922.388 297.588C725.951 272.487 540.534 223.04 354.837 173.517C289.479 156.087 224.086 138.647 158.165 122.257L158.319 121.639C224.262 138.035 289.669 155.478 355.035 172.91C540.72 222.429 726.077 271.861 922.468 296.955C1256.47 339.629 1580.9 301.228 1884.51 193.582L1884.72 194.182Z" fill="white"/>
<path fill-rule="evenodd" clip-rule="evenodd" d="M1884.72 199.17C1580.04 309.455 1253.53 346.932 918.024 300.118C730.831 273.998 554.997 224.927 378.785 175.75C308.865 156.237 238.885 136.707 168.113 118.588L168.271 117.971C239.072 136.097 309.068 155.631 378.996 175.147C555.193 224.32 730.963 273.373 918.112 299.487C1253.52 346.286 1579.92 308.821 1884.51 198.571L1884.72 199.17Z" fill="white"/>
<path fill-rule="evenodd" clip-rule="evenodd" d="M1884.62 205.076C1578.84 317.837 1250.25 354.177 913.406 302.997C734.048 275.745 566.485 226.614 398.482 177.354C325.293 155.894 252.02 134.41 177.652 114.699L177.815 114.083C252.217 133.803 325.509 155.293 398.708 176.755C566.691 226.01 734.187 275.121 913.501 302.367C1250.24 353.531 1578.72 317.203 1884.4 204.478L1884.62 205.076Z" fill="white"/>
<path fill-rule="evenodd" clip-rule="evenodd" d="M1884.45 212.008C1577.35 327.1 1246.55 362.082 908.527 306.279C735.642 277.745 575.136 228.12 414.15 178.347C338.876 155.074 263.498 131.769 186.699 110.572L186.869 109.957C263.707 131.165 339.106 154.477 414.39 177.753C575.353 227.52 735.788 277.123 908.631 305.65C1246.55 361.435 1577.23 326.464 1884.22 211.411L1884.45 212.008Z" fill="white"/>
<path fill-rule="evenodd" clip-rule="evenodd" d="M1884.19 220.059C1575.6 337.354 1242.45 370.685 903.316 310.002C735.612 279.992 580.999 229.433 425.868 178.705C349.645 153.78 273.297 128.814 195.209 106.224L195.386 105.612C273.519 128.214 349.889 153.188 426.122 178.116C581.228 228.837 735.766 279.372 903.429 309.375C1242.45 370.037 1575.49 336.717 1883.96 219.464L1884.19 220.059Z" fill="white"/>
<path fill-rule="evenodd" clip-rule="evenodd" d="M1883.86 229.34C1573.53 348.652 1237.86 380.095 897.777 314.238C774.418 290.354 658.989 255.005 545.285 216.732C507.81 204.118 470.525 191.187 433.205 178.244C357.284 151.914 281.22 125.535 203.133 101.674L203.319 101.064C281.418 124.928 357.501 151.315 433.429 177.647C470.746 190.589 508.025 203.518 545.488 216.128C659.182 254.398 774.581 289.736 897.898 313.612C1237.86 379.446 1573.41 348.014 1883.63 228.745L1883.86 229.34Z" fill="white"/>
<path fill-rule="evenodd" clip-rule="evenodd" d="M1883.4 239.94C1571.11 361.143 1232.77 390.329 891.87 319.043C770.088 293.571 656.915 256.636 545.596 216.772C509.118 203.709 472.841 190.332 436.526 176.941C362.011 149.465 287.335 121.929 210.432 96.9218L210.629 96.3156C287.543 121.326 362.239 148.869 436.76 176.348C473.073 189.738 509.344 203.113 545.81 216.172C657.119 256.032 770.26 292.956 892 318.419C1232.78 389.68 1571 360.504 1883.17 239.346L1883.4 239.94Z" fill="white"/>
<path fill-rule="evenodd" clip-rule="evenodd" d="M1882.83 251.954C1568.32 374.9 1227.13 401.462 885.531 324.452C765.211 297.321 654.172 258.78 545.17 217.235C508.306 203.185 471.677 188.792 435.002 174.38C363.225 146.176 291.267 117.901 217.017 91.9859L217.227 91.3841C291.489 117.303 363.467 145.586 435.252 173.794C471.925 188.204 508.547 202.594 545.397 216.639C654.388 258.18 765.394 296.709 885.672 323.83C1227.15 400.813 1568.21 374.259 1882.6 251.36L1882.83 251.954Z" fill="white"/>
<path fill-rule="evenodd" clip-rule="evenodd" d="M1882.16 265.49C1565.11 390.014 1220.86 413.55 878.83 330.541C716.523 291.146 572.688 230.773 427.936 170.014C360.446 141.686 292.758 113.275 222.904 86.8661L223.129 86.2699C293.028 112.695 360.739 141.117 428.239 169.449C572.967 230.198 716.723 290.538 878.98 329.921C1220.89 412.9 1565 389.372 1881.93 264.896L1882.16 265.49Z" fill="white"/>
<path fill-rule="evenodd" clip-rule="evenodd" d="M1881.4 280.639C1561.47 406.595 1213.99 426.645 871.647 337.343C705.544 294.024 560.379 228.749 414.012 162.933C352.751 135.386 291.281 107.745 227.976 81.5797L228.219 80.9906C291.562 107.172 353.054 134.822 414.325 162.374C560.67 228.18 705.759 293.421 871.808 336.726C1214.02 425.995 1561.36 405.951 1881.16 280.046L1881.4 280.639Z" fill="white"/>
<path fill-rule="evenodd" clip-rule="evenodd" d="M1880.5 297.513C1557.9 424.571 1205.65 440.585 863.973 344.972C690.863 296.532 541.675 224.353 390.948 151.43C338.589 126.098 286.044 100.676 232.247 76.1283L232.512 75.5484C286.337 100.109 338.898 125.538 391.266 150.875C541.978 223.791 691.095 295.935 864.145 344.358C1205.69 439.935 1557.8 423.925 1880.27 296.92L1880.5 297.513Z" fill="white"/>
<path fill-rule="evenodd" clip-rule="evenodd" d="M1879.47 316.203C1553.25 444.362 1197.36 455.789 855.811 353.371C669.843 297.61 512.396 215.047 352.846 131.381C314.041 111.033 275.112 90.6192 235.618 70.5098L235.908 69.9418C275.416 90.0583 314.354 110.477 353.164 130.828C512.71 214.491 670.091 297.019 855.994 352.76C1197.41 455.139 1553.16 443.714 1879.24 315.609L1879.47 316.203Z" fill="white"/>
<path fill-rule="evenodd" clip-rule="evenodd" d="M1789.92 10.062C1784.58 133.277 1779.12 254.081 1766.91 377.069L1766.28 377.006C1778.48 254.038 1783.95 133.251 1789.28 10.0345L1789.92 10.062Z" fill="white"/>
<path fill-rule="evenodd" clip-rule="evenodd" d="M1748.86 13.4808C1740.32 141.088 1727.32 266.181 1711.72 393.381L1711.09 393.304C1726.68 266.111 1739.68 141.03 1748.22 13.4383L1748.86 13.4808Z" fill="white"/>
<path fill-rule="evenodd" clip-rule="evenodd" d="M1665.58 349.135C1662.71 368.455 1659.83 387.81 1656.98 407.218L1656.35 407.125C1659.2 387.715 1662.08 368.358 1664.95 349.038C1681.41 238.479 1697.68 129.101 1707.79 17.5572L1708.42 17.6147C1698.31 129.179 1682.04 238.577 1665.58 349.135Z" fill="white"/>
<path fill-rule="evenodd" clip-rule="evenodd" d="M1623.24 304.782C1616.29 342.596 1609.32 380.499 1602.74 418.652L1602.11 418.544C1608.7 380.375 1615.67 342.464 1622.62 304.645C1639.88 210.802 1657.03 117.527 1667.94 22.3002L1668.57 22.3727C1657.66 117.623 1640.5 210.93 1623.24 304.782Z" fill="white"/>
<path fill-rule="evenodd" clip-rule="evenodd" d="M1577.94 292.621C1568.02 337.455 1558.07 382.393 1549.01 427.776L1548.38 427.652C1557.45 382.24 1567.4 337.288 1577.32 292.449C1596.77 204.604 1616.12 117.189 1628.54 27.5935L1629.18 27.6811C1616.75 117.301 1597.39 204.76 1577.94 292.621Z" fill="white"/>
<path fill-rule="evenodd" clip-rule="evenodd" d="M1532.24 288.541C1519.65 336.965 1507.03 385.506 1495.82 434.7L1495.2 434.558C1506.42 385.323 1519.04 336.765 1531.63 288.334C1553.57 203.941 1575.41 119.934 1589.52 33.4005L1590.15 33.5031C1576.03 120.061 1554.18 204.124 1532.24 288.541Z" fill="white"/>
<path fill-rule="evenodd" clip-rule="evenodd" d="M1486.39 288.401C1471.4 338.383 1456.38 388.494 1443.22 439.514L1442.61 439.355C1455.77 388.322 1470.79 338.194 1485.78 288.209C1490.59 272.149 1495.4 256.104 1500.14 240.048C1519.65 174.018 1538 107.805 1550.82 39.6286L1551.45 39.7464C1538.62 107.955 1520.26 174.194 1500.75 240.229C1496.01 256.29 1491.2 272.339 1486.39 288.401Z" fill="white"/>
<path fill-rule="evenodd" clip-rule="evenodd" d="M1455.4 262.335C1428.54 321.612 1408.98 381.168 1391.23 442.329L1390.62 442.152C1408.37 380.977 1427.94 321.388 1454.82 262.071L1455.09 262.194L1454.82 262.071C1480.21 206.12 1492.07 146.706 1503.75 88.1651C1506.56 74.1143 1509.35 60.1139 1512.32 46.2238L1512.95 46.3571C1509.98 60.2286 1507.19 74.2164 1504.39 88.2594C1492.7 146.806 1480.82 206.31 1455.4 262.335Z" fill="white"/>
<path fill-rule="evenodd" clip-rule="evenodd" d="M1410.27 267.85C1380.86 325.457 1359.35 383.306 1339.89 443.237L1339.29 443.04C1358.75 383.093 1380.28 325.209 1409.7 267.561C1438.06 211.941 1451.53 152.118 1464.77 93.3504C1467.81 79.8795 1470.83 66.464 1474.02 53.1673L1474.64 53.3159C1471.45 66.5942 1468.44 79.9973 1465.4 93.4605C1452.16 152.233 1438.66 212.152 1410.27 267.85L1410.27 267.85Z" fill="white"/>
<path fill-rule="evenodd" clip-rule="evenodd" d="M1365.44 272.577C1333.75 328.203 1310.32 383.96 1289.22 442.349L1288.62 442.132C1309.73 383.724 1333.17 327.93 1364.88 272.261L1365.12 272.396L1364.88 272.261C1396.04 217.595 1411.02 157.857 1425.69 99.3915C1428.98 86.2899 1432.25 73.2521 1435.68 60.3495L1436.3 60.5135C1432.87 73.3972 1429.6 86.4222 1426.32 99.5158C1411.65 157.986 1396.64 217.827 1365.44 272.577Z" fill="white"/>
<path fill-rule="evenodd" clip-rule="evenodd" d="M1320.98 276.533C1287.19 329.867 1261.94 383.184 1239.25 439.736L1238.66 439.499C1261.36 382.923 1286.63 329.568 1320.44 276.192L1320.68 276.343L1320.44 276.192C1354.2 222.906 1370.62 163.57 1386.62 105.77C1390.16 92.9763 1393.68 80.2577 1397.36 67.6967L1397.98 67.8761C1394.3 80.4174 1390.78 93.1225 1387.24 105.908C1371.25 163.712 1354.79 223.16 1320.98 276.533Z" fill="white"/>
<path fill-rule="evenodd" clip-rule="evenodd" d="M1276.82 279.809C1241.44 330.613 1214.22 381.125 1190.02 435.528L1189.43 435.269C1213.65 380.836 1240.89 330.288 1276.3 279.445L1276.3 279.445C1312.4 227.618 1330.1 169.37 1347.39 112.463C1351.19 99.9464 1354.98 87.4945 1358.93 75.19L1359.54 75.3851C1355.59 87.6691 1351.81 100.107 1348.01 112.615C1330.72 169.527 1312.99 227.892 1276.82 279.809Z" fill="white"/>
<path fill-rule="evenodd" clip-rule="evenodd" d="M1232.96 282.316C1195.94 330.278 1167.18 377.708 1141.57 429.798L1141 429.517C1166.62 377.392 1195.41 329.925 1232.45 281.926L1232.45 281.926C1270.75 232.329 1289.6 175.131 1307.91 119.574C1311.99 107.186 1316.05 94.8796 1320.29 82.757L1320.89 82.9674C1316.66 95.0674 1312.61 107.359 1308.53 119.737C1290.22 175.3 1271.33 232.624 1232.96 282.316Z" fill="white"/>
<path fill-rule="evenodd" clip-rule="evenodd" d="M1189.35 284.053C1150.77 329.1 1121.01 372.88 1093.89 422.676L1093.33 422.371C1120.47 372.537 1150.26 328.72 1188.87 283.638C1228.99 236.769 1248.97 180.625 1268.16 126.714C1272.53 114.422 1276.87 102.247 1281.39 90.3245L1281.98 90.5505C1277.47 102.448 1273.15 114.606 1268.78 126.886C1249.59 180.804 1229.56 237.085 1189.35 284.053L1189.35 284.053Z" fill="white"/>
<path fill-rule="evenodd" clip-rule="evenodd" d="M1145.97 285.128C1106.19 326.967 1075.4 367.079 1047.05 414.213L1046.51 413.885C1074.88 366.709 1105.69 326.56 1145.51 284.689C1187.24 240.801 1208.13 186.039 1227.99 133.972C1232.68 121.699 1237.3 109.577 1242.13 97.7811L1242.72 98.0225C1237.9 109.789 1233.29 121.891 1228.61 134.151C1208.75 186.227 1187.8 241.138 1145.97 285.128Z" fill="white"/>
<path fill-rule="evenodd" clip-rule="evenodd" d="M1102.8 285.67C1062.86 324.397 1030.59 360.328 1001.09 404.561L1000.56 404.207C1030.09 359.925 1062.4 323.958 1102.36 285.212C1145.24 243.638 1167.08 190.431 1187.77 140.033C1192.63 128.199 1197.42 116.521 1202.41 105.184L1202.99 105.44C1198.02 116.747 1193.23 128.406 1188.38 140.226C1167.69 190.633 1145.79 243.994 1102.8 285.67Z" fill="white"/>
<path fill-rule="evenodd" clip-rule="evenodd" d="M1059.84 285.462C1019.2 320.67 986.519 352.493 956.022 393.789L955.509 393.41C986.046 352.061 1018.76 320.203 1059.42 284.981C1086.73 261.321 1105.75 232.33 1121.28 202.169C1130.7 183.885 1138.82 165.197 1146.72 147.004C1151.86 135.166 1156.91 123.537 1162.17 112.367L1162.75 112.638C1157.51 123.77 1152.46 135.385 1147.32 147.219C1139.41 165.433 1131.27 184.168 1121.85 202.461C1106.3 232.66 1087.23 261.729 1059.84 285.462Z" fill="white"/>
<path fill-rule="evenodd" clip-rule="evenodd" d="M1017.02 284.485C975.588 315.877 943.323 343.776 911.879 381.99L911.387 381.585C942.875 343.317 975.183 315.385 1016.63 283.977C1044.68 262.73 1064.2 234.808 1080.04 205.567C1087.96 190.947 1094.96 176.001 1101.64 161.396C1102.8 158.862 1103.95 156.337 1105.1 153.826C1110.54 141.874 1115.85 130.234 1121.35 119.292L1121.92 119.578C1116.43 130.508 1111.13 142.135 1105.68 154.087C1104.53 156.598 1103.38 159.125 1102.22 161.662C1095.54 176.268 1088.53 191.23 1080.6 205.871C1064.74 235.152 1045.16 263.162 1017.02 284.485Z" fill="white"/>
<path fill-rule="evenodd" clip-rule="evenodd" d="M974.334 283.154C933.915 311.236 900.99 334.2 868.679 369.275L868.21 368.844C900.575 333.709 933.556 310.709 973.97 282.631C1002.27 262.97 1022 236.393 1038.02 208.425C1046.03 194.441 1053.11 180.113 1059.87 166.131C1060.97 163.866 1062.06 161.61 1063.14 159.366C1068.73 147.76 1074.17 136.474 1079.81 125.925L1080.37 126.225C1074.74 136.762 1069.31 148.033 1063.71 159.639C1062.63 161.884 1061.55 164.142 1060.45 166.409C1053.69 180.392 1046.6 194.737 1038.57 208.742C1022.53 236.751 1002.74 263.418 974.334 283.154Z" fill="white"/>
<path fill-rule="evenodd" clip-rule="evenodd" d="M923.582 285.995C887.079 307.97 857.224 325.942 826.454 355.733L826.011 355.275C856.835 325.431 886.748 307.424 923.242 285.456C925.922 283.843 928.637 282.208 931.391 280.546C959.818 263.371 979.776 237.886 995.91 210.881C1003.98 197.379 1011.08 183.503 1017.82 170.099C1018.73 168.276 1019.64 166.461 1020.55 164.657C1026.28 153.204 1031.8 142.189 1037.47 132.172L1038.03 132.486C1032.37 142.488 1026.86 153.487 1021.12 164.941C1020.21 166.745 1019.3 168.561 1018.39 170.385C1011.65 183.79 1004.54 197.684 996.457 211.208C980.298 238.255 960.275 263.84 931.72 281.092L931.72 281.092C928.97 282.752 926.258 284.384 923.582 285.995Z" fill="white"/>
<path fill-rule="evenodd" clip-rule="evenodd" d="M869.141 288.699C838.89 304.275 813.665 317.264 785.28 341.478L784.866 340.993C813.312 316.728 838.609 303.702 868.866 288.123C875.306 284.807 881.971 281.375 888.939 277.695L889.072 277.947L888.939 277.695C916.202 263.299 936.483 238.53 952.984 212.265C961.233 199.134 968.533 185.637 975.288 172.884C976.326 170.923 977.352 168.981 978.366 167.059C983.947 156.485 989.185 146.563 994.316 137.98L994.863 138.307C989.741 146.874 984.513 156.778 978.932 167.353C977.917 169.275 976.891 171.22 975.851 173.182C969.096 185.937 961.786 199.452 953.524 212.604C937.001 238.904 916.647 263.785 889.236 278.259L889.088 277.977L889.236 278.259C882.257 281.945 875.585 285.381 869.141 288.699Z" fill="white"/>
<path fill-rule="evenodd" clip-rule="evenodd" d="M820.488 286.329C794.218 297.132 773.178 305.784 745.132 326.598L744.752 326.086C772.867 305.221 793.992 296.534 820.281 285.724C828.413 282.38 837.04 278.832 846.52 274.658C872.783 263.096 893.013 239.332 909.532 213.895C917.789 201.181 925.112 188.059 931.795 175.85C932.728 174.146 933.648 172.46 934.557 170.795C940.157 160.534 945.316 151.081 950.214 143.292L950.754 143.632C945.867 151.402 940.719 160.835 935.118 171.097C934.209 172.763 933.288 174.45 932.354 176.156C925.67 188.367 918.337 201.506 910.066 214.242C893.529 239.708 873.214 263.603 846.777 275.242C837.269 279.428 828.628 282.982 820.488 286.329Z" fill="white"/>
<path fill-rule="evenodd" clip-rule="evenodd" d="M776.03 280.562C752.513 287.71 734.025 293.329 706.082 311.204L705.739 310.667C733.761 292.742 752.348 287.093 775.894 279.936C784.426 277.343 793.609 274.552 804.128 270.907L804.128 270.907C828.821 262.36 849.05 239.298 865.62 214.508C873.901 202.121 881.258 189.317 887.797 177.705C888.774 175.969 889.733 174.26 890.674 172.583C896.027 163.043 900.803 154.531 905.057 148.056L905.59 148.406C901.349 154.861 896.587 163.349 891.233 172.89C890.291 174.569 889.331 176.279 888.352 178.017C881.813 189.632 874.445 202.453 866.15 214.863C849.569 239.668 829.241 262.889 804.336 271.51C793.775 275.169 784.571 277.966 776.03 280.562Z" fill="white"/>
<path fill-rule="evenodd" clip-rule="evenodd" d="M738.111 267.521C709.767 273.675 693.104 282.021 668.133 295.37L667.832 294.807C692.817 281.451 709.543 273.071 737.976 266.898L737.977 266.898C741.604 266.116 745.499 266.439 749.338 266.759C749.562 266.777 749.785 266.796 750.008 266.814C754.086 267.15 758.086 267.408 761.753 266.335C784.704 259.62 804.569 237.547 820.915 213.871C829.082 202.043 836.359 189.833 842.694 178.973C843.734 177.189 844.749 175.442 845.739 173.738C850.772 165.075 855.147 157.544 858.824 152.177L859.35 152.537C855.687 157.883 851.328 165.387 846.294 174.052C845.303 175.757 844.287 177.507 843.244 179.294C836.908 190.156 829.621 202.384 821.44 214.234C805.089 237.915 785.115 260.164 761.932 266.947L761.843 266.644L761.932 266.947C758.135 268.058 754.019 267.784 749.955 267.45C749.742 267.432 749.528 267.414 749.315 267.397C745.448 267.075 741.643 266.759 738.111 267.521Z" fill="white"/>
<path fill-rule="evenodd" clip-rule="evenodd" d="M666.778 265.641C657.281 268.276 647.696 272.197 631.306 279.223L631.055 278.637C647.439 271.613 657.063 267.675 666.607 265.027C676.154 262.379 685.614 261.024 701.667 259.153L701.667 259.153C703.031 258.996 704.494 259.167 705.991 259.484C707.309 259.762 708.671 260.157 710.028 260.551C710.213 260.604 710.398 260.658 710.582 260.711C713.688 261.608 716.719 262.403 719.333 261.854C742.5 256.939 760.768 237.113 775.633 215.103C783.06 204.105 789.625 192.582 795.52 182.136C795.861 181.532 796.199 180.932 796.536 180.335C802.014 170.62 806.914 161.932 811.383 155.639L811.902 156.008C807.453 162.273 802.569 170.934 797.082 180.663C796.749 181.255 796.413 181.85 796.075 182.449C790.181 192.895 783.605 204.438 776.161 215.46C761.285 237.486 742.894 257.507 719.465 262.478L719.464 262.478C716.667 263.066 713.479 262.211 710.405 261.323C710.22 261.27 710.035 261.216 709.85 261.163C708.49 260.768 707.152 260.381 705.86 260.107C704.392 259.797 703.005 259.641 701.74 259.786C685.687 261.657 676.272 263.008 666.778 265.641Z" fill="white"/>
<path fill-rule="evenodd" clip-rule="evenodd" d="M630.035 252.911C621.487 254.355 612.569 257.267 595.686 262.836L595.487 262.231C612.352 256.667 621.322 253.737 629.929 252.283C638.542 250.828 646.785 250.852 662.192 251.173C663.371 251.197 664.608 251.601 665.854 252.16C666.938 252.647 668.052 253.264 669.158 253.877C669.324 253.969 669.49 254.061 669.655 254.152C670.931 254.856 672.194 255.53 673.421 255.996C674.648 256.463 675.812 256.711 676.895 256.586C686.884 255.427 696.259 250.085 704.959 242.35C713.659 234.616 721.662 224.509 728.906 213.862C736.149 203.216 742.626 192.042 748.276 182.176C748.718 181.404 749.155 180.639 749.588 179.883C754.671 170.996 759.058 163.329 762.686 158.351L763.201 158.726C759.595 163.674 755.226 171.311 750.133 180.214C749.703 180.965 749.269 181.725 748.829 182.493C743.179 192.358 736.692 203.552 729.433 214.221C722.175 224.888 714.138 235.043 705.383 242.826C696.629 250.609 687.136 256.04 676.968 257.219L676.968 257.219C675.742 257.36 674.467 257.076 673.194 256.592C671.92 256.108 670.622 255.414 669.347 254.71C669.18 254.618 669.014 254.526 668.848 254.434C667.738 253.819 666.65 253.217 665.592 252.741C664.376 252.195 663.231 251.832 662.179 251.811L662.179 251.811C646.762 251.489 638.579 251.468 630.035 252.911Z" fill="white"/>
<path fill-rule="evenodd" clip-rule="evenodd" d="M620.267 242.637C621.385 242.791 622.543 243.387 623.738 244.222L620.267 242.637ZM634.418 251.002C633.244 251.108 632.054 250.631 630.885 249.904C629.713 249.174 628.516 248.162 627.325 247.136C627.226 247.051 627.127 246.966 627.028 246.881C625.929 245.932 624.832 244.987 623.738 244.222" fill="white"/>
<path fill-rule="evenodd" clip-rule="evenodd" d="M593.132 246.642L592.967 246.29C587.638 234.938 578.604 230.02 567.301 228.33C556.172 226.667 542.881 228.139 528.814 229.696L528.051 229.781L527.98 229.147L528.799 229.057C542.822 227.504 556.183 226.024 567.395 227.7C578.735 229.395 587.914 234.325 593.377 245.668C607.528 235.128 619.824 220.258 630.881 204.932C636.161 197.612 641.155 190.194 645.933 183.097C646.193 182.711 646.452 182.326 646.71 181.942C651.721 174.5 656.497 167.439 661.112 161.264L661.623 161.646C657.019 167.806 652.252 174.854 647.239 182.298C646.98 182.683 646.72 183.069 646.46 183.455C641.684 190.55 636.684 197.977 631.398 205.305C620.25 220.758 607.808 235.798 593.445 246.411L593.132 246.642Z" fill="white"/>
<path fill-rule="evenodd" clip-rule="evenodd" d="M548.961 240.823L548.956 240.049C548.911 233.871 547.487 229.147 544.927 225.524C542.367 221.901 538.651 219.349 533.969 217.553C524.586 213.953 511.407 213.413 496.136 213.312L496.141 212.675C511.387 212.776 524.687 213.309 534.197 216.958C538.962 218.786 542.796 221.404 545.448 225.156C547.99 228.755 549.426 233.37 549.58 239.276C560.549 227.965 570.636 214.627 580.198 201.117C583.949 195.817 587.621 190.488 591.234 185.245C596.972 176.916 602.561 168.805 608.078 161.375L608.59 161.755C603.078 169.178 597.502 177.27 591.77 185.59C588.156 190.835 584.48 196.17 580.718 201.485C570.996 215.222 560.714 228.806 549.502 240.27L548.961 240.823Z" fill="white"/>
<path fill-rule="evenodd" clip-rule="evenodd" d="M486.064 201.435C479.969 199.607 472.961 198.189 465.491 196.984L465.593 196.355C473.075 197.562 480.113 198.985 486.247 200.825C492.378 202.664 497.624 204.925 501.507 207.818C505.395 210.715 507.931 214.257 508.599 218.648C508.951 220.96 508.782 223.492 508.036 226.271C517.472 208.94 529.891 192.267 542.113 175.859C545.953 170.704 549.773 165.576 553.476 160.461L553.992 160.835C550.277 165.967 546.448 171.107 542.603 176.269C529.501 193.859 516.211 211.701 506.602 230.335C506.045 231.626 505.378 232.964 504.594 234.353L504.03 234.057C504.676 232.722 505.341 231.39 506.026 230.063C507.893 225.724 508.462 221.985 507.969 218.744C507.332 214.561 504.918 211.155 501.126 208.329C497.328 205.5 492.162 203.265 486.064 201.435Z" fill="white"/>
<path fill-rule="evenodd" clip-rule="evenodd" d="M457.51 228.192L457.533 227.581C457.854 219.074 461.943 209.513 467.503 200.041C464.56 195.999 459.939 192.272 454.469 189.035C448.939 185.762 442.559 183 436.211 180.924L436.409 180.319C442.793 182.406 449.217 185.186 454.793 188.486C460.205 191.689 464.836 195.392 467.855 199.444C469.605 196.496 471.493 193.56 473.449 190.668C477.641 184.472 482.159 178.468 486.333 172.994C486.941 172.196 487.542 171.41 488.133 170.636C491.603 166.094 494.748 161.978 497.159 158.486L497.684 158.848C495.263 162.354 492.107 166.485 488.638 171.026C488.047 171.799 487.447 172.584 486.84 173.38C482.667 178.854 478.158 184.845 473.977 191.025C471.97 193.992 470.041 196.998 468.263 200.007C471.175 204.154 472.396 208.674 471.009 213.375C469.604 218.137 465.543 223.018 458.024 227.861L457.51 228.192ZM467.907 200.613C462.583 209.728 458.68 218.854 458.2 226.986C465.319 222.297 469.086 217.641 470.397 213.195C471.689 208.816 470.618 204.578 467.907 200.613Z" fill="white"/>
<path fill-rule="evenodd" clip-rule="evenodd" d="M408.372 220.552L408.299 220.236C405.858 209.601 410.99 197.383 417.967 185.874C420.457 181.766 423.189 177.738 425.91 173.891C421.762 170.018 415.942 166.939 408.336 165.251L408.474 164.629C416.143 166.331 422.049 169.44 426.282 173.367C427.255 171.996 428.226 170.648 429.182 169.33C429.92 168.312 430.648 167.312 431.363 166.331C434.283 162.324 436.968 158.639 439.065 155.412L439.6 155.759C437.493 159.002 434.794 162.705 431.873 166.714C431.159 167.693 430.433 168.69 429.698 169.704C428.725 171.045 427.738 172.416 426.749 173.81C432.223 179.123 434.733 185.848 434.493 192.591C434.067 204.565 424.974 216.475 408.686 220.475L408.372 220.552ZM426.376 174.336C423.678 178.152 420.975 182.141 418.512 186.204C411.609 197.591 406.643 209.483 408.85 219.777C424.701 215.76 433.445 204.142 433.856 192.569C434.088 186.059 431.683 179.525 426.376 174.336Z" fill="white"/>
<path fill-rule="evenodd" clip-rule="evenodd" d="M395.401 160.995C393.311 156.525 389.054 152.668 381.809 150.034L382.026 149.435C389.386 152.111 393.799 156.064 395.978 160.725C398.155 165.381 398.076 170.69 396.559 176.033C393.528 186.708 384.725 197.631 376.313 204.087C372.11 207.312 367.962 209.457 364.644 209.87C362.98 210.077 361.494 209.851 360.32 209.073C359.141 208.292 358.324 206.986 357.937 205.132C357.169 201.448 358.075 195.493 361.345 186.722C364.62 177.936 370.286 166.275 379.103 151.152L379.654 151.473C370.847 166.58 365.2 178.206 361.942 186.945C358.679 195.699 357.833 201.507 358.561 205.002C358.923 206.737 359.668 207.876 360.672 208.541C361.68 209.21 362.997 209.432 364.566 209.237C367.714 208.845 371.752 206.784 375.925 203.582C384.261 197.183 392.962 186.366 395.946 175.859C397.436 170.611 397.492 165.47 395.401 160.995Z" fill="white"/>
<path fill-rule="evenodd" clip-rule="evenodd" d="M366.679 149.128C365.865 143.876 362.812 139.102 356.695 135.352L357.028 134.809C363.284 138.644 366.463 143.571 367.308 149.031C368.152 154.476 366.668 160.407 363.692 166.253C357.743 177.943 345.771 189.412 334.08 196.237C328.234 199.65 322.432 201.917 317.466 202.456C312.497 202.996 308.305 201.809 305.799 198.236C303.309 194.686 302.549 188.871 304.199 180.318C305.851 171.753 309.931 160.38 317.211 145.651L317.782 145.933C310.515 160.637 306.462 171.952 304.825 180.438C303.186 188.936 303.981 194.535 306.32 197.87C308.643 201.181 312.556 202.349 317.397 201.823C322.24 201.296 327.954 199.075 333.758 195.687C345.368 188.909 357.241 177.522 363.124 165.964C366.065 160.186 367.494 154.395 366.679 149.128Z" fill="white"/>
<path fill-rule="evenodd" clip-rule="evenodd" d="M339.423 137.711C339.963 131.71 338.107 126.08 333.023 121.318L333.459 120.853C338.69 125.753 340.615 131.577 340.058 137.769C339.502 143.944 336.479 150.464 331.861 156.795C322.623 169.46 306.931 181.468 291.423 188.605C283.667 192.174 275.941 194.533 269.075 195.14C262.214 195.746 256.173 194.605 251.839 191.123C247.495 187.635 244.928 181.849 244.911 173.307C244.893 164.771 247.419 153.452 253.293 138.831L253.884 139.069C248.025 153.653 245.531 164.885 245.548 173.306C245.566 181.72 248.09 187.295 252.238 190.626C256.395 193.965 262.245 195.103 269.019 194.505C275.79 193.906 283.443 191.575 291.156 188.026C306.585 180.926 322.184 168.98 331.346 156.42C335.927 150.139 338.881 143.729 339.423 137.711Z" fill="white"/>
<path fill-rule="evenodd" clip-rule="evenodd" d="M189.167 175.528C196.76 185.578 213.239 189.243 243.834 180.7C262.483 175.491 283.81 165.249 298.183 152.318C305.369 145.853 310.797 138.734 313.299 131.255C315.796 123.79 315.383 115.949 310.858 108.001L311.412 107.686C316.029 115.796 316.456 123.825 313.903 131.458C311.354 139.078 305.842 146.285 298.609 152.792C284.145 165.805 262.722 176.086 244.006 181.314L243.92 181.007L244.006 181.314C213.387 189.864 196.515 186.312 188.658 175.912C184.739 170.724 183.106 163.881 183.095 156.112C183.085 148.343 184.697 139.621 187.298 130.645L187.911 130.822C185.319 139.766 183.722 148.424 183.733 156.111C183.743 163.8 185.36 170.49 189.167 175.528Z" fill="white"/>
<path fill-rule="evenodd" clip-rule="evenodd" d="M133.76 167.428C146.733 176.342 168.277 178.305 199.106 171.671L199.106 171.671C220.422 167.092 245.851 157.212 264.629 143.876C283.428 130.525 295.435 113.809 290.238 95.5499L290.851 95.3754C296.168 114.055 283.839 131.014 264.998 144.395C246.135 157.792 220.621 167.701 199.24 172.294C168.367 178.938 146.597 177.022 133.399 167.953C120.169 158.862 115.657 142.663 119.103 121.035L119.732 121.135C116.305 142.646 120.82 158.535 133.76 167.428Z" fill="white"/>
<path fill-rule="evenodd" clip-rule="evenodd" d="M76.9183 158.53C94.985 166.777 121.326 167.465 154.107 161.673C178.407 157.376 208.118 148.435 231.54 135.315C254.987 122.182 272.007 104.936 271.194 84.0671L271.831 84.0423C272.659 105.303 255.328 122.722 231.852 135.872C208.35 149.035 178.566 157.995 154.218 162.3L154.162 161.986L154.218 162.3C121.4 168.099 94.8998 167.439 76.6536 159.11C67.5226 154.942 60.457 148.853 55.7094 140.695C50.9634 132.54 48.5461 122.34 48.6748 109.968L49.3122 109.974C49.1844 122.261 51.5852 132.342 56.2604 140.375C60.9341 148.405 67.8929 154.411 76.9183 158.53Z" fill="white"/>
<path fill-rule="evenodd" clip-rule="evenodd" d="M206.341 125.298C231.854 111.447 250.015 93.6547 253.739 73.6341L254.365 73.7506C250.588 94.0624 232.208 111.98 206.645 125.859C181.066 139.745 148.22 149.63 115.364 153.839C82.5117 158.047 49.618 156.585 23.9503 147.749C-1.72281 138.912 -20.2137 122.677 -24.1231 97.3277L-23.4931 97.2306C-19.6321 122.265 -1.38062 138.356 24.1578 147.147C49.7018 155.94 82.4889 157.407 115.283 153.206C148.075 149.006 180.843 139.141 206.341 125.298Z" fill="white"/>
</g>
</g>
<defs>
<linearGradient id="paint0_linear_1946_2857" x1="-5.52341e-08" y1="695.567" x2="1784.81" y2="695.567" gradientUnits="userSpaceOnUse">
<stop stop-color="#D9D9D9" stop-opacity="0"/>
<stop offset="0.259162" stop-color="#D9D9D9"/>
<stop offset="0.756023" stop-color="#D9D9D9"/>
<stop offset="1" stop-color="#D9D9D9" stop-opacity="0"/>
</linearGradient>
<linearGradient id="paint1_linear_1946_2857" x1="892.407" y1="16.7217" x2="892.407" y2="1210" gradientUnits="userSpaceOnUse">
<stop offset="0.0722267" stop-color="#D9D9D9" stop-opacity="0"/>
<stop offset="0.431984" stop-color="#D9D9D9"/>
<stop offset="0.955385" stop-color="#D9D9D9" stop-opacity="0"/>
</linearGradient>
</defs>
</svg>
