<svg width="115" height="20" viewBox="0 0 115 20" fill="none" xmlns="http://www.w3.org/2000/svg">
<path fill-rule="evenodd" clip-rule="evenodd" d="M5.39074 0.131836C5.95719 0.131836 6.41638 0.591027 6.41638 1.15747V5.34606C7.53686 4.31662 9.0292 3.68797 10.6697 3.68797C14.1568 3.68797 16.9744 6.52827 16.9744 10.0206V18.9741C16.9744 19.5405 16.5152 19.9997 15.9488 19.9997C15.3823 19.9997 14.9231 19.5405 14.9231 18.9741V14.6951C13.8026 15.7245 12.3103 16.3532 10.6697 16.3532C7.18264 16.3532 4.36511 13.5128 4.36511 10.0206V1.15747C4.36511 0.591027 4.8243 0.131836 5.39074 0.131836ZM14.9231 10.0206C14.9231 7.65092 13.0137 5.73923 10.6697 5.73923C8.32575 5.73923 6.41638 7.65091 6.41638 10.0206C6.41638 12.3902 8.32575 14.3019 10.6697 14.3019C13.0137 14.3019 14.9231 12.3902 14.9231 10.0206Z" fill="white"/>
<path fill-rule="evenodd" clip-rule="evenodd" d="M1.69568 2.63965C2.26212 2.63965 2.72131 3.09884 2.72131 3.66528V10.7693C2.72131 14.7344 5.93566 17.9487 9.90072 17.9487H10.406C10.9725 17.9487 11.4317 18.4079 11.4317 18.9744C11.4317 19.5408 10.9725 20 10.406 20H9.90072C4.80277 20 0.670044 15.8673 0.670044 10.7693V3.66528C0.670044 3.09884 1.12924 2.63965 1.69568 2.63965Z" fill="white"/>
<path fill-rule="evenodd" clip-rule="evenodd" d="M9.9082 1.02563C9.9082 0.459191 10.3674 0 10.9338 0H11.4392C16.5371 0 20.6698 4.13273 20.6698 9.23071V16.0708C20.6698 16.6372 20.2106 17.0964 19.6442 17.0964C19.0778 17.0964 18.6186 16.6372 18.6186 16.0708V9.23071C18.6186 5.2656 15.4042 2.05127 11.4392 2.05127H10.9338C10.3674 2.05127 9.9082 1.59207 9.9082 1.02563Z" fill="white"/>
<path d="M114.326 11.7184C114.326 11.9847 114.309 12.2251 114.275 12.4398H108.852C108.895 13.0066 109.105 13.4617 109.483 13.8052C109.861 14.1488 110.324 14.3205 110.874 14.3205C111.664 14.3205 112.222 13.9899 112.549 13.3286H114.133C113.918 13.9813 113.528 14.518 112.961 14.9388C112.403 15.351 111.707 15.5571 110.874 15.5571C110.196 15.5571 109.586 15.4069 109.045 15.1063C108.512 14.7971 108.092 14.3677 107.782 13.8181C107.482 13.2599 107.332 12.6159 107.332 11.8859C107.332 11.1559 107.478 10.5162 107.77 9.96655C108.07 9.40835 108.487 8.97896 109.019 8.67839C109.56 8.37782 110.178 8.22754 110.874 8.22754C111.544 8.22754 112.141 8.37353 112.664 8.66551C113.188 8.95749 113.596 9.3697 113.888 9.90214C114.18 10.426 114.326 11.0314 114.326 11.7184ZM112.793 11.2547C112.785 10.7137 112.592 10.28 112.214 9.95367C111.836 9.62733 111.368 9.46417 110.81 9.46417C110.303 9.46417 109.869 9.62733 109.509 9.95367C109.148 10.2714 108.933 10.7051 108.864 11.2547H112.793Z" fill="white"/>
<path d="M104.732 9.374C104.947 9.01331 105.23 8.73421 105.582 8.5367C105.943 8.33059 106.368 8.22754 106.858 8.22754V9.74756H106.484C105.909 9.74756 105.471 9.89355 105.17 10.1855C104.878 10.4775 104.732 10.9842 104.732 11.7056V15.4412H103.264V8.34347H104.732V9.374Z" fill="white"/>
<path d="M98.5144 15.5571C97.8446 15.5571 97.2391 15.4069 96.6981 15.1063C96.1571 14.7971 95.732 14.3677 95.4228 13.8181C95.1137 13.2599 94.9591 12.6159 94.9591 11.8859C94.9591 11.1645 95.118 10.5247 95.4357 9.96655C95.7535 9.40835 96.1871 8.97896 96.7368 8.67839C97.2864 8.37782 97.9004 8.22754 98.5788 8.22754C99.2572 8.22754 99.8713 8.37782 100.421 8.67839C100.97 8.97896 101.404 9.40835 101.722 9.96655C102.04 10.5247 102.199 11.1645 102.199 11.8859C102.199 12.6073 102.035 13.247 101.709 13.8052C101.383 14.3634 100.936 14.7971 100.369 15.1063C99.8112 15.4069 99.1928 15.5571 98.5144 15.5571ZM98.5144 14.2819C98.8923 14.2819 99.2444 14.1917 99.5707 14.0114C99.9056 13.831 100.176 13.5605 100.382 13.1998C100.588 12.8391 100.691 12.4012 100.691 11.8859C100.691 11.3706 100.593 10.937 100.395 10.5849C100.198 10.2242 99.9357 9.95367 99.6093 9.77332C99.283 9.59298 98.9309 9.50281 98.5531 9.50281C98.1752 9.50281 97.8231 9.59298 97.4968 9.77332C97.179 9.95367 96.9257 10.2242 96.7368 10.5849C96.5478 10.937 96.4534 11.3706 96.4534 11.8859C96.4534 12.6502 96.6466 13.2428 97.033 13.6636C97.4281 14.0758 97.9219 14.2819 98.5144 14.2819Z" fill="white"/>
<path d="M85.3695 10.9458C85.3695 10.0698 85.5713 9.28403 85.9749 8.58843C86.3871 7.89283 86.9411 7.3518 87.6367 6.96535C88.3408 6.57032 89.1094 6.3728 89.9425 6.3728C90.8957 6.3728 91.7416 6.60896 92.4801 7.08129C93.2272 7.54502 93.7683 8.20628 94.1032 9.06505H92.3384C92.1065 8.59272 91.7845 8.24063 91.3723 8.00876C90.9601 7.77689 90.4835 7.66096 89.9425 7.66096C89.3499 7.66096 88.8218 7.79407 88.358 8.06029C87.8943 8.3265 87.5293 8.70866 87.2631 9.20674C87.0055 9.70483 86.8766 10.2845 86.8766 10.9458C86.8766 11.607 87.0055 12.1867 87.2631 12.6848C87.5293 13.1828 87.8943 13.5693 88.358 13.8441C88.8218 14.1103 89.3499 14.2434 89.9425 14.2434C90.4835 14.2434 90.9601 14.1275 91.3723 13.8956C91.7845 13.6638 92.1065 13.3117 92.3384 12.8393H94.1032C93.7683 13.6981 93.2272 14.3594 92.4801 14.8231C91.7416 15.2868 90.8957 15.5187 89.9425 15.5187C89.1009 15.5187 88.3323 15.3255 87.6367 14.939C86.9411 14.544 86.3871 13.9987 85.9749 13.3031C85.5713 12.6075 85.3695 11.8217 85.3695 10.9458Z" fill="white"/>
<path d="M81.8406 11.7184C81.8406 11.9847 81.8234 12.2251 81.7891 12.4398H76.366C76.4089 13.0066 76.6193 13.4617 76.9972 13.8052C77.375 14.1488 77.8388 14.3205 78.3884 14.3205C79.1784 14.3205 79.7366 13.9899 80.063 13.3286H81.6474C81.4327 13.9813 81.042 14.518 80.4752 14.9388C79.917 15.351 79.2214 15.5571 78.3884 15.5571C77.7099 15.5571 77.1002 15.4069 76.5592 15.1063C76.0268 14.7971 75.606 14.3677 75.2968 13.8181C74.9962 13.2599 74.8459 12.6159 74.8459 11.8859C74.8459 11.1559 74.9919 10.5162 75.2839 9.96655C75.5845 9.40835 76.001 8.97896 76.5334 8.67839C77.0745 8.37782 77.6928 8.22754 78.3884 8.22754C79.0582 8.22754 79.6551 8.37353 80.1789 8.66551C80.7028 8.95749 81.1107 9.3697 81.4027 9.90214C81.6946 10.426 81.8406 11.0314 81.8406 11.7184ZM80.3077 11.2547C80.2991 10.7137 80.1059 10.28 79.728 9.95367C79.3502 9.62733 78.8822 9.46417 78.324 9.46417C77.8173 9.46417 77.3836 9.62733 77.0229 9.95367C76.6622 10.2714 76.4475 10.7051 76.3788 11.2547H80.3077Z" fill="white"/>
<path d="M69.8513 8.22754C70.4009 8.22754 70.8861 8.33918 71.3069 8.56246C71.7363 8.77715 72.0712 9.04766 72.3117 9.374V8.34347H73.793V15.5571C73.793 16.2098 73.6556 16.7895 73.3808 17.2961C73.106 17.8114 72.7067 18.215 72.1828 18.507C71.6676 18.799 71.0493 18.945 70.3279 18.945C69.3661 18.945 68.5674 18.7174 67.9319 18.2623C67.2964 17.8157 66.9358 17.206 66.8499 16.4331H68.3055C68.4171 16.8024 68.6533 17.0986 69.014 17.3219C69.3832 17.5538 69.8212 17.6697 70.3279 17.6697C70.9204 17.6697 71.3971 17.4894 71.7577 17.1287C72.127 16.768 72.3117 16.2442 72.3117 15.5571V14.372C72.0626 14.707 71.7234 14.9903 71.294 15.2222C70.8732 15.4455 70.3923 15.5571 69.8513 15.5571C69.233 15.5571 68.6662 15.4026 68.1509 15.0934C67.6442 14.7757 67.2406 14.3377 66.94 13.7795C66.6481 13.2127 66.5021 12.5729 66.5021 11.8601C66.5021 11.1474 66.6481 10.5162 66.94 9.96655C67.2406 9.41693 67.6442 8.99184 68.1509 8.69127C68.6662 8.38212 69.233 8.22754 69.8513 8.22754ZM72.3117 11.8859C72.3117 11.3964 72.2086 10.9713 72.0025 10.6106C71.805 10.2499 71.5431 9.97513 71.2167 9.78621C70.8904 9.59728 70.5383 9.50281 70.1604 9.50281C69.7826 9.50281 69.4305 9.59728 69.1041 9.78621C68.7778 9.96655 68.5116 10.2371 68.3055 10.5977C68.108 10.9498 68.0092 11.3706 68.0092 11.8601C68.0092 12.3496 68.108 12.779 68.3055 13.1483C68.5116 13.5176 68.7778 13.801 69.1041 13.9985C69.4391 14.1874 69.7912 14.2819 70.1604 14.2819C70.5383 14.2819 70.8904 14.1874 71.2167 13.9985C71.5431 13.8095 71.805 13.5347 72.0025 13.1741C72.2086 12.8048 72.3117 12.3754 72.3117 11.8859Z" fill="white"/>
<path d="M58.1583 11.8602C58.1583 11.1474 58.3043 10.5162 58.5963 9.96662C58.8969 9.41701 59.3005 8.99192 59.8072 8.69135C60.3224 8.38219 60.8935 8.22761 61.5204 8.22761C61.9841 8.22761 62.4393 8.33067 62.8859 8.53677C63.341 8.73429 63.7017 9.00051 63.9679 9.33543V5.90894H65.4493V15.4413H63.9679V14.3721C63.7274 14.7156 63.3925 14.999 62.9631 15.2223C62.5423 15.4456 62.0571 15.5572 61.5075 15.5572C60.8892 15.5572 60.3224 15.4026 59.8072 15.0935C59.3005 14.7757 58.8969 14.3378 58.5963 13.7796C58.3043 13.2128 58.1583 12.573 58.1583 11.8602ZM63.9679 11.886C63.9679 11.3965 63.8649 10.9714 63.6587 10.6107C63.4612 10.25 63.1993 9.97521 62.873 9.78628C62.5466 9.59735 62.1945 9.50289 61.8167 9.50289C61.4388 9.50289 61.0867 9.59735 60.7604 9.78628C60.4341 9.96662 60.1678 10.2371 59.9617 10.5978C59.7642 10.9499 59.6655 11.3707 59.6655 11.8602C59.6655 12.3497 59.7642 12.7791 59.9617 13.1484C60.1678 13.5176 60.4341 13.801 60.7604 13.9985C61.0953 14.1875 61.4474 14.2819 61.8167 14.2819C62.1945 14.2819 62.5466 14.1875 62.873 13.9985C63.1993 13.8096 63.4612 13.5348 63.6587 13.1741C63.8649 12.8049 63.9679 12.3755 63.9679 11.886Z" fill="white"/>
<path d="M56.3849 7.40341C56.1187 7.40341 55.8954 7.31324 55.7151 7.1329C55.5348 6.95256 55.4446 6.72928 55.4446 6.46306C55.4446 6.19684 55.5348 5.97356 55.7151 5.79322C55.8954 5.61288 56.1187 5.52271 56.3849 5.52271C56.6426 5.52271 56.8616 5.61288 57.0419 5.79322C57.2222 5.97356 57.3124 6.19684 57.3124 6.46306C57.3124 6.72928 57.2222 6.95256 57.0419 7.1329C56.8616 7.31324 56.6426 7.40341 56.3849 7.40341ZM57.1063 8.34376V15.4415H55.6378V8.34376H57.1063Z" fill="white"/>
<path d="M52.5489 9.374C52.7636 9.01331 53.047 8.73421 53.3991 8.5367C53.7598 8.33059 54.1849 8.22754 54.6744 8.22754V9.74756H54.3008C53.7255 9.74756 53.2875 9.89355 52.9869 10.1855C52.6949 10.4775 52.5489 10.9842 52.5489 11.7056V15.4412H51.0804V8.34347H52.5489V9.374Z" fill="white"/>
<path d="M44.2051 9.39983C44.4541 9.05633 44.7933 8.77723 45.2227 8.56253C45.6607 8.33925 46.1459 8.22761 46.6783 8.22761C47.3052 8.22761 47.872 8.3779 48.3787 8.67847C48.8854 8.97904 49.2847 9.40842 49.5767 9.96662C49.8687 10.5162 50.0146 11.1474 50.0146 11.8602C50.0146 12.573 49.8687 13.2128 49.5767 13.7796C49.2847 14.3378 48.8811 14.7757 48.3658 15.0935C47.8591 15.4026 47.2966 15.5572 46.6783 15.5572C46.1287 15.5572 45.6392 15.4499 45.2098 15.2352C44.789 15.0205 44.4541 14.7457 44.2051 14.4108V15.4413H42.7366V5.90894H44.2051V9.39983ZM48.5204 11.8602C48.5204 11.3707 48.4173 10.9499 48.2112 10.5978C48.0137 10.2371 47.7475 9.96662 47.4126 9.78628C47.0862 9.59735 46.7341 9.50289 46.3563 9.50289C45.987 9.50289 45.6349 9.59735 45.3 9.78628C44.9737 9.97521 44.7074 10.25 44.5013 10.6107C44.3038 10.9714 44.2051 11.3965 44.2051 11.886C44.2051 12.3755 44.3038 12.8049 44.5013 13.1741C44.7074 13.5348 44.9737 13.8096 45.3 13.9985C45.6349 14.1875 45.987 14.2819 46.3563 14.2819C46.7341 14.2819 47.0862 14.1875 47.4126 13.9985C47.7475 13.801 48.0137 13.5176 48.2112 13.1484C48.4173 12.7791 48.5204 12.3497 48.5204 11.8602Z" fill="white"/>
<path d="M41.1949 5.90894V15.4413H39.7264V5.90894H41.1949Z" fill="white"/>
<path d="M38.1849 5.90894V15.4413H36.7164V5.90894H38.1849Z" fill="white"/>
<path d="M33.5184 13.6122H29.7699L29.1258 15.4414H27.5929L30.8004 6.47583H32.5008L35.7083 15.4414H34.1625L33.5184 13.6122ZM33.1062 12.4142L31.6506 8.25348L30.1821 12.4142H33.1062Z" fill="white"/>
</svg>
