<svg width="83" height="22" viewBox="0 0 83 22" fill="none" xmlns="http://www.w3.org/2000/svg">
<path d="M19.8479 5.73267L19.3897 4.92802C19.3538 4.86496 19.3037 4.81105 19.2435 4.77051C19.1833 4.72997 19.1146 4.70389 19.0426 4.69431C18.9707 4.68473 18.8975 4.6919 18.8288 4.71527C18.76 4.73865 18.6977 4.77758 18.6465 4.82904L17.5925 5.88206C17.5155 5.9595 17.4675 6.06119 17.4569 6.16991C17.4462 6.27863 17.4734 6.38771 17.5339 6.47867C17.9182 7.06592 18.2261 7.69971 18.4503 8.36474C18.8692 9.60795 18.9862 10.933 18.7916 12.2304C18.597 13.5277 18.0964 14.7601 17.3312 15.8257C16.5661 16.8913 15.5583 17.7595 14.3911 18.3585C13.224 18.9576 11.9311 19.2702 10.6192 19.2706C9.2687 19.2743 7.93823 18.9441 6.74624 18.3092L8.52875 16.5258C9.6333 16.9436 10.8378 17.0205 11.9865 16.7465C13.1351 16.4725 14.1753 15.8603 14.9724 14.989C15.7695 14.1177 16.2869 13.0273 16.4578 11.8589C16.6287 10.6904 16.4452 9.49749 15.931 8.4344C15.8983 8.36632 15.8499 8.30707 15.7896 8.26162C15.7293 8.21617 15.659 8.18584 15.5846 8.17318C15.5101 8.16053 15.4338 8.1659 15.3618 8.18887C15.2899 8.21184 15.2246 8.25172 15.1712 8.30518L14.1045 9.3646C14.0476 9.4214 14.0062 9.49181 13.9842 9.56913C13.9623 9.64645 13.9604 9.72811 13.9789 9.80634L14.0706 10.1894C14.2283 10.8605 14.1866 11.563 13.9508 12.2107C13.7149 12.8584 13.2951 13.4232 12.7428 13.8357C12.1906 14.2482 11.5299 14.4905 10.8419 14.5329C10.1538 14.5753 9.4684 14.4159 8.86967 14.0743L8.39953 13.8048C8.30968 13.7531 8.20526 13.7325 8.10249 13.7463C7.99973 13.76 7.90439 13.8074 7.83132 13.8809L3.47722 18.2341C3.4297 18.2816 3.39287 18.3388 3.3692 18.4017C3.34554 18.4646 3.33559 18.5318 3.34001 18.5989C3.34444 18.666 3.36314 18.7313 3.39486 18.7906C3.42659 18.8498 3.4706 18.9016 3.52396 18.9425L4.16549 19.4347C6.01554 20.8604 8.28721 21.6303 10.6229 21.6232C12.4824 21.6208 14.3087 21.1307 15.9196 20.2018C17.5305 19.273 18.8696 17.9378 19.8032 16.3297C20.7368 14.7215 21.2322 12.8966 21.2401 11.0372C21.2479 9.17768 20.7679 7.34865 19.8479 5.73267Z" fill="white"/>
<path d="M17.08 2.56618C15.2302 1.13997 12.9585 0.369714 10.6227 0.376757C8.76226 0.378203 6.93482 0.867837 5.32291 1.79673C3.711 2.72563 2.37108 4.06127 1.43703 5.67019C0.50297 7.27912 0.00748772 9.10499 8.42026e-05 10.9654C-0.00731932 12.8258 0.473615 14.6555 1.39484 16.2718L1.85307 17.0756C1.88915 17.1386 1.93926 17.1924 1.99951 17.2329C2.05976 17.2734 2.12853 17.2995 2.20049 17.3092C2.27245 17.3189 2.34567 17.3118 2.41447 17.2886C2.48327 17.2654 2.5458 17.2267 2.59723 17.1755L3.64933 16.1234C3.72585 16.0458 3.77343 15.9443 3.78411 15.8359C3.79478 15.7275 3.76791 15.6187 3.70798 15.5277C3.32333 14.9406 3.01534 14.3068 2.79152 13.6416C2.37265 12.3984 2.25568 11.0733 2.45028 9.77598C2.64487 8.47862 3.14545 7.24621 3.91062 6.1806C4.6758 5.115 5.6836 4.24681 6.85073 3.64779C8.01786 3.04878 9.31079 2.73614 10.6227 2.73572C11.9731 2.73267 13.3034 3.06389 14.4947 3.69984L12.7113 5.48235C11.8179 5.14375 10.8556 5.02714 9.90723 5.14252C8.95882 5.25791 8.05261 5.60185 7.26646 6.14478C6.48032 6.68772 5.83776 7.41341 5.394 8.2595C4.95024 9.1056 4.71855 10.0468 4.71883 11.0022C4.71883 11.1002 4.74541 11.5475 4.75366 11.6245C4.82593 12.3013 5.0141 12.9607 5.30995 13.5738C5.34271 13.6419 5.3913 13.7011 5.45167 13.7465C5.51203 13.792 5.5824 13.8223 5.65689 13.835C5.73138 13.8476 5.80781 13.8422 5.87979 13.8193C5.95177 13.7963 6.01721 13.7564 6.07061 13.703L7.13737 12.6353C7.19419 12.5787 7.23562 12.5084 7.25775 12.4313C7.27988 12.3542 7.28197 12.2727 7.26384 12.1945L7.1722 11.8105C7.01429 11.1394 7.05579 10.4369 7.29162 9.78906C7.52744 9.14126 7.94732 8.57643 8.49968 8.16393C9.05205 7.75143 9.71286 7.50923 10.401 7.46706C11.0891 7.42489 11.7745 7.58459 12.3731 7.92655L12.8432 8.19599C12.9332 8.24728 13.0375 8.26761 13.1402 8.25387C13.2428 8.24013 13.3381 8.19307 13.4115 8.11992L17.7646 3.76674C17.8122 3.71919 17.8491 3.66203 17.8729 3.59908C17.8966 3.53613 17.9067 3.46884 17.9023 3.4017C17.898 3.33455 17.8794 3.26911 17.8477 3.20974C17.8161 3.15037 17.7721 3.09843 17.7188 3.0574L17.08 2.56618Z" fill="white"/>
<path d="M34.9759 13.932C34.8965 13.8676 34.7967 13.8335 34.6945 13.8358C34.5922 13.8382 34.4941 13.8768 34.4178 13.9449C33.735 14.4746 32.9432 14.9649 31.7857 14.9649C29.6669 14.9649 27.943 13.1806 27.943 10.9856C27.943 8.79071 29.6604 6.99078 31.7701 6.99078C32.6866 6.99078 33.6764 7.37661 34.404 8.01539C34.445 8.06296 34.496 8.10093 34.5534 8.12659C34.6107 8.15224 34.673 8.16497 34.7358 8.16385C34.7902 8.15953 34.843 8.14334 34.8905 8.11643C34.938 8.08951 34.9791 8.05252 35.0107 8.00805L35.6999 7.29871C35.7438 7.25627 35.7784 7.20521 35.8016 7.14875C35.8247 7.09229 35.836 7.03164 35.8346 6.97062C35.832 6.90862 35.8167 6.84781 35.7896 6.792C35.7625 6.73618 35.7241 6.68655 35.677 6.64619C34.4737 5.59776 33.2649 5.13037 31.7536 5.13037C28.5277 5.13037 25.903 7.77161 25.903 11.0177C25.9042 12.5695 26.5208 14.0574 27.6176 15.155C28.7145 16.2527 30.2019 16.8705 31.7536 16.873C32.4826 16.8816 33.2061 16.7459 33.8824 16.4738C34.5587 16.2017 35.1745 15.7986 35.6944 15.2875C35.74 15.241 35.7759 15.1858 35.7998 15.1252C35.8237 15.0646 35.8352 14.9998 35.8337 14.9347C35.8325 14.8828 35.8208 14.8317 35.7994 14.7845C35.778 14.7373 35.7473 14.6948 35.7091 14.6597L34.9759 13.932Z" fill="white"/>
<path d="M39.9911 5.29004H38.9473C38.8308 5.29395 38.7202 5.34209 38.638 5.42466C38.5558 5.50724 38.5081 5.61804 38.5046 5.73452V16.2738C38.5078 16.3905 38.5554 16.5015 38.6377 16.5842C38.7199 16.667 38.8307 16.7153 38.9473 16.7192H39.9911C40.1078 16.7153 40.2185 16.667 40.3007 16.5842C40.383 16.5015 40.4306 16.3905 40.4338 16.2738V5.73452C40.4304 5.61804 40.3827 5.50724 40.3004 5.42466C40.2182 5.34209 40.1076 5.29395 39.9911 5.29004Z" fill="white"/>
<path d="M52.3461 8.83765C52.3461 6.88193 50.7358 5.29004 48.7563 5.29004H44.4517C44.3341 5.29052 44.2215 5.33757 44.1386 5.42087C44.0556 5.50418 44.009 5.61695 44.009 5.73452V16.2738C44.0088 16.3915 44.0553 16.5045 44.1382 16.588C44.2212 16.6716 44.334 16.7187 44.4517 16.7192H45.48C45.5966 16.7153 45.7073 16.667 45.7896 16.5842C45.8718 16.5015 45.9194 16.3905 45.9226 16.2738V12.3541H48.0799L50.1466 16.4919C50.1842 16.5597 50.2393 16.6162 50.3062 16.6553C50.3731 16.6945 50.4494 16.715 50.5269 16.7146H51.7604C51.8384 16.7172 51.9156 16.6992 51.9843 16.6623C52.053 16.6255 52.1108 16.5711 52.1518 16.5048C52.1908 16.4347 52.2112 16.3558 52.2112 16.2756C52.2112 16.1955 52.1908 16.1166 52.1518 16.0465L50.0549 12.1387C51.4718 11.5091 52.3461 10.2572 52.3461 8.83765ZM50.4169 8.86973C50.4169 9.86226 49.5985 10.7026 48.6298 10.7026H45.9547V7.11838H48.6262C49.5967 7.11838 50.4132 7.92028 50.4132 8.86973H50.4169Z" fill="white"/>
<path d="M63.5795 13.932C63.5001 13.8676 63.4004 13.8335 63.2981 13.8358C63.1959 13.8382 63.0978 13.8768 63.0214 13.9449C62.3386 14.4746 61.5468 14.9649 60.3893 14.9649C58.2705 14.9649 56.5466 13.1806 56.5466 10.9856C56.5466 8.79071 58.2631 6.99078 60.3728 6.99078C61.2893 6.99078 62.2791 7.37661 63.0077 8.01539C63.0489 8.06342 63.1003 8.10167 63.1582 8.12736C63.216 8.15304 63.2789 8.1655 63.3422 8.16385C63.3966 8.15953 63.4494 8.14334 63.4969 8.11643C63.5444 8.08951 63.5854 8.05252 63.6171 8.00805L64.3063 7.29871C64.35 7.25622 64.3845 7.20514 64.4075 7.14867C64.4306 7.09221 64.4416 7.03158 64.4401 6.97062C64.4379 6.90863 64.4228 6.84778 64.3958 6.79193C64.3689 6.73608 64.3306 6.68645 64.2834 6.64619C63.0828 5.59776 61.874 5.13037 60.3628 5.13037C57.1368 5.13037 54.5121 7.77161 54.5121 11.0177C54.5133 12.5695 55.1299 14.0574 56.2268 15.155C57.3236 16.2527 58.811 16.8705 60.3628 16.873C61.0917 16.8815 61.8151 16.7458 62.4915 16.4737C63.1678 16.2016 63.7836 15.7985 64.3035 15.2875C64.3492 15.2408 64.3851 15.1855 64.409 15.1247C64.4329 15.064 64.4444 14.999 64.4428 14.9337C64.4417 14.8819 64.43 14.8308 64.4086 14.7835C64.3872 14.7363 64.3564 14.6939 64.3182 14.6588L63.5795 13.932Z" fill="white"/>
<path d="M73.1795 14.9495H69.0371V5.73452C69.0336 5.61804 68.9859 5.50724 68.9037 5.42466C68.8215 5.34209 68.7109 5.29395 68.5944 5.29004H67.5506C67.433 5.29052 67.3204 5.33757 67.2374 5.42087C67.1545 5.50418 67.1079 5.61695 67.1079 5.73452V16.2738C67.1077 16.3915 67.1541 16.5045 67.2371 16.588C67.3201 16.6716 67.4328 16.7187 67.5506 16.7192H73.1795C73.2378 16.7191 73.2956 16.7075 73.3495 16.685C73.4034 16.6626 73.4523 16.6297 73.4935 16.5884C73.5347 16.547 73.5673 16.4979 73.5895 16.444C73.6118 16.39 73.6231 16.3322 73.623 16.2738V15.3986C73.6236 15.3399 73.6126 15.2817 73.5906 15.2273C73.5686 15.1729 73.536 15.1234 73.4948 15.0816C73.4536 15.0399 73.4045 15.0067 73.3503 14.9841C73.2962 14.9614 73.2381 14.9496 73.1795 14.9495Z" fill="white"/>
<path d="M82.5574 7.07341C82.6749 7.07292 82.7875 7.02588 82.8705 6.94257C82.9534 6.85927 83 6.74649 83 6.62892V5.73721C83 5.61964 82.9534 5.50686 82.8705 5.42356C82.7875 5.34025 82.6749 5.29321 82.5574 5.29272H76.2338C76.1162 5.29321 76.0036 5.34025 75.9207 5.42356C75.8377 5.50686 75.7911 5.61964 75.7911 5.73721V16.2765C75.7909 16.3942 75.8374 16.5072 75.9204 16.5907C76.0033 16.6742 76.1161 16.7214 76.2338 16.7219H82.5574C82.6751 16.7214 82.7878 16.6742 82.8708 16.5907C82.9538 16.5072 83.0002 16.3942 83 16.2765V15.4013C83 15.2837 82.9534 15.1709 82.8705 15.0876C82.7875 15.0043 82.6749 14.9573 82.5574 14.9568H77.7001V11.8124H81.7793C81.897 11.8122 82.0098 11.7652 82.093 11.6819C82.1761 11.5986 82.2229 11.4857 82.2229 11.3679V10.4771C82.2196 10.3603 82.1719 10.2492 82.0895 10.1664C82.007 10.0836 81.8961 10.0354 81.7793 10.0317H77.7029V7.07341H82.5574Z" fill="white"/>
</svg>
