<svg width="88" height="20" viewBox="0 0 88 20" fill="none" xmlns="http://www.w3.org/2000/svg">
<path d="M71.3849 17.0689C71.3849 17.2046 71.303 17.3269 71.1792 17.3745C70.8947 17.484 70.617 17.5525 70.3064 17.5525C68.5864 17.5525 67.8419 15.7894 67.8419 12.2632C67.8419 8.99989 68.7917 7.342 70.1268 7.342C70.4993 7.342 70.8903 7.43784 71.2204 7.62951C71.3214 7.68816 71.3849 7.7973 71.3849 7.91622V17.0689ZM58.1392 19.0525C56.034 19.0525 51.5925 11.1315 51.5925 8.55254C51.5925 7.73676 51.9775 7.26308 52.6193 7.26308C54.8788 7.26308 59.1916 15.4999 59.1916 17.7105C59.1916 18.6052 58.8324 19.0525 58.1392 19.0525ZM24.4077 7.71054C25.5116 7.71054 27.4446 9.25162 27.4444 12.3423C27.4443 13.5959 26.6581 14.4382 25.3997 13.4479C24.247 12.5408 23.355 10.6537 23.355 9.26308C23.355 8.28946 23.7401 7.71054 24.4077 7.71054ZM9.34196 19.579H9.24916C9.0736 19.579 8.93122 19.4331 8.93122 19.2531V1.79949C8.93122 1.61958 9.0736 1.47368 9.24916 1.47368H9.57307C12.9363 1.47368 14.8362 4.55261 14.8362 10.3157C14.8362 16.1578 12.6539 19.579 9.34196 19.579ZM85.3022 11.6579L83.377 10.6052C81.8618 9.7894 81.4513 9.13151 81.4513 8.21043C81.4513 7.47357 82.0162 6.81568 83.1456 6.81568C83.2381 6.81568 83.3575 6.8294 83.4651 6.85681C83.5382 6.87535 83.6006 6.92211 83.6441 6.98508L85.4366 9.5987C85.8643 10.2218 86.8542 10.0525 87.0349 9.32546L87.4186 7.77973C87.4582 7.61432 87.4911 7.424 87.5168 7.23654C87.5848 6.75005 87.1989 6.31573 86.6914 6.31573H83.3251C79.9109 6.31573 77.8057 8.05254 77.8057 10.7105C77.8057 12.7105 78.8324 13.9474 80.9633 15.1051L82.6581 16.0263C83.7362 16.6052 84.1979 17.0525 84.1979 17.8421C84.1979 18.921 83.4283 19.5262 82.2984 19.5262C82.0235 19.5262 81.8506 19.5053 81.5606 19.4258C81.4903 19.4065 81.4284 19.3633 81.386 19.3055L79.2685 16.3999C78.8954 15.8877 78.0689 16.0624 77.9507 16.6785L77.5 19.0237C77.4939 19.0594 77.49 19.125 77.4878 19.206C77.4844 19.3414 77.5207 19.4671 77.5815 19.579H76.8375C76.6618 19.579 76.5196 19.4331 76.5196 19.2531V0.960324C76.5196 0.735822 76.3032 0.578632 76.0963 0.652816L74.7651 0.64773C74.7021 0.639762 74.6385 0.634254 74.5733 0.634254H69.4832C69.2824 0.634254 69.1196 0.791692 69.1196 0.986011V1.70411C69.1196 2.68351 69.9405 3.47758 70.9533 3.47758H70.9845C71.1658 3.47758 71.3158 3.60729 71.3448 3.78042C71.3671 3.91445 71.3849 3.77244 71.3849 3.80738V6.70519C71.3849 6.95513 71.1228 7.10995 70.9104 6.98789C70.2183 6.59065 69.4035 6.31573 68.3037 6.31573C65.2459 6.31573 63.0039 8.64368 62.4702 12.1223C62.0336 8.54605 59.1369 6.31573 55.238 6.31573C51.3871 6.31573 48.6469 8.85686 48.234 12.1948V11.1681C48.234 10.9881 48.0916 10.8422 47.916 10.8422H41.419C41.1207 10.8422 40.9866 11.2255 41.2171 11.4197L42.7265 12.6918C42.7999 12.7537 42.8425 12.8461 42.8425 12.9435V17.4709C42.8425 18.2673 41.9069 18.6732 41.3508 18.117C37.6654 14.4315 34.935 8.64832 34.935 4.55269C34.935 2.23688 35.9362 1.15786 37.1942 1.15786C38.0341 1.15786 39.4729 2.48436 40.8898 4.0657C42.7341 6.12422 46.0652 5.29733 46.7688 2.5972L46.9607 1.86104C46.9996 1.71199 46.932 1.55396 46.7973 1.48529C44.9768 0.557016 42.8859 0 40.2751 0C34.5721 0 31.1219 3.84739 30.7361 8.82C30.4971 8.41227 30.182 8.04908 29.8056 7.73389C29.0198 6.93546 27.8681 6.39449 26.5633 6.39449C23.6426 6.39449 21.6452 8.20449 20.7339 10.6313C20.7368 10.5176 20.7412 10.405 20.7412 10.2895C20.7412 4.28944 16.8131 1.05265 10.0609 1.05265H1.31594C1.14034 1.05265 0.998047 1.19856 0.998047 1.37855V2.43663C0.998047 3.42255 1.82452 4.22188 2.84405 4.22188H2.907C3.11469 4.22188 3.28293 4.38457 3.28293 4.58542V16.9077C3.28293 17.1084 3.11469 17.2712 2.907 17.2712C1.98032 17.2712 1.22906 17.9977 1.22906 18.8939V19.7895C1.22906 19.9057 1.32094 20 1.43439 20H9.7271C15.0543 20 18.8098 17.8531 20.1741 13.9065C20.2015 15.6761 21.0183 17.235 22.0101 18.2899C22.0113 18.2886 22.0127 18.2872 22.0139 18.2858C22.9468 19.367 24.5231 20 26.579 20H29.9448C30.4525 20 30.8386 19.5657 30.7707 19.0791C30.7445 18.8917 30.712 18.7014 30.6722 18.5359L30.2885 16.9903C30.108 16.2632 29.1178 16.0938 28.6905 16.717L26.8978 19.3305C26.8546 19.3936 26.7915 19.4404 26.7186 19.4589C26.6112 19.4863 26.4919 19.4999 26.3994 19.4999C25.2697 19.4999 24.7049 18.8422 24.7049 18.1053C24.7049 17.1842 25.1156 16.5263 26.6304 15.7105L28.5559 14.6578C29.746 14.0038 30.5517 13.1946 30.9537 12.2398C31.9239 16.8185 35.6353 20 41.1994 20C43.8867 20 46.2794 19.1438 48.1126 17.6777C48.1897 17.6159 48.234 17.5204 48.234 17.4201V13.9885C48.681 17.6956 51.8391 20 55.2638 20C59.4531 20 61.8038 17.7284 62.3849 14.6535C62.6526 18.1323 64.4986 20 66.9178 20C68.2401 20 69.621 19.2979 70.8557 18.1742C71.0609 17.9874 71.3849 18.1352 71.3849 18.4165V19.6741C71.3849 19.8541 71.5272 20 71.7028 20H77.5976C77.6975 20 77.7767 19.9256 77.7956 19.829C77.9334 19.9344 78.1057 20 78.2953 20H82.1445C85.3022 20 87.998 18.3158 87.998 15.5789C87.998 13.9474 87.074 12.6315 85.3022 11.6579Z" fill="#FAFAFA"/>
</svg>
