<svg width="108" height="28" viewBox="0 0 108 28" fill="none" xmlns="http://www.w3.org/2000/svg">
<path d="M9.22147 0.594727L0.998047 14.2476L9.22147 10.5124V0.594727Z" fill="white"/>
<path d="M9.22147 10.5125L0.998047 14.2477L9.22147 19.1124V10.5125Z" fill="white" fill-opacity="0.55"/>
<path d="M17.456 14.2476L9.22266 0.594727V10.5124L17.456 14.2476Z" fill="white" fill-opacity="0.55"/>
<path d="M9.22266 19.1124L17.456 14.2477L9.22266 10.5125V19.1124Z" fill="white" fill-opacity="0.7"/>
<path d="M0.998047 15.813L9.22147 27.4051V20.6678L0.998047 15.813Z" fill="white"/>
<path d="M9.22266 20.6678V27.4051L17.456 15.813L9.22266 20.6678Z" fill="white" fill-opacity="0.55"/>
<path d="M31.205 16.0903C31.205 16.2786 31.0366 16.447 30.8483 16.447H24.2696C24.438 18.0124 25.6567 19.5382 27.3806 19.5382C28.5596 19.5382 29.4315 19.0825 30.0953 18.1313C30.1647 18.0323 30.2638 17.9629 30.3826 17.9629C30.5709 17.9629 30.7096 18.1016 30.7096 18.2898C30.7096 18.3592 30.6898 18.4087 30.6601 18.4583C29.9963 19.6175 28.6785 20.1822 27.3806 20.1822C25.1613 20.1822 23.5859 18.2007 23.5859 16.0804C23.5859 13.9602 25.1613 11.9885 27.3806 11.9885C29.5999 11.9885 31.205 13.9701 31.205 16.0903ZM30.4916 15.7733C30.3529 14.0989 29.1045 12.6623 27.3806 12.6623C25.6567 12.6623 24.4281 14.0989 24.2696 15.7733H30.4916Z" fill="white"/>
<path d="M39.1987 12.0977C39.387 12.0977 39.5257 12.2661 39.5257 12.4345C39.5257 12.6228 39.387 12.7714 39.1987 12.7714H37.4351V19.7266C37.4351 19.8951 37.2865 20.0536 37.0983 20.0536C36.91 20.0536 36.7614 19.8852 36.7614 19.7266V12.7714H35.0672C34.8789 12.7714 34.7402 12.6228 34.7402 12.4345C34.7402 12.2661 34.8789 12.0977 35.0672 12.0977H36.7614V9.5811C36.7614 9.39286 36.91 9.25415 37.0983 9.25415C37.2865 9.25415 37.4351 9.39286 37.4351 9.5811V12.0977H39.1987Z" fill="white"/>
<path d="M49.9212 15.4761V19.677C49.9212 19.8653 49.8122 20.004 49.6438 20.004C49.4555 20.004 49.3663 19.8653 49.3663 19.677V15.4761C49.3663 14.0593 48.544 12.6425 46.9588 12.6425C44.9277 12.6425 44.0261 14.416 44.1351 16.2291C44.1351 16.2787 44.1251 16.4867 44.1251 16.5165V19.677C44.1251 19.8653 44.036 20.004 43.8477 20.004C43.6595 20.004 43.5703 19.8653 43.5703 19.677V5.87554C43.5703 5.70711 43.6595 5.54858 43.8477 5.54858C44.036 5.54858 44.1251 5.71701 44.1251 5.87554V13.6828C44.7989 12.6723 45.7005 11.9886 46.8795 11.9886C48.8115 11.9886 49.9212 13.6828 49.9212 15.4761Z" fill="white"/>
<path d="M61.7909 16.0903C61.7909 16.2786 61.6225 16.447 61.4343 16.447H54.8555C55.0239 18.0124 56.2426 19.5382 57.9665 19.5382C59.1456 19.5382 60.0174 19.0825 60.6813 18.1313C60.7506 18.0323 60.8497 17.9629 60.9686 17.9629C61.1568 17.9629 61.2955 18.1016 61.2955 18.2898C61.2955 18.3592 61.2757 18.4087 61.246 18.4583C60.5822 19.6175 59.2645 20.1822 57.9665 20.1822C55.7472 20.1822 54.1719 18.2007 54.1719 16.0804C54.1719 13.9602 55.7472 11.9885 57.9665 11.9885C60.1859 11.9885 61.7909 13.9701 61.7909 16.0903ZM61.0875 15.7733C60.9488 14.0989 59.7004 12.6623 57.9764 12.6623C56.2525 12.6623 55.0239 14.0989 54.8654 15.7733H61.0875Z" fill="white"/>
<path d="M69.8847 12.4343C69.8847 12.6424 69.7658 12.7613 69.5676 12.791C67.6356 13.0783 66.7538 14.6537 66.7538 16.4965V19.6472C66.7538 19.8354 66.6052 19.9741 66.4169 19.9741C66.2287 19.9741 66.0801 19.8354 66.0801 19.6472V12.4542C66.0801 12.2659 66.2287 12.1272 66.4169 12.1272C66.6052 12.1272 66.7538 12.2659 66.7538 12.4542V13.9205C67.3086 12.9991 68.3886 12.1272 69.5181 12.1272C69.6865 12.1272 69.8847 12.2461 69.8847 12.4343Z" fill="white"/>
<path d="M80.705 16.0904C80.705 16.2786 80.5366 16.447 80.3483 16.447H73.7696C73.938 18.0125 75.1567 19.5383 76.8806 19.5383C78.0596 19.5383 78.9315 19.0825 79.5953 18.1314C79.6647 18.0323 79.7638 17.9629 79.8826 17.9629C80.0709 17.9629 80.2096 18.1016 80.2096 18.2899C80.2096 18.3592 80.1898 18.4088 80.1601 18.4583C79.4963 19.6175 78.1785 20.1823 76.8806 20.1823C74.6613 20.1823 73.0859 18.2007 73.0859 16.0805C73.0859 13.9602 74.6613 11.9886 76.8806 11.9886C79.0999 11.9787 80.705 13.9701 80.705 16.0904ZM80.0015 15.7733C79.8628 14.0989 78.6145 12.6623 76.8905 12.6623C75.1666 12.6623 73.938 14.0989 73.7795 15.7733H80.0015Z" fill="white"/>
<path d="M91.3955 12.5038V14.7925V19.7167C91.3955 19.9049 91.2271 20.0436 91.0587 20.0436C90.8704 20.0436 90.7218 19.9049 90.7218 19.7167V18.3593C90.167 19.4392 89.2059 20.2219 87.9774 20.2219C86.0156 20.2219 84.9258 18.5277 84.9258 16.7344V12.5137C84.9258 12.3453 85.0744 12.1868 85.2626 12.1868C85.4509 12.1868 85.5995 12.3552 85.5995 12.5137V16.7344C85.5995 18.1512 86.402 19.568 87.9873 19.568C90.2066 19.568 90.7317 17.4973 90.7317 15.2086V12.5236C90.7317 12.3552 90.8803 12.1967 91.0686 12.1967C91.2271 12.1769 91.3955 12.3453 91.3955 12.5038Z" fill="white"/>
<path d="M108 15.4562V19.6769C108 19.8652 107.832 20.0039 107.663 20.0039C107.475 20.0039 107.327 19.8652 107.327 19.6769V15.4562C107.327 14.0394 106.524 12.6523 104.939 12.6523C102.957 12.6523 102.194 14.7726 102.194 16.4272V19.6769C102.194 19.8652 102.026 20.0039 101.858 20.0039C101.669 20.0039 101.521 19.8652 101.521 19.6769V15.4562C101.521 14.0394 100.738 12.6523 99.1626 12.6523C97.1612 12.6523 96.329 14.2277 96.3983 16.3281V16.4965V19.6769C96.3983 19.8652 96.2497 20.0039 96.0615 20.0039C95.8732 20.0039 95.7246 19.8652 95.7246 19.6769V12.4641C95.7246 12.2758 95.8732 12.1371 96.0615 12.1371C96.2497 12.1371 96.3983 12.2758 96.3983 12.4641V13.6629C96.9532 12.6523 97.9935 11.9885 99.1725 11.9885C100.52 11.9885 101.56 12.8406 101.986 14.089C102.531 12.8604 103.591 11.9885 104.959 11.9885C106.901 11.9885 108 13.6629 108 15.4562Z" fill="white"/>
</svg>
