<svg width="75" height="32" viewBox="0 0 75 32" fill="none" xmlns="http://www.w3.org/2000/svg">
<g clip-path="url(#clip0_16458_6619)">
<path d="M15.5 31.5C13.4079 31.5 11.3781 31.0899 9.46645 30.2817C7.62041 29.5008 5.96356 28.3832 4.53965 26.9603C3.11684 25.5375 1.99915 23.8796 1.2183 22.0336C0.410111 20.1219 0 18.0921 0 16C0 13.9079 0.410111 11.8781 1.2183 9.96645C1.99915 8.12041 3.11684 6.46356 4.53965 5.03965C5.96356 3.61684 7.62041 2.49915 9.46645 1.7183C11.3781 0.910111 13.4079 0.5 15.5 0.5C17.5921 0.5 19.6219 0.910111 21.5336 1.7183C23.3796 2.49915 25.0364 3.61684 26.4603 5.03965C27.8832 6.46246 29.0008 8.12041 29.7817 9.96645C30.5899 11.8781 31 13.9079 31 16C31 18.0921 30.5899 20.1219 29.7817 22.0336C29.0008 23.8796 27.8832 25.5364 26.4603 26.9603C25.0375 28.3832 23.3796 29.5008 21.5336 30.2817C19.6219 31.091 17.5921 31.5 15.5 31.5Z" fill="white"/>
<path d="M15.501 30.6787C23.6078 30.6787 30.1796 24.1068 30.1796 16C30.1796 7.89316 23.6078 1.32129 15.501 1.32129C7.39414 1.32129 0.822266 7.89316 0.822266 16C0.822266 24.1068 7.39414 30.6787 15.501 30.6787Z" fill="#1F1733"/>
<path d="M23.2311 15.9999C23.2311 14.4273 22.7587 12.964 21.9494 11.7413L24.3499 9.3408L22.1911 7.18198L19.7971 9.57593C18.5679 8.75024 17.0893 8.26795 15.5003 8.26795C13.9276 8.26795 12.4644 8.7404 11.2417 9.54969L8.84007 7.14917L6.68125 9.30799L9.0752 11.7019C8.24951 12.9312 7.76722 14.4098 7.76722 15.9988C7.76722 17.5715 8.23967 19.0347 9.04895 20.2574L6.64844 22.659L8.80726 24.8178L11.2012 22.4239C12.4305 23.2496 13.909 23.7319 15.4981 23.7319C17.0707 23.7319 18.534 23.2594 19.7567 22.4501L22.1583 24.8517L24.3171 22.6929L21.9232 20.299C22.7488 19.0675 23.2311 17.5889 23.2311 15.9999ZM10.8217 15.9999C10.8217 13.42 12.9204 11.3214 15.5003 11.3214C18.0801 11.3214 20.1788 13.42 20.1788 15.9999C20.1788 18.5798 18.0801 20.6785 15.5003 20.6785C12.9204 20.6785 10.8217 18.5798 10.8217 15.9999Z" fill="white"/>
</g>
<path d="M40.5861 8.938H48.4979V9.90832H41.6684V14.9838H47.6023V15.9542H41.6684V22H40.5861V8.938ZM50.169 12.7073H51.1953V14.4427L52.9494 12.7073H55.2446V13.6403H53.2479L51.214 15.6556V22H50.169V12.7073ZM56.4493 20.5632V18.1187L57.8861 16.7192H62.9243V14.648L61.898 13.6217H58.6138L57.5689 14.648V15.4877H56.5239V14.3307L58.1473 12.7073H62.3458L63.9693 14.3307V22H62.943V20.19L61.077 22H57.8861L56.4493 20.5632ZM60.8344 21.067L62.9243 19.0144V17.6522H58.3153L57.4942 18.4359V20.2646L58.3153 21.067H60.8344ZM72.4634 22L69.6644 18.0814L66.8467 22H65.6525L69.0672 17.279L65.7458 12.7073H66.94L69.6644 16.4766L72.3701 12.7073H73.5643L70.2615 17.3163L73.6576 22H72.4634Z" fill="white"/>
<defs>
<clipPath id="clip0_16458_6619">
<rect width="31" height="31" fill="white" transform="translate(0 0.5)"/>
</clipPath>
</defs>
</svg>
