<svg width="105" height="10" viewBox="0 0 105 10" fill="none" xmlns="http://www.w3.org/2000/svg">
<mask id="mask0_1624_1498" style="mask-type:luminance" maskUnits="userSpaceOnUse" x="0" y="0" width="105" height="10">
<path d="M104.499 0H0.498535V10H104.499V0Z" fill="white"/>
</mask>
<g mask="url(#mask0_1624_1498)">
<path d="M20.6355 0.148193L15.4795 9.85175H17.7142L18.9106 7.59588H24.6914L25.8741 9.85175H28.1387L22.9849 0.148193H20.6355ZM21.8021 2.10766L23.7957 5.90451H19.7949L21.8021 2.10766Z" fill="white"/>
<path d="M28.3979 7.74412C29.3947 9.10858 31.8154 10 34.2499 10C37.1414 10 39.376 8.932 39.376 6.81125C39.376 4.71665 37.3251 4.35266 34.4198 4.04098C31.8292 3.75763 31.1448 3.59416 31.1448 2.89232C31.1448 2.24281 31.9715 1.68919 33.7928 1.68919C35.5291 1.68919 36.9829 2.24281 37.766 3.20183L39.1624 1.93112C38.2391 0.769398 36.1882 0 33.9099 0C31.0046 0 29.1122 1.25762 29.1122 3.09503C29.1122 5.01307 31.0345 5.45989 33.5402 5.73017C36.4156 6.02659 37.2562 6.10942 37.2562 7.02703C37.2562 7.81168 36.0458 8.29773 34.3371 8.29773C32.8282 8.29773 30.9771 7.83784 29.8081 6.35135L28.3979 7.74412Z" fill="white"/>
<path d="M49.8673 0.148193V4.01262H43.3036V0.148193H41.2113V9.85175H43.3036V5.73015H49.8673V9.85175H51.9757V0.148193H49.8673Z" fill="white"/>
<path d="M55.7605 9.85175V6.00041H62.6229V4.28507H55.7605V1.86572H63.436V0.148193H53.6958V9.85175H55.7605Z" fill="white"/>
<path d="M65.3436 9.85175H74.6268V8.13642H67.4359V0.148193H65.3436V9.85175Z" fill="white"/>
<path d="M81.0758 0C77.5734 0 75.0378 2.12075 75.0378 5C75.0378 7.87925 77.5734 10 81.0758 10C84.5644 10 87.1137 7.87925 87.1137 5C87.1137 2.12075 84.5644 0 81.0758 0ZM81.0758 1.74367C83.3678 1.74367 84.964 3.04054 84.964 5C84.964 6.95946 83.3701 8.25632 81.0758 8.25632C78.7814 8.25632 77.1875 6.95946 77.1875 5C77.1875 3.04054 78.7837 1.74367 81.0758 1.74367Z" fill="white"/>
<path d="M94.9315 0.148193L92.3682 7.66127L89.6765 0.148193H87.4834L91.0566 9.85175H93.4775L95.9969 2.43242L98.4891 9.85175H100.923L104.497 0.148193H102.347L99.6556 7.66127L97.1063 0.148193H94.9315Z" fill="white"/>
<path d="M14.9675 4.55561V2.83154H13.1095V0.150635H11.0149V2.83372H4.45109V0.150635H2.35654V2.83372H0.498535V4.55778H2.35654V5.44706H0.498535V7.17112H2.35654V9.852H4.45109V7.16894H11.0149V9.852H13.1095V7.16894H14.9675V5.44488H13.1095V4.55561H14.9675ZM11.0149 5.44488H4.45109V4.55561H11.0149V5.44488Z" fill="white"/>
</g>
</svg>
