<svg width="107" height="22" viewBox="0 0 107 22" fill="none" xmlns="http://www.w3.org/2000/svg">
<path d="M29.9987 16.5599V7.48247C29.9987 6.54942 30.7541 5.79407 31.6871 5.79407H31.8105V16.5599H29.9987Z" fill="white"/>
<path d="M34.4377 16.5599V5.79407H36.345L40.7093 13.6076V5.79407H40.7537C41.6868 5.79407 42.4422 6.54942 42.4422 7.48247V16.5599H40.5349L36.1706 8.74635V16.5599H34.4377Z" fill="white"/>
<path d="M48.1565 16.8215C47.0325 16.8215 46.1553 16.4776 45.5251 15.7913C44.8948 15.1035 44.5789 14.1918 44.5789 13.053H46.3907C46.3907 13.7195 46.5372 14.2527 46.8317 14.6526C47.1362 15.0426 47.5772 15.2368 48.1548 15.2368C48.7324 15.2368 49.1735 15.0426 49.4779 14.6526C49.7939 14.2527 49.9502 13.7244 49.9502 13.0678V7.48247C49.9502 6.54942 50.7056 5.79407 51.6387 5.79407H51.7621V13.0695C51.7621 14.2082 51.4412 15.12 50.801 15.8078C50.1707 16.4841 49.2887 16.8232 48.1532 16.8232L48.1565 16.8215Z" fill="white"/>
<path d="M54.2244 5.79419H60.5914C60.5914 6.66966 59.8821 7.37896 59.0066 7.37896H56.0363V10.4234H60.5898V12.0082H56.0363V14.9769H60.5898V16.5617H54.2228V5.79419H54.2244Z" fill="white"/>
<path d="M100.223 5.79419H106.59C106.59 6.66966 105.881 7.37896 105.005 7.37896H102.035V10.4234H106.589V12.0082H102.035V14.9769H106.589V16.5617H100.222V5.79419H100.223Z" fill="white"/>
<path d="M67.9989 16.8204C66.4273 16.8204 65.1833 16.2971 64.2651 15.2521C63.3484 14.2071 62.8893 12.8478 62.8893 11.1758C62.8893 9.50381 63.3484 8.14615 64.2651 7.09958C65.1817 6.05457 66.4273 5.53125 67.9989 5.53125C69.3186 5.53125 70.4035 5.89987 71.2556 6.63879C72.1063 7.36616 72.6082 8.31571 72.7579 9.48409H72.3537C71.5583 9.48409 70.9232 8.88342 70.453 8.2433C70.3158 8.05897 70.1595 7.89277 69.9801 7.74629C69.4749 7.32665 68.82 7.116 68.0154 7.116C66.9391 7.116 66.0967 7.4846 65.4894 8.22351C64.8904 8.95088 64.5909 9.935 64.5909 11.1758C64.5909 12.4167 64.8904 13.4057 65.4894 14.1446C66.0983 14.8719 66.9391 15.2356 68.0154 15.2356C68.82 15.2356 69.4749 15.025 69.9801 14.6054C70.1595 14.4589 70.3178 14.2943 70.453 14.1084C70.9252 13.4682 71.5583 12.8676 72.3537 12.8676H72.7579C72.6082 14.0359 72.1083 14.9904 71.2556 15.7276C70.4035 16.455 69.3186 16.8204 67.9989 16.8204Z" fill="white"/>
<path d="M77.4369 16.5599V7.45451H74.2377C74.2377 6.5379 74.9816 5.79407 75.8983 5.79407H82.463V7.45451H79.2493V16.5599H77.4369Z" fill="white"/>
<path d="M84.7655 16.5599V7.48247C84.7655 6.54942 85.5206 5.79407 86.4538 5.79407H86.5772V16.5599H84.7655Z" fill="white"/>
<path d="M92.5319 16.5599L88.8756 5.79407H89.6123C90.3463 5.79407 90.9966 6.26801 91.2202 6.9674L93.3978 13.7754L95.5749 6.9674C95.7985 6.26801 96.4487 5.79407 97.1828 5.79407H97.9201L94.2631 16.5599H92.5306H92.5319Z" fill="white"/>
<path d="M3.07693 3.80071C3.21352 3.62957 3.35833 3.46335 3.50315 3.29879C3.50973 3.29056 3.52455 3.28892 3.53113 3.28069C3.54429 3.26423 3.56569 3.25436 3.57885 3.2379L3.59201 3.22145C3.6924 3.12764 3.80101 3.02726 3.92444 2.93839C4.36218 2.60597 4.81637 2.35255 5.2969 2.18634C6.83394 1.64656 8.54543 1.97898 9.88826 3.24613C11.7626 5.00368 11.5948 7.83256 10.0989 9.71354C8.20803 12.5177 4.95955 16.4294 9.45707 19.9346C10.2667 20.5649 10.8658 21.0849 13.4132 21.8205C11.7462 22.1282 10.2026 22.0328 8.48285 21.5934C7.26672 20.9072 5.3545 19.4376 4.70283 17.4513C3.71873 14.4398 6.43404 9.93896 7.74565 8.20611C9.54762 5.80675 6.63152 3.20992 4.4856 6.10955C3.36327 7.62027 1.40166 11.8973 2.08296 15.0684C2.48121 16.8671 3.01275 18.1787 5.12082 19.979C4.7308 19.7487 4.35066 19.487 3.98203 19.1941C-0.913755 14.6323 -0.344364 7.58076 3.07693 3.80071Z" fill="white"/>
<path d="M19.7439 18.1994C19.6073 18.3706 19.4625 18.5368 19.3177 18.7013C19.3111 18.7095 19.2963 18.7112 19.2897 18.7194C19.2766 18.7359 19.2551 18.7457 19.242 18.7622L19.2288 18.7787C19.1285 18.8725 19.0198 18.9729 18.8964 19.0617C18.4587 19.3942 18.0028 19.6476 17.5239 19.8138C15.9869 20.3536 14.2755 20.0211 12.9326 18.754C11.0582 16.9964 11.226 14.1676 12.7219 12.2866C14.6128 9.48245 17.8613 5.57073 13.3621 2.06551C12.5541 1.43523 11.9535 0.915204 9.40601 0.179603C11.073 -0.128133 12.6166 -0.0326856 14.3363 0.406701C15.5525 1.09293 17.4647 2.56414 18.1164 4.54879C19.1005 7.56032 16.3852 12.0611 15.0736 13.794C13.2716 16.1934 16.1877 18.7902 18.3336 15.8905C19.456 14.3799 21.4175 10.1028 20.7363 6.93168C20.338 5.13299 19.8065 3.82141 17.6984 2.02108C18.0884 2.25147 18.4685 2.51313 18.8371 2.80605C23.733 7.36616 23.1652 14.4194 19.7439 18.1994Z" fill="white"/>
</svg>
