<svg width="37" height="36" viewBox="0 0 37 36" fill="none" xmlns="http://www.w3.org/2000/svg">
<g clip-path="url(#clip0_1624_1536)">
<mask id="mask0_1624_1536" style="mask-type:luminance" maskUnits="userSpaceOnUse" x="0" y="0" width="37" height="36">
<path d="M36.4982 0H0.498169V36H36.4982V0Z" fill="white"/>
</mask>
<g mask="url(#mask0_1624_1536)">
<mask id="mask1_1624_1536" style="mask-type:alpha" maskUnits="userSpaceOnUse" x="0" y="-1" width="37" height="37">
<path d="M36.4647 17.9962C36.4647 27.9372 28.4058 35.9962 18.4647 35.9962C8.5236 35.9962 0.464722 27.9372 0.464722 17.9962C0.464722 8.05496 8.5236 -0.00390625 18.4647 -0.00390625C28.4058 -0.00390625 36.4647 8.05496 36.4647 17.9962Z" fill="#180101"/>
</mask>
<g mask="url(#mask1_1624_1536)">
<path d="M36.4982 0H0.498169V36H36.4982V0Z" fill="white"/>
<path fill-rule="evenodd" clip-rule="evenodd" d="M21.1298 16.8194L22.3881 6.191L24.979 5.86338C25.401 5.81002 25.771 5.81809 26.0888 5.88757C26.4067 5.95705 26.6675 6.08858 26.8716 6.28214C27.0853 6.47448 27.2323 6.73008 27.3126 7.04897C27.3915 7.35807 27.4037 7.73042 27.3491 8.16609L26.7089 13.5116C26.6641 13.9461 26.5592 14.3382 26.3939 14.6881C26.2375 15.027 26.0305 15.3224 25.7733 15.5743C25.5159 15.8262 25.2125 16.029 24.863 16.1829C24.5136 16.3368 24.1328 16.4398 23.7206 16.4918L21.1298 16.8194ZM24.7627 7.70046L24.2474 7.7656L23.4051 14.7071L23.9204 14.642C24.0283 14.6283 24.1246 14.6012 24.2092 14.5606C24.2938 14.52 24.3619 14.4665 24.4133 14.4002C24.4745 14.3326 24.5234 14.2466 24.5601 14.1423C24.6065 14.0367 24.6371 13.9232 24.6517 13.8017L25.2973 8.38065C25.3118 8.25916 25.313 8.14935 25.3005 8.05121C25.2881 7.95307 25.2585 7.87704 25.2118 7.82312C25.175 7.76796 25.1155 7.73062 25.0331 7.71111C24.9608 7.69035 24.8705 7.6868 24.7627 7.70046Z" fill="#1C1531"/>
<path fill-rule="evenodd" clip-rule="evenodd" d="M17.7244 6.78071L15.3177 17.5545L17.3786 17.2938L17.9198 14.623L18.8194 14.5092L18.733 17.1226L20.7939 16.862L20.9483 6.37305L17.7244 6.78071ZM18.8795 12.6919L18.296 12.7657L18.8152 10.2024L18.9623 10.1838L18.8795 12.6919Z" fill="#1C1531"/>
<path d="M9.55042 7.81434L8.29199 18.4429L10.191 18.2027L10.7682 11.2947L10.9154 11.2761L10.9565 18.106L12.3108 17.9347L13.9921 10.8871L14.1393 10.8684L13.091 17.836L14.9753 17.5977L16.2337 6.96924L13.5692 7.30617L12.1437 14.3663L11.9965 14.3849L12.2444 7.4737L9.55042 7.81434Z" fill="#1C1531"/>
<path d="M32.2744 19.4659L32.1343 20.6053L30.0733 20.866L30.2261 19.5903C30.2638 19.3363 30.2402 19.1498 30.1553 19.031C30.0692 18.9022 29.938 18.849 29.7612 18.8714C29.565 18.8961 29.4068 18.986 29.2869 19.1408C29.1668 19.2956 29.0923 19.4944 29.0632 19.7374L28.974 20.4517C28.9545 20.6135 28.9524 20.7534 28.9673 20.8712C28.9809 20.9792 29.0282 21.0779 29.1093 21.1674C29.1905 21.2567 29.3065 21.3467 29.4575 21.4374C29.6172 21.5169 29.8332 21.6092 30.1059 21.7143L30.5753 21.8794C30.8368 21.9759 31.0461 22.0939 31.2034 22.2337C31.3705 22.3721 31.4978 22.5505 31.5851 22.7686C31.6714 22.9771 31.7183 23.2304 31.7262 23.5285C31.7437 23.8255 31.7295 24.1862 31.6835 24.6108L31.6544 24.8538C31.5477 25.7448 31.2297 26.463 30.7005 27.0086C30.17 27.5441 29.4778 27.866 28.624 27.974C27.7701 28.082 27.1473 27.9264 26.7553 27.5073C26.3632 27.0883 26.22 26.4283 26.3254 25.5277L26.4656 24.3883L28.5264 24.1276L28.3608 25.4198C28.333 25.6726 28.3615 25.8585 28.4463 25.9773C28.531 26.0963 28.6667 26.1439 28.8532 26.1203C29.0494 26.0955 29.2083 26.0107 29.3296 25.8657C29.4606 25.7194 29.5407 25.5249 29.5698 25.2819L29.6662 24.5069C29.6771 24.356 29.6757 24.2266 29.6621 24.1186C29.6472 24.0009 29.6047 23.9014 29.5346 23.8206C29.4633 23.7299 29.3528 23.6442 29.2029 23.5635C29.0532 23.4827 28.8524 23.3933 28.6007 23.2957L28.0668 23.0939C27.8053 22.9973 27.5909 22.8799 27.4239 22.7414C27.2655 22.592 27.1424 22.4081 27.055 22.1898C26.9663 21.9617 26.9132 21.6992 26.8956 21.4024C26.8866 21.0944 26.9058 20.7331 26.9529 20.3183L26.9912 20.0293C27.093 19.1789 27.3957 18.4975 27.8994 17.985C28.4114 17.4617 29.0895 17.1465 29.9336 17.0398C30.7774 16.9331 31.406 17.093 31.8188 17.5195C32.2304 17.9359 32.3822 18.5847 32.2744 19.4659Z" fill="#1C1531"/>
<path fill-rule="evenodd" clip-rule="evenodd" d="M21.5229 18.253L20.2644 28.8817L22.8553 28.5541C23.2675 28.5019 23.6482 28.3989 23.9978 28.245C24.3473 28.0911 24.6507 27.8882 24.9079 27.6364C25.1653 27.3844 25.3721 27.089 25.5287 26.7503C25.6939 26.4003 25.7989 26.0082 25.8436 25.5738L26.4839 20.2281C26.5384 19.7925 26.5263 19.42 26.4472 19.1111C26.3671 18.7922 26.2201 18.5366 26.0062 18.3441C25.8023 18.1507 25.5415 18.0192 25.2236 17.9496C24.9056 17.8801 24.5358 17.872 24.1138 17.9254L21.5229 18.253ZM23.3822 19.8277L23.8973 19.7625C24.0053 19.7488 24.0955 19.7524 24.168 19.7732C24.2501 19.7926 24.3097 19.83 24.3466 19.8853C24.3933 19.9391 24.4229 20.0152 24.4353 20.1132C24.4476 20.2114 24.4466 20.3212 24.4321 20.4428L23.7864 25.8637C23.7718 25.9853 23.7413 26.0989 23.6949 26.2044C23.6582 26.3086 23.6093 26.3947 23.5479 26.4623C23.4965 26.5286 23.4285 26.5821 23.3439 26.6227C23.2593 26.6632 23.1631 26.6904 23.0551 26.704L22.5399 26.7693L23.3822 19.8277Z" fill="#1C1531"/>
<path fill-rule="evenodd" clip-rule="evenodd" d="M14.4525 29.6165L16.8592 18.8427L20.083 18.4351L19.9287 28.924L17.8677 29.1847L17.9541 26.5712L17.0544 26.6851L16.5134 29.3558L14.4525 29.6165ZM17.4306 24.8278L18.0142 24.754L18.0971 22.2458L17.9499 22.2643L17.4306 24.8278Z" fill="#1C1531"/>
<path d="M10.532 30.1122L11.7904 19.4837L13.8513 19.2231L12.8074 27.9998L14.5003 27.7857L14.2858 29.6376L10.532 30.1122Z" fill="#1C1531"/>
<path d="M5.9561 3.29155L8.67996 2.86353L6.62043 20.1789L10.2815 19.711L8.61776 34.0317L7.62264 34.1573L8.42197 21.5909L4.75269 22.0597L5.9561 3.29155Z" fill="#1C1531"/>
</g>
</g>
</g>
<defs>
<clipPath id="clip0_1624_1536">
<rect width="36" height="36" fill="white" transform="translate(0.498169)"/>
</clipPath>
</defs>
</svg>
