<svg width="93" height="32" viewBox="0 0 93 32" fill="none" xmlns="http://www.w3.org/2000/svg">
<mask id="mask0_1624_1482" style="mask-type:luminance" maskUnits="userSpaceOnUse" x="-1" y="0" width="94" height="32">
<path d="M92.9985 0.979736H-0.00146484V31.0204H92.9985V0.979736Z" fill="white"/>
</mask>
<g mask="url(#mask0_1624_1482)">
<path d="M-0.00146484 15.9782L11.1084 13.5134L18.633 15.9782H-0.00146484Z" fill="white"/>
<path d="M-0.00146484 15.9785L11.1228 18.4433L18.633 15.9785H-0.00146484Z" fill="white"/>
<path d="M3.60498 0.979736L11.1079 13.5135L18.6325 15.9784L3.60498 0.979736Z" fill="white"/>
<path d="M3.6416 31.0205L11.1229 18.4433L18.633 15.9785L3.6416 31.0205Z" fill="white"/>
<path d="M25.3623 21.4649V10.6071H27.5753V11.8816H27.9212C28.1286 11.4963 28.4546 11.1604 28.9091 10.864C29.3636 10.5676 29.9761 10.4194 30.7467 10.4194C31.5173 10.4194 32.1892 10.5874 32.6831 10.9134C33.1673 11.2394 33.5426 11.6643 33.7897 12.178H34.1354C34.3824 11.6741 34.748 11.2592 35.2222 10.9233C35.6964 10.5874 36.3683 10.4194 37.2476 10.4194C37.949 10.4194 38.5715 10.5577 39.1049 10.8541C39.6384 11.1406 40.0731 11.5654 40.3893 12.1286C40.7054 12.6917 40.8734 13.3932 40.8734 14.233V21.455H38.6208V14.4108C38.6208 13.7488 38.443 13.245 38.0873 12.8794C37.7317 12.5139 37.2179 12.3361 36.5659 12.3361C35.8644 12.3361 35.3012 12.5633 34.8764 13.0177C34.4516 13.4722 34.2441 14.1243 34.2441 14.974V21.4451H31.9817V14.4108C31.9817 13.7488 31.8038 13.245 31.4482 12.8794C31.0925 12.5139 30.5788 12.3361 29.9267 12.3361C29.2253 12.3361 28.6621 12.5633 28.2373 13.0177C27.8125 13.4722 27.605 14.1243 27.605 14.974V21.4451H25.3623V21.4649Z" fill="white"/>
<path d="M46.5448 21.7709C45.7741 21.7709 45.0826 21.6425 44.4799 21.3757C43.8772 21.109 43.3931 20.7237 43.0375 20.2099C42.6817 19.6962 42.5039 19.0738 42.5039 18.3427C42.5039 17.6116 42.6817 16.9793 43.0375 16.4853C43.3931 15.9913 43.8871 15.6258 44.4997 15.3788C45.1221 15.1318 45.8235 15.0034 46.604 15.0034H49.8841V14.3019C49.8841 13.6696 49.6963 13.1657 49.3111 12.7804C48.9356 12.3951 48.3527 12.2074 47.5624 12.2074C46.7719 12.2074 46.1989 12.3952 45.7939 12.7607C45.3888 13.1262 45.1122 13.6004 44.9837 14.1932L42.8893 13.5115C43.0671 12.9286 43.3437 12.3951 43.729 11.911C44.1143 11.4368 44.6281 11.0515 45.2702 10.7551C45.9124 10.4587 46.6831 10.3105 47.592 10.3105C48.985 10.3105 50.0915 10.6761 50.8918 11.3874C51.692 12.1086 52.0971 13.1262 52.0971 14.4501V18.9157C52.0971 19.3603 52.3046 19.5777 52.7096 19.5777H53.6284V21.4746H51.9391C51.4253 21.4746 51.0103 21.3461 50.6942 21.0793C50.378 20.8126 50.22 20.4569 50.22 20.0025V19.9333H49.894C49.7754 20.1507 49.6075 20.4076 49.3703 20.704C49.1332 21.0003 48.7973 21.2473 48.3428 21.4647C47.8785 21.6622 47.2857 21.7808 46.5448 21.7709ZM46.8708 19.9037C47.7698 19.9037 48.5009 19.6468 49.0542 19.1232C49.6074 18.5995 49.8841 17.8882 49.8841 16.9793V16.762H46.7423C46.1495 16.762 45.6655 16.8904 45.2999 17.1472C44.9344 17.4041 44.7565 17.7796 44.7565 18.2834C44.7565 18.7873 44.9442 19.1824 45.3295 19.4689C45.6951 19.7555 46.2187 19.9037 46.8708 19.9037Z" fill="white"/>
<path d="M57.9348 25.9303C57.1642 25.9303 56.5319 25.8118 56.0478 25.5746C55.5637 25.3376 55.1981 25.0214 54.961 24.6262C54.7239 24.231 54.6152 23.7963 54.6152 23.332C54.6152 22.7589 54.7535 22.3143 55.0301 21.9883C55.3068 21.6623 55.5637 21.4449 55.8206 21.3264V21.0201C55.5834 20.8719 55.3661 20.6546 55.1586 20.3582C54.9512 20.0618 54.8425 19.6765 54.8425 19.1924C54.8425 18.6786 54.9709 18.2637 55.2278 17.9574C55.4846 17.6511 55.7612 17.4338 56.0675 17.2955V16.92L57.6384 17.8883C57.4013 17.9179 57.2037 18.0068 57.0259 18.1451C56.8481 18.2834 56.7591 18.5107 56.7591 18.8169C56.7591 19.1232 56.8678 19.3505 57.0752 19.4987C57.2828 19.6469 57.5495 19.716 57.8755 19.716H61.1753C62.3708 19.716 63.2797 19.9729 63.912 20.4965C64.5443 21.0201 64.8506 21.7512 64.8506 22.6898V22.8676C64.8506 23.8062 64.5344 24.5471 63.912 25.1004C63.2797 25.6537 62.3708 25.9303 61.1753 25.9303H57.9348ZM59.3081 18.2242C58.4881 18.2242 57.7668 18.076 57.1247 17.7796C56.4825 17.4733 55.9786 17.0386 55.6032 16.4458C55.2278 15.8629 55.0499 15.1417 55.0499 14.2822V14.1932C55.0499 13.3436 55.2377 12.6224 55.6032 12.0494C55.9688 11.4764 56.4726 11.0318 57.1148 10.7354C57.7471 10.439 58.4683 10.2908 59.2685 10.2908C59.6045 10.2908 59.9206 10.3204 60.2269 10.3895C60.5332 10.4588 60.7999 10.5279 61.037 10.5971H64.732V12.3853H62.8746V12.6915C63.0228 12.9089 63.1414 13.1657 63.2303 13.4621C63.3291 13.7585 63.3686 14.0846 63.3686 14.4501C63.3686 15.6554 62.9932 16.5842 62.2424 17.2362C61.4915 17.8982 60.5134 18.2242 59.3081 18.2242ZM58.0632 24.0828H61.3631C61.8274 24.0828 62.1929 23.9741 62.4597 23.7667C62.7264 23.5493 62.8549 23.2529 62.8549 22.8578C62.8549 22.4625 62.7264 22.1365 62.4597 21.929C62.1929 21.7216 61.8274 21.6227 61.3631 21.6227H58.0632C57.5989 21.6227 57.2333 21.7216 56.9666 21.929C56.6999 22.1365 56.5714 22.4428 56.5714 22.8578C56.5714 23.2727 56.6999 23.5592 56.9666 23.7667C57.2234 23.9741 57.5989 24.0828 58.0632 24.0828ZM59.3081 16.3766C59.9404 16.3766 60.4541 16.1889 60.8592 15.7937C61.2643 15.4085 61.4717 14.8848 61.4717 14.2427C61.4717 13.6004 61.2643 13.0769 60.8592 12.6915C60.4541 12.3062 59.9305 12.1086 59.3081 12.1086C58.6856 12.1086 58.1621 12.2963 57.757 12.6915C57.3519 13.0769 57.1445 13.6004 57.1445 14.2427C57.1445 14.8848 57.3519 15.4085 57.757 15.7937C58.1621 16.1791 58.6757 16.3766 59.3081 16.3766Z" fill="white"/>
<path d="M66.1553 25.871V10.6168H68.2991V12.1777H68.6351C68.9019 11.6937 69.3069 11.259 69.8601 10.8835C70.4036 10.4983 71.184 10.3105 72.2016 10.3105C73.071 10.3105 73.8812 10.5279 74.6024 10.9724C75.3337 11.417 75.9165 12.0493 76.3612 12.8792C76.806 13.7091 77.0324 14.707 77.0324 15.8827V16.2087C77.0324 17.3844 76.8157 18.3822 76.3807 19.2121C75.9457 20.042 75.3532 20.6743 74.6222 21.1189C73.8911 21.5635 73.0809 21.7808 72.2115 21.7808C71.5299 21.7808 70.9568 21.6919 70.4924 21.514C70.0281 21.3362 69.6527 21.1189 69.3662 20.8423C69.0797 20.5755 68.8524 20.289 68.6845 19.9926H68.3387V25.871H66.1553ZM71.5496 19.795C72.5079 19.795 73.2983 19.4788 73.901 18.8466C74.5036 18.2143 74.8099 17.3152 74.8099 16.1395V15.9419C74.8099 14.786 74.5036 13.887 73.8911 13.2547C73.2785 12.6223 72.498 12.3062 71.5496 12.3062C70.6011 12.3062 69.8503 12.6223 69.2279 13.2547C68.6153 13.887 68.3091 14.786 68.3091 15.9419V16.1395C68.3091 17.3152 68.6153 18.2143 69.2279 18.8466C69.8503 19.4788 70.6209 19.795 71.5496 19.795Z" fill="white"/>
<path d="M79.8381 9.13494C79.4039 9.13494 79.0281 8.99664 78.7319 8.70024C78.4356 8.41373 78.2871 8.04819 78.2871 7.59372C78.2871 7.13926 78.4356 6.76383 78.7319 6.4872C79.0281 6.20069 79.3941 6.05249 79.8381 6.05249C80.2731 6.05249 80.6586 6.19081 80.9549 6.4872C81.2414 6.77371 81.3899 7.13926 81.3899 7.59372C81.3899 8.04819 81.2414 8.42361 80.9549 8.70024C80.6586 8.98674 80.2926 9.13494 79.8381 9.13494ZM78.7026 21.4648V10.607H80.9549V21.4549L78.7026 21.4648Z" fill="white"/>
<path d="M87.8915 21.7711C86.7942 21.7711 85.8462 21.5438 85.0257 21.0795C84.206 20.6152 83.5737 19.9631 83.1095 19.1233C82.6452 18.2836 82.418 17.2956 82.418 16.1792V15.9124C82.418 14.7862 82.6452 13.7982 83.0997 12.9485C83.5542 12.1087 84.1865 11.4567 84.9867 10.9924C85.7967 10.528 86.735 10.3008 87.7925 10.3008C88.8597 10.3008 89.729 10.528 90.5195 10.9924C91.2995 11.4567 91.9122 12.0988 92.3472 12.9189C92.7815 13.7389 92.999 14.7071 92.999 15.8038V16.6633H84.7197C84.7497 17.6216 85.0655 18.3823 85.6685 18.9455C86.2707 19.5086 87.0215 19.7951 87.9305 19.7951C88.7802 19.7951 89.4125 19.5976 89.8475 19.2221C90.272 18.8368 90.608 18.4021 90.8352 17.8983L92.693 18.8665C92.4852 19.2814 92.189 19.7062 91.8132 20.1607C91.4277 20.6152 90.9245 20.9906 90.2922 21.3067C89.6697 21.613 88.8695 21.7711 87.8915 21.7711ZM90.707 14.9245C90.6477 14.1044 90.3612 13.4623 89.8377 12.9979C89.3135 12.5335 88.622 12.3064 87.7827 12.3064C86.9427 12.3064 86.2512 12.5335 85.718 12.9979C85.184 13.4623 84.8577 14.1044 84.7392 14.9245H90.707Z" fill="white"/>
</g>
</svg>
