<svg width="101" height="22" viewBox="0 0 101 22" fill="none" xmlns="http://www.w3.org/2000/svg">
<path d="M11.6151 0C5.48571 0 0.517212 4.92469 0.517212 11C0.517212 17.0753 5.48571 22 11.6151 22C17.7444 22 22.7129 17.0753 22.7129 11C22.7129 4.92469 17.7444 0 11.6151 0ZM18.3481 15.6485C18.3481 16.6151 17.8837 17.1674 17.0944 17.1674C16.305 17.1674 15.8406 16.6151 15.8406 15.6025C15.8406 13.3473 15.8406 11.046 15.8406 8.7908C15.8406 8.10042 15.7013 8.05439 15.1441 8.37657C13.7046 9.20502 12.2187 9.94142 10.7793 10.7699C10.1292 11.1381 9.57196 11.0921 9.01474 10.6778C8.31822 10.1255 7.66814 9.61925 6.78588 8.9749C6.78588 10.5858 6.78588 11.9665 6.78588 13.3933C6.78588 13.6695 6.78588 13.9456 6.78588 14.2218C6.69301 14.7741 6.36797 15.0962 5.81075 15.0962C5.25354 15.0962 4.97493 14.728 4.9285 14.2218C4.88206 13.7155 4.88206 13.1632 4.88206 12.6109C4.88206 10.8619 4.88206 9.06695 4.88206 7.31799C4.88206 6.81172 4.88206 6.30544 5.43928 6.07531C5.95006 5.84519 6.36797 6.07531 6.78588 6.35146C7.6217 6.94979 8.50396 7.54812 9.33978 8.19247C9.80413 8.56067 10.1756 8.6067 10.6864 8.28452C12.4509 7.17992 14.3083 6.16736 16.1192 5.10879C17.373 4.41841 18.3945 4.97071 18.3945 6.39749C18.3945 9.48117 18.3481 12.5649 18.3481 15.6485Z" fill="white"/>
<path d="M29.4793 5.61572H31.9867L34.1227 10.8166H34.2156L36.3516 5.61572H38.8591V13.9923H36.8624V8.83748H36.7695L34.7264 13.9463H33.4726L31.4295 8.83748H31.3367V13.9923H29.34V5.61572H29.4793Z" fill="white"/>
<path d="M41.9238 14.0842C41.5059 14.0842 41.1808 14.0382 40.8558 13.9001C40.5307 13.7621 40.2986 13.578 40.1128 13.3018C39.9271 13.0257 39.8342 12.7035 39.8342 12.2893C39.8342 11.9211 39.8807 11.6449 40.02 11.4148C40.1593 11.1847 40.2986 11.0006 40.5307 10.8165C40.7629 10.6784 40.9951 10.5403 41.2737 10.4943C41.5523 10.4022 41.8773 10.3562 42.2024 10.3562C42.5739 10.3102 42.8525 10.3102 43.0846 10.2642C43.3168 10.2181 43.4561 10.1721 43.549 10.1261C43.6419 10.034 43.6883 9.94199 43.6883 9.84994C43.6883 9.61981 43.5954 9.48174 43.4561 9.34366C43.3168 9.25161 43.1311 9.15956 42.8525 9.15956C42.5739 9.15956 42.3881 9.20559 42.2024 9.34366C42.0167 9.48174 41.9238 9.61981 41.8774 9.80391L40.02 9.75789C40.0664 9.38969 40.2057 9.02149 40.4379 8.74534C40.6701 8.42316 40.9951 8.19303 41.3666 8.05496C41.738 7.91688 42.2488 7.77881 42.806 7.77881C43.224 7.77881 43.5954 7.82483 43.9205 7.91688C44.2455 8.00893 44.5706 8.14701 44.8027 8.33111C45.0349 8.51521 45.2671 8.74534 45.4064 8.97546C45.5457 9.25161 45.5921 9.52776 45.5921 9.84994V14.1303H43.6883V13.2558H43.6419C43.549 13.4859 43.3633 13.67 43.224 13.8081C43.0382 13.9462 42.8525 14.0842 42.6203 14.1303C42.3881 14.1763 42.2488 14.0842 41.9238 14.0842ZM42.5739 12.7955C42.806 12.7955 42.9918 12.7495 43.1775 12.6575C43.3633 12.5654 43.5026 12.4273 43.5954 12.2893C43.6883 12.1512 43.7347 11.9671 43.7347 11.737V11.1386C43.6883 11.1847 43.5954 11.1847 43.549 11.2307C43.4561 11.2767 43.3633 11.2767 43.2704 11.3227C43.1775 11.3227 43.0847 11.3688 42.9918 11.3688C42.8989 11.3688 42.806 11.4148 42.7132 11.4148C42.5274 11.4608 42.3417 11.5068 42.2488 11.5529C42.156 11.5989 42.0167 11.6909 41.9238 11.783C41.8309 11.875 41.8309 12.0131 41.8309 12.1512C41.8309 12.3353 41.9238 12.5194 42.0631 12.6114C42.156 12.7035 42.3417 12.7955 42.5739 12.7955Z" fill="white"/>
<path d="M47.8209 16.3395C47.5888 16.3395 47.3566 16.3395 47.1244 16.2935C46.8922 16.2474 46.7065 16.2014 46.5672 16.1554L47.0315 14.6826C47.2173 14.7286 47.403 14.7746 47.5888 14.7746C47.7281 14.7746 47.8674 14.7746 48.0067 14.6826C48.146 14.6366 48.1924 14.4985 48.2853 14.3604L48.3782 14.1763L46.1493 7.68677H48.2388L49.3997 12.1512H49.4462L50.607 7.68677H52.743L50.3748 14.5445C50.282 14.8667 50.0962 15.1889 49.8641 15.465C49.6319 15.7412 49.3997 15.9253 49.0747 16.0633C48.7496 16.2474 48.3317 16.3395 47.8209 16.3395Z" fill="white"/>
<path d="M55.0183 14.0842C54.6004 14.0842 54.2753 14.0382 53.9503 13.9001C53.6252 13.7621 53.3931 13.578 53.2073 13.3018C53.0216 13.0257 52.9287 12.7035 52.9287 12.2893C52.9287 11.9211 52.9751 11.6449 53.1144 11.4148C53.2538 11.1847 53.3931 11.0006 53.6252 10.8165C53.8574 10.6784 54.0896 10.5403 54.3682 10.4943C54.6468 10.4022 54.9718 10.3562 55.2969 10.3562C55.6684 10.3102 55.947 10.3102 56.1791 10.2642C56.4113 10.2181 56.5506 10.1721 56.6435 10.1261C56.7363 10.034 56.7828 9.94199 56.7828 9.84994C56.7828 9.61981 56.6899 9.48174 56.5506 9.34366C56.4113 9.25161 56.2256 9.15956 55.947 9.15956C55.6684 9.15956 55.4826 9.20559 55.2969 9.34366C55.1111 9.48174 55.0183 9.61981 54.9718 9.80391L53.1144 9.75789C53.1609 9.38969 53.3002 9.02149 53.5324 8.74534C53.7645 8.42316 54.0896 8.19303 54.4611 8.05496C54.8325 7.91688 55.3433 7.77881 55.9005 7.77881C56.3184 7.77881 56.6899 7.82483 57.015 7.91688C57.34 8.00893 57.665 8.14701 57.8972 8.33111C58.1294 8.51521 58.3616 8.74534 58.5009 8.97546C58.6402 9.25161 58.6866 9.52776 58.6866 9.84994V14.1303H56.7828V13.2558H56.7363C56.6435 13.4859 56.4577 13.67 56.3184 13.8081C56.1327 13.9462 55.947 14.0842 55.7148 14.1303C55.4826 14.1763 55.3433 14.0842 55.0183 14.0842ZM55.6683 12.7955C55.9005 12.7955 56.0863 12.7495 56.272 12.6575C56.4577 12.5654 56.597 12.4273 56.6899 12.2893C56.7828 12.1512 56.8292 11.9671 56.8292 11.737V11.1386C56.7828 11.1847 56.6899 11.1847 56.6435 11.2307C56.5506 11.2767 56.4577 11.2767 56.3649 11.3227C56.272 11.3227 56.1791 11.3688 56.0863 11.3688C55.9934 11.3688 55.9005 11.4148 55.8077 11.4148C55.6219 11.4608 55.4362 11.5068 55.3433 11.5529C55.2504 11.5989 55.1111 11.6909 55.0183 11.783C54.9254 11.875 54.9254 12.0131 54.9254 12.1512C54.9254 12.3353 55.0183 12.5194 55.1576 12.6114C55.2504 12.7035 55.4362 12.7955 55.6683 12.7955Z" fill="white"/>
<path d="M62.0299 10.4023V13.9922H59.9868V7.68678H61.8906V8.8374H61.9835C62.1228 8.4692 62.355 8.14703 62.68 7.9169C63.0051 7.68678 63.423 7.59473 63.8873 7.59473C64.3517 7.59473 64.7231 7.68678 65.0482 7.87088C65.3732 8.05498 65.6518 8.33113 65.8376 8.69933C66.0233 9.06753 66.1162 9.48176 66.1162 9.94201V13.9462H64.1195V10.3562C64.1195 9.98803 64.0266 9.75791 63.8409 9.52778C63.6552 9.29765 63.423 9.25163 63.0979 9.25163C62.8658 9.25163 62.68 9.29766 62.5407 9.38971C62.4014 9.48176 62.2621 9.61983 62.1692 9.75791C62.0764 9.94201 62.0299 10.1721 62.0299 10.4023Z" fill="white"/>
<path d="M74.428 8.10096C74.3816 7.77878 74.2887 7.54866 74.0565 7.41058C73.8243 7.22648 73.5457 7.18046 73.1278 7.18046C72.8492 7.18046 72.6635 7.22648 72.4777 7.27251C72.292 7.31853 72.1527 7.45661 72.0598 7.54866C71.967 7.64071 71.9205 7.82481 71.9205 7.96289C71.9205 8.10096 71.9205 8.19301 72.0134 8.28506C72.0598 8.37711 72.1527 8.46916 72.2456 8.51519C72.3384 8.60724 72.4777 8.65326 72.617 8.69929C72.7564 8.74531 72.9421 8.79134 73.1278 8.83736L73.8708 9.02146C74.2887 9.11351 74.6602 9.25159 74.9852 9.38966C75.3103 9.52774 75.5889 9.71184 75.7746 9.94196C76.0068 10.1261 76.1461 10.4022 76.2854 10.6784C76.3783 10.9545 76.4711 11.2307 76.4711 11.5989C76.4711 12.1051 76.3318 12.5654 76.0532 12.9796C75.7746 13.3478 75.4031 13.67 74.8923 13.8541C74.3816 14.0382 73.7779 14.1763 73.0814 14.1763C72.3849 14.1763 71.7812 14.0842 71.224 13.8541C70.7132 13.624 70.2953 13.3478 70.0167 12.8876C69.7381 12.4733 69.5524 11.921 69.5524 11.2767H71.5026C71.5026 11.5528 71.5955 11.783 71.7348 11.9671C71.8741 12.1512 72.0598 12.2892 72.2456 12.3813C72.4313 12.4733 72.7564 12.5194 73.035 12.5194C73.3136 12.5194 73.5457 12.4733 73.7315 12.4273C73.9172 12.3353 74.0565 12.2432 74.1958 12.1051C74.2887 11.9671 74.3351 11.829 74.3351 11.6449C74.3351 11.5068 74.2887 11.3687 74.1958 11.2307C74.103 11.1386 73.9637 11.0005 73.7315 10.9545C73.5457 10.8625 73.2671 10.8164 72.9885 10.7244L72.1063 10.5403C71.3633 10.3562 70.8061 10.1261 70.3882 9.71184C69.9703 9.34364 69.7381 8.83736 69.7845 8.19301C69.7845 7.68673 69.9238 7.22648 70.2024 6.81226C70.4811 6.44406 70.899 6.12188 71.3633 5.89176C71.8277 5.66163 72.4313 5.56958 73.0814 5.56958C73.7315 5.56958 74.2887 5.66163 74.7995 5.89176C75.2638 6.12188 75.6353 6.39803 75.9139 6.81226C76.1925 7.22648 76.3318 7.68673 76.3318 8.19301H74.428V8.10096Z" fill="white"/>
<path d="M78.7 13.9921L77.0283 7.73267H79.0714L79.9073 11.7369H79.9537L80.8824 7.73267H82.8791L83.8078 11.7369H83.8542L84.69 7.73267H86.7332L85.0615 13.9921H82.9255L81.9504 10.3561H81.8575L80.8824 13.9921H78.7Z" fill="white"/>
<path d="M89.1013 14.0842C88.6834 14.0842 88.3583 14.0382 88.0333 13.9001C87.7082 13.7621 87.4761 13.578 87.2903 13.3018C87.1046 13.0257 87.0117 12.7035 87.0117 12.2893C87.0117 11.9211 87.0582 11.6449 87.1975 11.4148C87.3368 11.1847 87.4761 11.0006 87.7082 10.8165C87.9404 10.6784 88.1726 10.5403 88.4512 10.4943C88.7298 10.4022 89.0548 10.3562 89.3799 10.3562C89.7514 10.3102 90.03 10.3102 90.2621 10.2642C90.4943 10.2181 90.6336 10.1721 90.7265 10.1261C90.8194 10.0801 90.8658 9.94199 90.8658 9.84994C90.8658 9.61981 90.7729 9.48174 90.6336 9.34366C90.4943 9.20559 90.3086 9.15956 90.03 9.15956C89.7514 9.15956 89.5656 9.20559 89.3799 9.34366C89.2406 9.43571 89.1013 9.61981 89.0548 9.80391L87.1975 9.75789C87.2439 9.38969 87.3832 9.02149 87.6154 8.74534C87.8475 8.42316 88.1726 8.19303 88.5441 8.05496C88.9155 7.91688 89.4263 7.77881 89.9835 7.77881C90.4014 7.77881 90.7729 7.82483 91.098 7.91688C91.423 8.00893 91.748 8.14701 91.9802 8.33111C92.2124 8.51521 92.4446 8.74534 92.5839 8.97546C92.7232 9.25161 92.7696 9.52776 92.7696 9.84994V14.1303H90.8658V13.2558H90.8194C90.7265 13.4859 90.5407 13.67 90.4014 13.8081C90.2157 13.9462 90.03 14.0842 89.7978 14.1303C89.5656 14.1763 89.3799 14.0842 89.1013 14.0842ZM89.7049 12.7955C89.9371 12.7955 90.1228 12.7495 90.3086 12.6575C90.4943 12.5654 90.6336 12.4273 90.7265 12.2893C90.8194 12.1512 90.8658 11.9671 90.8658 11.737V11.1386C90.8194 11.1847 90.7265 11.1847 90.6801 11.2307C90.6336 11.2767 90.4943 11.2767 90.4014 11.3227C90.3086 11.3227 90.2157 11.3688 90.1228 11.3688C90.03 11.3688 89.9371 11.4148 89.8442 11.4148C89.6585 11.4608 89.4728 11.5068 89.3799 11.5529C89.287 11.5989 89.1477 11.6909 89.0548 11.783C88.962 11.875 88.962 12.0131 88.962 12.1512C88.962 12.3353 89.0548 12.5194 89.1941 12.6114C89.287 12.7035 89.4728 12.7955 89.7049 12.7955Z" fill="white"/>
<path d="M94.0697 16.3395V7.68678H96.0664V8.74535H96.1128C96.2057 8.56125 96.2986 8.37715 96.4843 8.19305C96.67 8.00895 96.8093 7.87088 97.0879 7.77883C97.3666 7.68678 97.5987 7.59473 97.9238 7.59473C98.3417 7.59473 98.7596 7.68678 99.1775 7.9169C99.549 8.14703 99.874 8.51523 100.106 8.97548C100.338 9.43573 100.478 10.0801 100.478 10.8165C100.478 11.5069 100.385 12.1052 100.153 12.6115C99.9205 13.0717 99.6419 13.4399 99.2239 13.67C98.8525 13.9002 98.4346 14.0382 97.9702 14.0382C97.6452 14.0382 97.3666 13.9922 97.1344 13.9002C96.9022 13.8081 96.7165 13.67 96.5307 13.4859C96.3914 13.3018 96.2521 13.1177 96.1593 12.9336H96.1128V16.2935H94.0697V16.3395ZM96.02 10.8165C96.02 11.1387 96.0664 11.4608 96.1593 11.691C96.2521 11.9211 96.3914 12.1512 96.5772 12.2893C96.7629 12.4274 96.9486 12.4734 97.2273 12.4734C97.4594 12.4734 97.6916 12.4274 97.8773 12.2893C98.0631 12.1512 98.2024 11.9671 98.2488 11.691C98.2952 11.4148 98.3881 11.1387 98.3881 10.8165C98.3881 10.4943 98.3417 10.1721 98.2488 9.94201C98.1559 9.71188 98.0166 9.48176 97.8773 9.34368C97.738 9.2056 97.5059 9.15958 97.2273 9.15958C96.9951 9.15958 96.7629 9.2056 96.5772 9.34368C96.3914 9.48176 96.2521 9.66586 96.1593 9.89598C96.0664 10.1261 96.02 10.4943 96.02 10.8165Z" fill="white"/>
</svg>
