<svg width="124" height="18" viewBox="0 0 124 18" fill="none" xmlns="http://www.w3.org/2000/svg">
<g clip-path="url(#clip0_1_34)">
<path d="M10.3891 17.562C9.57439 17.8467 8.69244 18 7.77686 18C3.48296 18 0 14.6022 0 10.4051C0 6.20803 3.48296 2.81022 7.77686 2.81022C8.69244 2.81022 9.57066 2.9635 10.3891 3.24817C7.37699 4.29562 5.2207 7.10584 5.2207 10.4051C5.2207 13.7044 7.37699 16.5146 10.3891 17.562ZM18.222 2.81022C17.3064 2.81022 16.4282 2.9635 15.6098 3.24817C18.6219 4.29562 20.7782 7.10584 20.7782 10.4051C20.7782 13.7044 18.6219 16.5146 15.6098 17.562C16.4245 17.8467 17.3064 18 18.222 18C22.5196 18 25.9989 14.5985 25.9989 10.4051C25.9989 6.21168 22.5159 2.81022 18.222 2.81022Z" fill="#F2F2F2"/>
<path d="M49.9087 15.8029V10.3467C49.9087 9.44161 49.9087 8.43066 49.52 7.75547C49.1949 7.20803 48.6343 6.93431 47.857 6.93431C46.9527 6.93431 45.981 7.50365 45.3121 8.40876C45.398 8.93431 45.4205 9.54745 45.4205 10.1569V15.8029H42.8082V10.3467C42.8082 9.44161 42.8082 8.36496 42.3747 7.68978C42.072 7.18248 41.5339 6.93066 40.8201 6.93066C39.9344 6.93066 38.9441 7.60584 38.3163 8.38321V15.7993H35.704V4.95255H38.0995L38.2079 6.40511C39.0712 5.26642 40.3642 4.69708 41.5302 4.69708C42.6961 4.69708 43.8172 5.20438 44.531 6.17153C44.617 6.29927 44.6805 6.42336 44.7665 6.59124C45.7792 5.17883 47.203 4.69343 48.5409 4.69343C49.8788 4.69343 50.8504 5.20073 51.5194 6.0438C52.3602 7.09854 52.5321 8.55109 52.5321 10.1533V15.7993H49.9012L49.9087 15.8029Z" fill="#F2F2F2"/>
<path d="M65.1859 10.3686C65.1859 13.5511 62.7493 16.0584 59.4233 16.0584C56.0973 16.0584 53.6607 13.5511 53.6607 10.3686C53.6607 7.18613 56.0973 4.70073 59.4233 4.70073C62.7493 4.70073 65.1859 7.20803 65.1859 10.3686ZM59.4233 6.93431C57.6108 6.93431 56.3178 8.4708 56.3178 10.3686C56.3178 12.2664 57.6108 13.8248 59.4233 13.8248C61.2358 13.8248 62.5288 12.2883 62.5288 10.3686C62.5288 8.4489 61.2358 6.93431 59.4233 6.93431Z" fill="#F2F2F2"/>
<path d="M77.3314 10.3686C77.3314 13.5511 74.8948 16.0584 71.5688 16.0584C68.2428 16.0584 65.8062 13.5511 65.8062 10.3686C65.8062 7.18613 68.2428 4.70073 71.5688 4.70073C74.8948 4.70073 77.3314 7.20803 77.3314 10.3686ZM71.5688 6.93431C69.7563 6.93431 68.4633 8.4708 68.4633 10.3686C68.4633 12.2664 69.7563 13.8248 71.5688 13.8248C73.3813 13.8248 74.6743 12.2883 74.6743 10.3686C74.6743 8.4489 73.3813 6.93431 71.5688 6.93431Z" fill="#F2F2F2"/>
<path d="M80.9339 4.95255L81.0647 6.55474C81.9504 5.31022 83.2658 4.70073 84.6037 4.70073C85.9416 4.70073 86.9768 5.22628 87.6681 6.09124C88.4865 7.14599 88.6622 8.57664 88.6622 10.1569V15.8029H86.05V10.3467C86.05 9.44161 86.0276 8.43066 85.6165 7.75547C85.2913 7.20803 84.7308 6.93431 83.9348 6.93431C82.8996 6.93431 81.8196 7.58759 81.1731 8.59854V15.8066H78.5609V4.95255H80.9339Z" fill="#F2F2F2"/>
<path d="M100.352 12.3504H100.397L102.381 4.97445H105.057L101.843 15.8066H99.1036L97.0968 8.70438H97.0519L95.0003 15.8066H92.1526L89.0882 4.97445H91.8948L93.7072 12.3723H93.7521L95.8897 4.97445H98.3487L100.356 12.3504H100.352Z" fill="#F2F2F2"/>
<path d="M107.299 11.0219C107.471 12.646 108.592 13.9708 110.405 13.9708C111.851 13.9708 112.778 13.4234 113.469 12.2847L115.237 13.4453C114.007 15.2153 112.561 16.0584 110.251 16.0584C106.821 16.0584 104.664 13.6752 104.664 10.4526C104.664 7.22993 107.101 4.70073 110.251 4.70073C113.402 4.70073 115.494 6.82847 115.494 9.73723C115.494 10.1387 115.45 10.6204 115.386 11.0219H107.295H107.299ZM110.319 6.74453C108.723 6.74453 107.796 7.79927 107.448 9.18978H112.822C112.759 7.77737 111.701 6.74453 110.319 6.74453Z" fill="#F2F2F2"/>
<path d="M119.34 15.8029H116.728V0H119.34V15.8029Z" fill="#F2F2F2"/>
<path d="M124 15.8029H121.388V0H124V15.8029Z" fill="#F2F2F2"/>
</g>
<defs>
<clipPath id="clip0_1_34">
<rect width="124" height="18" fill="white"/>
</clipPath>
</defs>
</svg>
