<svg width="51" height="22" viewBox="0 0 51 22" fill="none" xmlns="http://www.w3.org/2000/svg">
<g clip-path="url(#clip0_16321_22863)">
<mask id="mask0_16321_22863" style="mask-type:luminance" maskUnits="userSpaceOnUse" x="0" y="0" width="51" height="22">
<path d="M50.6655 0.453857H0V21.5464H50.6655V0.453857Z" fill="white"/>
</mask>
<g mask="url(#mask0_16321_22863)">
<path d="M8.16 14.4239H4.4064V21.1889H0V0.838867H8.16C12.2672 0.838867 15.0144 3.56136 15.0144 7.63139C15.0144 11.7014 12.2672 14.4239 8.16 14.4239ZM7.1808 4.79887H4.4064V10.4639H7.1808C9.3024 10.4639 10.3632 9.52889 10.3632 7.63139C10.3632 5.73386 9.3024 4.79887 7.1808 4.79887Z" fill="#FFFEF8"/>
<path d="M18.667 5.29395C17.3342 5.29395 16.2734 4.22144 16.2734 2.87395C16.2734 1.52644 17.3342 0.481445 18.667 0.481445C19.9726 0.481445 21.0334 1.52644 21.0334 2.87395C21.0334 4.22144 19.9726 5.29395 18.667 5.29395ZM16.5998 21.189V7.43898H20.7886V21.189H16.5998Z" fill="#FFFEF8"/>
<path d="M27.4408 21.1889H23.252V0.453857H27.4408V12.3889L31.8472 7.43889H37.0968L31.9832 12.8839L36.9336 21.1889H32.092L29.0456 16.0464L27.4408 17.7514V21.1889Z" fill="#FFFEF8"/>
<path d="M43.7557 21.5463C39.6485 21.5463 36.7109 18.5213 36.7109 14.2863C36.7109 9.99628 39.5669 6.99878 43.6741 6.99878C47.9445 6.99878 50.6101 9.83128 50.6101 14.3138V15.3863L40.7365 15.4413C40.9813 17.2563 41.9877 18.1088 43.8373 18.1088C45.4149 18.1088 46.5301 17.5313 46.8293 16.5413H50.6645C50.1749 19.5938 47.4821 21.5463 43.7557 21.5463ZM43.7013 10.4363C42.0421 10.4363 41.1173 11.1788 40.7909 12.8288H46.4485C46.4485 11.3713 45.3877 10.4363 43.7013 10.4363Z" fill="#FFFEF8"/>
</g>
</g>
<defs>
<clipPath id="clip0_16321_22863">
<rect width="51" height="22" fill="white"/>
</clipPath>
</defs>
</svg>
