<svg width="125" height="46" viewBox="0 0 125 46" fill="none" xmlns="http://www.w3.org/2000/svg">
<path d="M50.7504 21.7124C50.7504 23.0664 49.7791 24.1711 47.8134 24.1711H45.7481V26.7488C45.7474 26.7902 45.7307 26.8297 45.7017 26.859C45.6727 26.8881 45.6335 26.9049 45.5925 26.9055H44.88C44.8391 26.9049 44.7999 26.8881 44.7708 26.859C44.7419 26.8297 44.7252 26.7902 44.7246 26.7488V19.411C44.7252 19.3695 44.7418 19.33 44.7708 19.3007C44.7998 19.2713 44.839 19.2545 44.88 19.2539H47.8137C49.7795 19.2539 50.7507 20.3578 50.7507 21.7124H50.7504ZM49.6773 21.7124C49.6773 20.8438 49.1579 20.1323 47.6116 20.1323H45.7492V23.2927H47.6116C49.1577 23.2927 49.6774 22.584 49.6774 21.7124" fill="white"/>
<path d="M63.1674 23.0791C63.1794 23.5842 63.0926 24.0868 62.9118 24.5581C62.731 25.0294 62.46 25.4602 62.1141 25.826C61.7682 26.1916 61.3542 26.4851 60.8958 26.6896C60.4374 26.894 59.9436 27.0055 59.4424 27.0175C59.3941 27.0185 59.3455 27.0187 59.2972 27.0175C58.5227 27.0251 57.7636 26.8005 57.1159 26.3723C56.4683 25.9441 55.9616 25.3316 55.66 24.6125C55.3585 23.8935 55.2756 23.1002 55.4221 22.3336C55.5685 21.567 55.9377 20.8615 56.4826 20.3068C57.0276 19.752 57.7238 19.3731 58.4828 19.218C59.2418 19.0628 60.0295 19.1386 60.7458 19.4355C61.462 19.7325 62.0745 20.2374 62.5056 20.886C62.9367 21.5346 63.1669 22.2976 63.1669 23.0783L63.1674 23.0791ZM62.0935 23.0783C62.0935 21.2661 60.9208 20.0179 59.297 20.0179C57.6732 20.0179 56.5004 21.2666 56.5004 23.0783C56.5004 24.8901 57.6732 26.1392 59.2972 26.1392C60.9212 26.1392 62.0937 24.891 62.0937 23.0783" fill="white"/>
<path d="M74.0281 26.5944C74.0526 26.6232 74.0678 26.6589 74.0719 26.6967C74.076 26.7345 74.0687 26.7726 74.0509 26.8061C74.0331 26.8395 74.0057 26.8669 73.9723 26.8844C73.9388 26.9019 73.9009 26.909 73.8635 26.9045H73.1323C73.1085 26.9039 73.0852 26.8973 73.0645 26.8853C73.0439 26.8734 73.0265 26.8564 73.014 26.8359L71.1787 24.045H69.206V26.7482C69.2055 26.7895 69.1888 26.829 69.1598 26.8582C69.1308 26.8875 69.0917 26.9042 69.0506 26.9047H68.3372C68.2961 26.9041 68.2569 26.8874 68.2279 26.8582C68.1989 26.8289 68.1823 26.7895 68.1816 26.7482V19.4099C68.1824 19.3685 68.1989 19.3292 68.228 19.2999C68.2569 19.2707 68.2961 19.2539 68.3372 19.2532H71.146C73.1123 19.2532 74.0831 20.2944 74.0831 21.6492C74.0831 22.7246 73.4742 23.6028 72.2385 23.9193L74.0281 26.5944ZM70.9441 23.1662C72.4902 23.1662 73.0094 22.5202 73.0094 21.6484C73.0094 20.7797 72.4902 20.1304 70.9441 20.1304H69.2069V23.1662H70.9441Z" fill="white"/>
<path d="M85.2497 19.4107V19.975C85.2492 20.0159 85.2331 20.055 85.2046 20.0843C85.1762 20.1135 85.1377 20.1305 85.097 20.1316H82.4645V26.7487C82.4639 26.7901 82.4472 26.8296 82.4182 26.8588C82.3891 26.888 82.3499 26.9048 82.3089 26.9054H81.5968C81.5557 26.9048 81.5165 26.8881 81.4874 26.8588C81.4583 26.8297 81.4417 26.7901 81.441 26.7487V20.1316H78.81C78.769 20.1311 78.7297 20.1145 78.7005 20.0853C78.6715 20.056 78.6548 20.0164 78.6543 19.975V19.4107C78.6549 19.3693 78.6716 19.3297 78.7006 19.3005C78.7298 19.2712 78.769 19.2545 78.81 19.2539H85.0974C85.138 19.2552 85.1765 19.2722 85.2049 19.3013C85.2334 19.3306 85.2495 19.3697 85.25 19.4107" fill="white"/>
<path d="M95.9471 26.9677H95.0916C95.0535 26.9709 95.0154 26.9612 94.9833 26.9402C94.9513 26.9191 94.9269 26.8879 94.9143 26.8515L94.087 24.9234H90.5219L89.6358 26.8515C89.6219 26.8871 89.5973 26.9173 89.5656 26.9382C89.5338 26.959 89.4965 26.9694 89.4586 26.9677H88.6994C88.5875 26.9677 88.5223 26.8992 88.5754 26.7828L92.0843 19.3068C92.0978 19.2711 92.1224 19.2406 92.1542 19.2198C92.186 19.1989 92.2234 19.1887 92.2614 19.1907H92.51C92.5479 19.1895 92.5852 19.2 92.617 19.2207C92.6487 19.2415 92.6734 19.2715 92.6879 19.3068L96.0628 26.7828C96.1129 26.8989 96.06 26.9677 95.9478 26.9677H95.9471ZM93.7298 24.0954L92.3639 20.9124L90.9018 24.0954H93.7298Z" fill="white"/>
<path d="M106.093 26.1842V26.7486C106.094 26.768 106.091 26.7874 106.085 26.8058C106.079 26.8242 106.069 26.8411 106.056 26.8557C106.043 26.8702 106.028 26.8821 106.011 26.8906C105.993 26.8991 105.974 26.9041 105.955 26.9052C105.949 26.9056 105.943 26.9056 105.937 26.9052H100.876C100.835 26.9046 100.796 26.8878 100.767 26.8586C100.738 26.8293 100.721 26.7899 100.721 26.7486V19.4107C100.721 19.3693 100.738 19.3298 100.767 19.3006C100.796 19.2713 100.835 19.2546 100.876 19.2539H101.588C101.629 19.2545 101.669 19.2713 101.698 19.3006C101.727 19.3298 101.743 19.3693 101.744 19.4107V26.0272H105.938C105.977 26.0248 106.015 26.0383 106.044 26.0644C106.073 26.0905 106.091 26.1272 106.093 26.1665C106.093 26.1726 106.093 26.1785 106.093 26.1846" fill="white"/>
<path d="M23.2841 0.353516C10.881 0.353516 0.818359 10.4971 0.818359 23C0.818359 35.503 10.881 45.6465 23.2841 45.6465C35.6874 45.6465 45.7499 35.503 45.7499 23C45.7499 10.4971 35.6874 0.353516 23.2841 0.353516ZM23.2841 32.7534C17.9396 32.7534 13.6085 28.3877 13.6085 23C13.6085 17.6124 17.9396 13.2466 23.2841 13.2466C28.6288 13.2466 32.9597 17.6124 32.9597 23C32.9597 28.3877 28.6288 32.7534 23.2841 32.7534Z" fill="url(#paint0_radial_16417_6644)"/>
<defs>
<radialGradient id="paint0_radial_16417_6644" cx="0" cy="0" r="1" gradientUnits="userSpaceOnUse" gradientTransform="translate(23.282 22.997) scale(18.8297 18.9812)">
<stop offset="0.2254" stop-color="white"/>
<stop offset="0.5444" stop-color="white" stop-opacity="0.44"/>
<stop offset="0.6859" stop-color="white" stop-opacity="0.23"/>
<stop offset="0.8568" stop-color="white" stop-opacity="0.07"/>
<stop offset="1" stop-color="white" stop-opacity="0"/>
</radialGradient>
</defs>
</svg>
