<svg width="109" height="16" viewBox="0 0 109 16" fill="none" xmlns="http://www.w3.org/2000/svg">
<mask id="mask0_16321_22908" style="mask-type:luminance" maskUnits="userSpaceOnUse" x="0" y="0" width="109" height="16">
<path d="M0.666016 0H108.333V16H0.666016V0Z" fill="white"/>
</mask>
<g mask="url(#mask0_16321_22908)">
<path d="M18.7535 12.6148L15.8002 15.7815C15.7363 15.8503 15.6589 15.9052 15.5729 15.9427C15.4869 15.9803 15.394 15.9997 15.3002 15.9998H1.30017C1.2334 15.9998 1.16809 15.9803 1.11223 15.9437C1.05637 15.9071 1.0124 15.855 0.985692 15.7938C0.958984 15.7326 0.950701 15.665 0.961858 15.5991C0.973014 15.5333 1.00313 15.4721 1.04851 15.4232L3.99851 12.2565C4.06238 12.1877 4.13974 12.1328 4.22577 12.0953C4.31179 12.0577 4.40464 12.0383 4.49851 12.0382H18.4985C18.5659 12.0368 18.6322 12.0553 18.689 12.0915C18.7459 12.1277 18.7908 12.1799 18.818 12.2416C18.8453 12.3032 18.8537 12.3716 18.8422 12.438C18.8307 12.5044 18.7999 12.5659 18.7535 12.6148ZM15.8002 6.2365C15.736 6.16803 15.6586 6.11335 15.5727 6.07581C15.4867 6.03827 15.394 6.01866 15.3002 6.01816H1.30017C1.2334 6.0182 1.16809 6.03771 1.11223 6.0743C1.05637 6.11089 1.0124 6.16297 0.985692 6.22417C0.958984 6.28537 0.950701 6.35303 0.961858 6.41886C0.973014 6.48469 1.00313 6.54585 1.04851 6.59483L3.99851 9.76316C4.06263 9.83163 4.14004 9.88631 4.22601 9.92385C4.31198 9.96139 4.4047 9.981 4.49851 9.9815H18.4985C18.5651 9.98114 18.6302 9.96139 18.6858 9.92468C18.7414 9.88797 18.7852 9.83587 18.8117 9.77473C18.8382 9.7136 18.8463 9.64607 18.8351 9.58039C18.8239 9.51471 18.7938 9.45371 18.7485 9.40483L15.8002 6.2365ZM1.30017 3.9615H15.3002C15.394 3.96142 15.4869 3.94199 15.5729 3.90442C15.6589 3.86686 15.7363 3.81196 15.8002 3.74316L18.7535 0.576496C18.7881 0.539898 18.8142 0.496104 18.83 0.448244C18.8457 0.400384 18.8506 0.349641 18.8445 0.299642C18.8383 0.249643 18.8212 0.201622 18.7943 0.159013C18.7674 0.116404 18.7315 0.0802597 18.689 0.0531626C18.6322 0.0169883 18.5659 -0.00156736 18.4985 -0.000170717H4.49851C4.40464 -7.19106e-05 4.31179 0.0193657 4.22577 0.0569299C4.13974 0.0944941 4.06238 0.149379 3.99851 0.218163L1.04851 3.38483C1.00313 3.43381 0.973014 3.49496 0.961858 3.5608C0.950701 3.62663 0.958984 3.69429 0.985692 3.75549C1.0124 3.81669 1.05637 3.86877 1.11223 3.90536C1.16809 3.94195 1.2334 3.96146 1.30017 3.9615Z" fill="white"/>
<path d="M35.822 6.76653H28.332V4.29987H37.7687V1.8332H28.307C27.9837 1.8314 27.6633 1.89331 27.3639 2.01538C27.0646 2.13746 26.7922 2.31731 26.5624 2.54467C26.3325 2.77203 26.1497 3.04244 26.0244 3.34045C25.8991 3.63847 25.8337 3.95825 25.832 4.28153V6.78153C25.8333 7.1051 25.8983 7.42524 26.0235 7.72364C26.1486 8.02204 26.3313 8.29284 26.5612 8.52055C26.7911 8.74826 27.0636 8.92842 27.3632 9.0507C27.6627 9.17298 27.9835 9.235 28.307 9.2332H35.807V11.6999H26.0104V14.1665H35.822C36.3089 14.1693 36.7857 14.0275 37.192 13.7592C37.5983 13.4909 37.9159 13.1081 38.1045 12.6592C38.2299 12.3612 38.2953 12.0415 38.297 11.7182V9.2182C38.2957 8.89464 38.2307 8.57451 38.1056 8.27612C37.9804 7.97773 37.7977 7.70694 37.5678 7.47923C37.338 7.25152 37.0654 7.07137 36.7659 6.94908C36.4663 6.82679 36.1456 6.76476 35.822 6.76653ZM50.332 1.8332H42.8137C42.326 1.82931 41.8481 1.97036 41.4407 2.23845C41.0333 2.50654 40.7146 2.8896 40.5252 3.33903C40.3994 3.63741 40.3337 3.95771 40.332 4.28153V11.7182C40.3337 12.042 40.3994 12.3624 40.5252 12.6609C40.7146 13.1103 41.0332 13.4934 41.4407 13.7614C41.8481 14.0295 42.326 14.1705 42.8137 14.1665H50.332C50.6553 14.1683 50.9758 14.1064 51.2751 13.9844C51.5745 13.8623 51.8469 13.6824 52.0767 13.4551C52.3065 13.2277 52.4893 12.9573 52.6146 12.6593C52.74 12.3613 52.8053 12.0415 52.807 11.7182V4.28153C52.8054 3.95826 52.74 3.63848 52.6146 3.34049C52.4893 3.0425 52.3064 2.77214 52.0765 2.54487C51.8468 2.31743 51.5744 2.13752 51.2751 2.0154C50.9758 1.89329 50.6553 1.83138 50.332 1.8332ZM50.3137 11.6999H42.832V4.29987H50.3104L50.3137 11.6999ZM76.6654 1.8332H69.332C69.0087 1.8314 68.6883 1.89331 68.3889 2.01538C68.0896 2.13746 67.8172 2.31731 67.5874 2.54467C67.3575 2.77203 67.1747 3.04244 67.0494 3.34045C66.9241 3.63847 66.8587 3.95825 66.857 4.28153V14.1665H69.357V10.1149H76.657V14.1665H79.157V4.28153C79.1554 3.95682 79.0895 3.63564 78.9632 3.33651C78.8368 3.03738 78.6525 2.76621 78.4209 2.53862C78.1893 2.31103 77.9149 2.13153 77.6136 2.01046C77.3123 1.88939 76.9901 1.82915 76.6654 1.8332ZM76.647 7.6482H69.347V4.29987H76.647V7.6482ZM105.857 1.8332H98.5237C98.2004 1.8314 97.8799 1.89331 97.5806 2.01538C97.2812 2.13746 97.0089 2.31731 96.779 2.54467C96.5492 2.77203 96.3664 3.04244 96.2411 3.34045C96.1158 3.63847 96.0504 3.95825 96.0487 4.28153V14.1665H98.5487V10.1149H105.832V14.1665H108.332V4.28153C108.33 3.95826 108.265 3.63848 108.14 3.34049C108.014 3.0425 107.831 2.77214 107.602 2.54487C107.137 2.08571 106.51 1.82972 105.857 1.8332ZM105.832 7.6482H98.532V4.29987H105.832V7.6482ZM91.332 11.6999H90.332L86.757 2.86653C86.6345 2.56175 86.4238 2.30052 86.1517 2.1164C85.8797 1.93228 85.5588 1.83366 85.2304 1.8332H83.012C82.6873 1.83145 82.3694 1.92609 82.0985 2.10514C81.8275 2.28419 81.6159 2.5396 81.4902 2.83903C81.4067 3.03777 81.3632 3.25098 81.362 3.46653V14.1665H83.862V4.29987H84.862L88.4354 13.1332C88.5599 13.4374 88.7722 13.6976 89.0454 13.8805C89.3185 14.0634 89.64 14.1606 89.9687 14.1599H92.187C92.4026 14.161 92.6164 14.1197 92.816 14.0382C93.0156 13.9567 93.1972 13.8366 93.3504 13.6849C93.6597 13.3785 93.8348 12.9619 93.837 12.5265V1.8332H91.332V11.6999ZM57.5154 1.8332H55.0154V11.7182C55.017 12.0422 55.0827 12.3626 55.2085 12.6612C55.3344 12.9597 55.518 13.2305 55.7487 13.4579C55.9794 13.6853 56.2528 13.865 56.5531 13.9866C56.8534 14.1082 57.1747 14.1693 57.4987 14.1665H64.9987V11.6999H57.5154V1.8332Z" fill="white"/>
</g>
</svg>
