<svg width="41" height="22" viewBox="0 0 41 22" fill="none" xmlns="http://www.w3.org/2000/svg">
<g clip-path="url(#clip0_1624_1333)">
<path d="M26.5474 8.45948C26.4735 7.82072 26.1735 7.32483 25.6476 6.97187C25.1218 6.61883 24.4767 6.44233 23.7126 6.44233C23.1538 6.44233 22.6649 6.53479 22.2459 6.71969C21.8309 6.90463 21.5063 7.15887 21.2721 7.4824C21.0421 7.80601 20.9271 8.17375 20.9271 8.58557C20.9271 8.93014 21.0072 9.22645 21.1674 9.47437C21.3318 9.71808 21.5413 9.92193 21.796 10.0858C22.0507 10.2455 22.3178 10.3779 22.5971 10.4829C22.8765 10.5838 23.1333 10.6657 23.3674 10.7288L24.6493 11.0818C24.978 11.17 25.3436 11.2919 25.7463 11.4474C26.153 11.6029 26.5412 11.8151 26.9111 12.084C27.2849 12.3488 27.593 12.6892 27.8354 13.1053C28.0778 13.5213 28.199 14.0319 28.199 14.637C28.199 15.3346 28.0203 15.965 27.6629 16.5281C27.3096 17.0912 26.7919 17.5388 26.1099 17.8708C25.432 18.2028 24.6082 18.3688 23.6386 18.3688C22.7348 18.3688 21.9521 18.2196 21.2906 17.9212C20.6333 17.6228 20.1156 17.2068 19.7377 16.6731C19.3638 16.1394 19.1522 15.5196 19.1029 14.8135H20.6805C20.7216 15.301 20.8818 15.7044 21.1612 16.0238C21.4447 16.339 21.8021 16.5743 22.2336 16.7298C22.669 16.8811 23.1374 16.9568 23.6386 16.9568C24.2221 16.9568 24.7459 16.8601 25.2101 16.6668C25.6744 16.4693 26.0421 16.1961 26.3133 15.8473C26.5844 15.4943 26.72 15.0825 26.72 14.6118C26.72 14.1832 26.6029 13.8344 26.3687 13.5654C26.1345 13.2965 25.8264 13.0779 25.4443 12.9098C25.0622 12.7417 24.6493 12.5947 24.2056 12.4686L22.6526 12.0147C21.6665 11.7248 20.8859 11.3108 20.3108 10.7729C19.7356 10.235 19.448 9.53108 19.448 8.66119C19.448 7.93842 19.6391 7.30805 20.0211 6.77012C20.4073 6.22801 20.925 5.80777 21.5741 5.5094C22.2274 5.20683 22.9566 5.05554 23.7619 5.05554C24.5753 5.05554 25.2985 5.20472 25.9312 5.5031C26.5638 5.79727 27.0651 6.2007 27.4348 6.71339C27.8088 7.2261 28.006 7.80814 28.0265 8.45948H26.5474Z" fill="white"/>
<path d="M35.4389 14.1832V8.45947H36.8932V18.1418H35.4389V16.5029H35.3403C35.1184 16.9946 34.7733 17.4127 34.3049 17.7573C33.8365 18.0977 33.2449 18.2679 32.53 18.2679C31.9384 18.2679 31.4126 18.1356 30.9524 17.8708C30.4923 17.6018 30.1307 17.1984 29.8678 16.6605C29.6049 16.1184 29.4734 15.4355 29.4734 14.6118V8.45947H30.9277V14.5109C30.9277 15.217 31.1208 15.78 31.5071 16.2003C31.8974 16.6206 32.3945 16.8307 32.9984 16.8307C33.36 16.8307 33.7277 16.7361 34.1015 16.547C34.4796 16.3579 34.7959 16.068 35.0506 15.6771C35.3094 15.2863 35.4389 14.7883 35.4389 14.1832Z" fill="white"/>
<path d="M38.5159 18.1418V8.45948H39.9703V18.1418H38.5159ZM39.2554 6.84577C38.9719 6.84577 38.7275 6.74701 38.5221 6.54949C38.3207 6.35198 38.2201 6.11455 38.2201 5.83719C38.2201 5.55983 38.3207 5.3224 38.5221 5.12488C38.7275 4.92737 38.9719 4.82861 39.2554 4.82861C39.5389 4.82861 39.7813 4.92737 39.9826 5.12488C40.188 5.3224 40.2907 5.55983 40.2907 5.83719C40.2907 6.11455 40.188 6.35198 39.9826 6.54949C39.7813 6.74701 39.5389 6.84577 39.2554 6.84577Z" fill="white"/>
<path fill-rule="evenodd" clip-rule="evenodd" d="M26.4494 8.56858L26.4381 8.47068C26.3678 7.86445 26.0856 7.39777 25.5865 7.06275C25.0818 6.72394 24.4585 6.55142 23.7109 6.55142C23.1638 6.55142 22.6901 6.64195 22.2873 6.81963C21.8874 6.99785 21.5792 7.24068 21.358 7.5462C21.1419 7.85015 21.0339 8.19472 21.0339 8.58371C21.0339 8.90965 21.1093 9.18355 21.2556 9.41043C21.4111 9.64074 21.6093 9.83379 21.8515 9.98972C22.0999 10.1453 22.3601 10.2743 22.6323 10.3767C22.9092 10.4767 23.1628 10.5576 23.3934 10.6197L24.6752 10.9726C24.6751 10.9726 24.6753 10.9726 24.6752 10.9726C25.0082 11.0621 25.3776 11.1853 25.7827 11.3417C26.1985 11.5006 26.5947 11.7173 26.9717 11.9914C27.3586 12.2655 27.677 12.6177 27.9269 13.0466C28.1816 13.4836 28.3058 14.015 28.3058 14.6352C28.3058 15.3532 28.1216 16.0046 27.7524 16.5863C27.3866 17.1693 26.8522 17.6296 26.155 17.969C25.4589 18.3099 24.6182 18.4779 23.637 18.4779C22.7217 18.4779 21.9234 18.3268 21.2452 18.0209C20.5724 17.7156 20.0386 17.2877 19.6481 16.7363C19.2617 16.1846 19.0436 15.5444 18.993 14.8196L18.9847 14.7007H20.7784L20.7869 14.8021C20.8262 15.269 20.9787 15.6485 21.2399 15.9475C21.5101 16.2476 21.8517 16.4732 22.2674 16.6231C22.6905 16.77 23.1468 16.844 23.637 16.844C24.2084 16.844 24.7179 16.7494 25.1671 16.5624C25.6168 16.371 25.9685 16.1084 26.2266 15.7765C26.4818 15.4442 26.6099 15.0569 26.6099 14.61C26.6099 14.2031 26.4993 13.8823 26.286 13.6373C26.0642 13.3825 25.7699 13.1728 25.3998 13.0099C25.0226 12.844 24.6144 12.6985 24.1749 12.5736L24.1741 12.5734L22.6211 12.1195C21.6239 11.8262 20.8267 11.4055 20.2359 10.8529C19.6361 10.2919 19.3379 9.55721 19.3379 8.65933C19.3379 7.91525 19.5349 7.26158 19.9317 6.70306C20.3299 6.14408 20.8631 5.712 21.5279 5.40642C22.1968 5.09662 22.9415 4.94274 23.7602 4.94274C24.5867 4.94274 25.3256 5.09433 25.9746 5.40037C26.622 5.70139 27.1384 6.11602 27.5203 6.64546C27.9076 7.17667 28.1119 7.78057 28.1332 8.45405L28.1368 8.56858H26.4494ZM27.4332 6.71154C27.0634 6.19885 26.5622 5.79542 25.9295 5.50125C25.2968 5.20287 24.5737 5.05369 23.7602 5.05369C22.955 5.05369 22.2257 5.20498 21.5724 5.50755C20.9233 5.80592 20.4057 6.22616 20.0195 6.76827C19.6374 7.3062 19.4464 7.93657 19.4464 8.65933C19.4464 9.52923 19.7339 10.2332 20.3091 10.7711C20.8843 11.309 21.6649 11.7229 22.6509 12.0129L24.2039 12.4667C24.6476 12.5928 25.0605 12.7399 25.4426 12.908C25.8247 13.0761 26.1329 13.2946 26.367 13.5635C26.6012 13.8325 26.7183 14.1813 26.7183 14.61C26.7183 15.0807 26.5827 15.4925 26.3116 15.8455C26.0404 16.1943 25.6727 16.4674 25.2085 16.6649C24.7442 16.8583 24.2204 16.9549 23.637 16.9549C23.1358 16.9549 22.6673 16.8793 22.2319 16.728C21.8005 16.5725 21.4431 16.3371 21.1596 16.022C20.8802 15.7026 20.72 15.2991 20.6788 14.8117H19.1012C19.1038 14.8489 19.1069 14.8859 19.1104 14.9226C19.1733 15.5828 19.3818 16.1657 19.736 16.6713C20.114 17.205 20.6316 17.621 21.289 17.9193C21.9505 18.2177 22.7331 18.3669 23.637 18.3669C24.6066 18.3669 25.4303 18.2009 26.1082 17.8689C26.7902 17.537 27.3079 17.0894 27.6612 16.5263C28.0187 15.9631 28.1974 15.3328 28.1974 14.6352C28.1974 14.03 28.0762 13.5194 27.8338 13.1034C27.5914 12.6873 27.2832 12.3469 26.9094 12.0822C26.5396 11.8132 26.1513 11.601 25.7446 11.4456C25.342 11.2901 24.9763 11.1682 24.6476 11.08L23.3658 10.7269C23.1317 10.6639 22.8748 10.5819 22.5955 10.4811C22.3161 10.376 22.0491 10.2437 21.7943 10.084C21.5396 9.92007 21.3301 9.71623 21.1657 9.47251C21.0055 9.2246 20.9254 8.92828 20.9254 8.58371C20.9254 8.1719 21.0404 7.80415 21.2705 7.48055C21.5047 7.15701 21.8293 6.90277 22.2442 6.71784C22.6632 6.53294 23.1522 6.44048 23.7109 6.44048C24.4751 6.44048 25.1201 6.61698 25.646 6.97001C26.1719 7.32297 26.4718 7.81887 26.5457 8.45762H28.0248C28.0236 8.42043 28.0219 8.38344 28.0195 8.34673C27.9811 7.74001 27.7857 7.19496 27.4332 6.71154ZM35.3288 8.34673H37.0001V18.2509H35.3288V16.7649C35.1002 17.1821 34.7788 17.5422 34.3666 17.8455C33.8758 18.2022 33.2603 18.377 32.5285 18.377C31.9205 18.377 31.3759 18.2408 30.8976 17.9656L30.897 17.9653C30.4162 17.6843 30.0406 17.2635 29.7692 16.7082C29.4965 16.1463 29.3633 15.4449 29.3633 14.61V8.34673H31.0346V14.5091C31.0346 15.1934 31.2212 15.727 31.5842 16.1222C31.9526 16.5188 32.4205 16.7179 32.9968 16.7179C33.3393 16.7179 33.6906 16.6284 34.0518 16.4457C34.411 16.266 34.7137 15.9897 34.9587 15.6137L34.9591 15.6131C35.2029 15.2452 35.3288 14.7705 35.3288 14.1813V8.34673ZM31.5054 16.1985C31.1193 15.7783 30.9262 15.2151 30.9262 14.5091V8.45762H29.4717V14.61C29.4717 15.4336 29.6032 16.1165 29.8661 16.6586C30.1291 17.1966 30.4906 17.6 30.9508 17.8689C31.411 18.1337 31.9368 18.266 32.5285 18.266C33.2433 18.266 33.8349 18.0958 34.3033 17.7554C34.7648 17.416 35.1066 17.005 35.3288 16.5227C35.332 16.5155 35.3353 16.5082 35.3386 16.501H35.4372V18.14H36.8916V8.45762H35.4372V14.1813C35.4372 14.7865 35.3078 15.2844 35.0489 15.6753C34.7943 16.0661 34.4779 16.356 34.0999 16.5452C33.7261 16.7343 33.3583 16.8288 32.9968 16.8288C32.3929 16.8288 31.8957 16.6187 31.5054 16.1985ZM38.4057 18.2509V8.34673H40.077V18.2509H38.4057ZM38.4461 6.62848L38.4453 6.62772C38.2234 6.40995 38.1099 6.14389 38.1099 5.83534C38.1099 5.52679 38.2234 5.26072 38.4453 5.04296L38.4461 5.04219C38.6717 4.82522 38.9428 4.71582 39.2537 4.71582C39.5645 4.71582 39.8338 4.82517 40.0556 5.04262C40.2816 5.26009 40.3975 5.52622 40.3975 5.83534C40.3975 6.14446 40.2816 6.4106 40.0556 6.62807C39.8338 6.84552 39.5645 6.95488 39.2537 6.95488C38.9428 6.95488 38.6717 6.84545 38.4461 6.62848ZM39.9809 6.54764C40.1863 6.35013 40.2891 6.1127 40.2891 5.83534C40.2891 5.55798 40.1863 5.32055 39.9809 5.12303C39.7796 4.92551 39.5372 4.82676 39.2537 4.82676C38.9702 4.82676 38.7258 4.92551 38.5204 5.12303C38.3191 5.32055 38.2184 5.55798 38.2184 5.83534C38.2184 6.1127 38.3191 6.35013 38.5204 6.54764C38.7258 6.74516 38.9702 6.84391 39.2537 6.84391C39.5372 6.84391 39.7796 6.74516 39.9809 6.54764ZM38.5142 18.14H39.9686V8.45762H38.5142V18.14Z" fill="white"/>
<path fill-rule="evenodd" clip-rule="evenodd" d="M13.1042 8.93021L13.1038 8.93111C13.9578 10.0264 14.4682 11.4137 14.4682 12.9227C14.4682 14.454 13.9425 15.8601 13.0655 16.9629L12.99 17.0578L12.9699 16.9372C12.9529 16.8345 12.9329 16.7309 12.9097 16.6265C12.4707 14.6539 11.0406 12.9623 8.68686 11.5927C7.09741 10.6703 6.1876 9.55969 5.94873 8.29785C5.79447 7.48186 5.90916 6.66225 6.13081 5.96025C6.35238 5.25847 6.68201 4.67049 6.96204 4.3165L7.87782 3.17107C8.03839 2.97024 8.3389 2.97024 8.49947 3.17107L13.1042 8.93021ZM14.5524 7.78601L8.41545 0.109917C8.2983 -0.0366389 8.07892 -0.036639 7.96177 0.109917L1.82462 7.78566L1.80482 7.81144C0.675468 9.24488 -0.000366211 11.0665 -0.000366211 13.0496C-0.000366211 17.668 3.66589 21.4121 8.18861 21.4121C12.7114 21.4121 16.3776 17.668 16.3776 13.0496C16.3776 11.0665 15.7018 9.24488 14.5724 7.81144L14.5524 7.78601ZM3.29305 8.90546L3.84223 8.21858L3.85882 8.34529C3.87196 8.44573 3.88789 8.54666 3.90679 8.64799C4.26197 10.5542 5.53076 12.1435 7.65205 13.3745C9.49597 14.448 10.5696 15.6823 10.8789 17.0361C11.0079 17.6011 11.031 18.1569 10.9751 18.6429L10.9716 18.673L10.945 18.6863C10.1128 19.1022 9.17725 19.3356 8.18841 19.3356C4.72031 19.3356 1.90869 16.4645 1.90869 12.9227C1.90869 11.402 2.427 10.0047 3.29305 8.90546Z" fill="white"/>
</g>
<defs>
<clipPath id="clip0_1624_1333">
<rect width="41" height="22" fill="white" transform="translate(-0.000366211)"/>
</clipPath>
</defs>
</svg>
