<svg width="91" height="14" viewBox="0 0 91 14" fill="none" xmlns="http://www.w3.org/2000/svg">
<path d="M0 7.17303H3.33752C3.33752 7.80225 3.40529 8.00674 3.67636 8.16405C3.99825 8.35281 4.37097 8.38427 6.79364 8.38427C10.4869 8.38427 10.4869 8.38427 10.4869 7.45618C10.4869 6.82697 10.2328 6.66966 9.1316 6.65393L6.42092 6.55955L4.59121 6.4809L3.67636 6.44944C0.88097 6.37079 0.10165 5.71011 0.10165 3.39775C0.10165 1.4 0.711553 0.503371 2.27019 0.188764C2.93092 0.0629214 4.48956 0 7.20024 0C10.4869 0 11.6729 0.141573 12.4691 0.644944C13.1468 1.06966 13.4179 1.73034 13.4179 2.97303C13.4179 3.03596 13.4179 3.25618 13.4009 3.46067H10.0803C10.0465 2.87865 9.99563 2.73708 9.7415 2.59551C9.45349 2.4382 9.02995 2.40674 6.59034 2.40674C3.67636 2.40674 3.43917 2.46966 3.43917 3.24045C3.43917 3.63371 3.59165 3.8382 3.94743 3.91685C4.25238 3.99551 5.18418 4.0427 7.57296 4.10562C11.3001 4.21573 12.0286 4.29438 12.7571 4.7191C13.5365 5.19101 13.8245 5.89888 13.8245 7.3618C13.8245 9.18652 13.3501 10.0831 12.1811 10.4921C11.5034 10.7281 10.0803 10.8067 6.70893 10.8067C3.20199 10.8067 1.82971 10.6652 1.03345 10.1933C0.254126 9.73708 0 9.1236 0 7.6764V7.17303Z" fill="#FFFEF8"/>
<path d="M14.0461 3.20899H17.3328L19.6199 8.62023L22.1612 3.20899H25.4818L21.2124 11.609C20.3823 13.2292 20.3315 13.3079 19.8232 13.591C19.3319 13.8742 18.6712 14 17.6377 14C17.0109 14 16.5535 13.9843 16.3502 13.9528V12.0494C16.5196 12.0337 16.5365 12.0337 17.0278 12.0337C18.0274 12.0494 18.3323 11.7978 18.8237 10.6494H17.6208L14.0461 3.20899Z" fill="#FFFEF8"/>
<path d="M25.9767 3.20899H28.806V4.34157H28.9584C29.5006 3.38202 30.4154 3.02022 32.3637 3.02022C34.2782 3.02022 35.2608 3.27191 35.9723 3.94831C36.7008 4.65618 36.8533 5.22247 36.8533 7.26742V10.6494H33.8546V7.26742C33.8546 6.07191 33.8038 5.80449 33.4819 5.52135C33.16 5.22247 32.584 5.11236 31.4658 5.11236C30.3646 5.11236 29.7716 5.25393 29.4159 5.6C29.0432 5.9618 28.9754 6.30787 28.9754 7.6764V10.6494H25.9767V3.20899Z" fill="#FFFEF8"/>
<path d="M43.6393 3.02022C46.3839 3.02022 47.5359 3.19326 48.2814 3.69663C49.0946 4.24719 49.3148 4.9236 49.3148 6.79551C49.3148 8.84045 49.1115 9.53258 48.383 10.0989C47.6206 10.6809 46.6211 10.8382 43.6563 10.8382C40.6576 10.8382 39.658 10.6809 38.8956 10.0989C38.1502 9.53258 37.9638 8.84045 37.9638 6.68539C37.9638 4.93933 38.201 4.23146 38.9973 3.69663C39.7427 3.19326 40.9117 3.02022 43.6393 3.02022ZM43.6563 5.11236C41.3691 5.11236 40.9625 5.39551 40.9625 6.98427C40.9625 7.97528 41.0981 8.30562 41.6402 8.51011C42.0129 8.66742 42.6906 8.74607 43.6563 8.74607C45.9264 8.74607 46.3161 8.47865 46.3161 6.90562C46.3161 5.89888 46.1467 5.53708 45.5876 5.33258C45.2149 5.19101 44.5033 5.11236 43.6563 5.11236Z" fill="#FFFEF8"/>
<path d="M50.4576 3.20899H53.2869V4.34157H53.4394C53.9815 3.38202 54.8964 3.02022 56.8447 3.02022C58.7591 3.02022 59.7417 3.27191 60.4533 3.94831C61.1818 4.65618 61.3342 5.22247 61.3342 7.26742V10.6494H58.3355V7.26742C58.3355 6.07191 58.2847 5.80449 57.9628 5.52135C57.6409 5.22247 57.0649 5.11236 55.9468 5.11236C54.8455 5.11236 54.2526 5.25393 53.8968 5.6C53.5241 5.9618 53.4563 6.30787 53.4563 7.6764V10.6494H50.4576V3.20899Z" fill="#FFFEF8"/>
<path d="M61.5686 3.20899H64.8553L67.1424 8.62023L69.6836 3.20899H73.0042L68.7349 11.609C67.9048 13.2292 67.8539 13.3079 67.3457 13.591C66.8544 13.8742 66.1936 14 65.1602 14C64.5334 14 64.0759 13.9843 63.8726 13.9528V12.0494C64.042 12.0337 64.059 12.0337 64.5503 12.0337C65.5499 12.0494 65.8548 11.7978 66.3461 10.6494H65.1433L61.5686 3.20899Z" fill="#FFFEF8"/>
<path d="M73.4992 3.20899H76.3284V4.32584H76.4809C76.9214 3.42921 77.9379 3.02022 79.7168 3.02022C81.6481 3.02022 82.7155 3.4764 83.3593 4.57753C83.8675 3.46067 84.8502 3.02022 86.8154 3.02022C88.4757 3.02022 89.4583 3.30337 90.1529 3.97978C90.8475 4.64045 91 5.25393 91 7.17303V10.6494H88.0013V7.17303C87.9844 5.93034 87.9505 5.78876 87.6625 5.52135C87.3575 5.2382 86.8493 5.11236 85.9683 5.11236C85.0704 5.11236 84.5113 5.25393 84.1894 5.58427C83.8506 5.93034 83.7489 6.37079 83.7489 7.58202V10.6494H80.7502V7.17303C80.7502 6.00899 80.7164 5.80449 80.4283 5.52135C80.1573 5.2382 79.6321 5.11236 78.7681 5.11236C77.8701 5.11236 77.2772 5.25393 76.9384 5.56854C76.5995 5.88315 76.4979 6.35506 76.4979 7.58202V10.6494H73.4992V3.20899Z" fill="#FFFEF8"/>
</svg>
