<svg width="113" height="8" viewBox="0 0 113 8" fill="none" xmlns="http://www.w3.org/2000/svg">
<g clip-path="url(#clip0_1624_1412)">
<path d="M10.9049 3.79396C10.4231 3.33456 9.84391 3.10496 9.16731 3.10496H2.46032C2.33576 3.10496 2.22889 3.06275 2.13951 2.97812C2.05013 2.8937 2.00554 2.79074 2.00554 2.66922V2.13862C2.00554 2.02265 2.05013 1.92224 2.13951 1.83761C2.22889 1.75319 2.33576 1.71077 2.46032 1.71077H11.1079C11.1296 1.71077 11.1471 1.70416 11.1606 1.69094C11.1742 1.67794 11.1809 1.66323 11.1809 1.64745V0.0633144C11.1809 0.0422096 11.1742 0.0264343 11.1606 0.0157753C11.1471 0.00532948 11.1293 0 11.1079 0H2.46032C1.77826 0 1.1976 0.229808 0.71856 0.689212C0.23952 1.14861 0 1.70288 0 2.35244V2.4554C0 3.11029 0.23952 3.66733 0.71856 4.12672C1.1976 4.58612 1.77826 4.81572 2.46032 4.81572H9.16731C9.28642 4.81572 9.39067 4.85668 9.47983 4.93852C9.5692 5.0204 9.61378 5.12208 9.61378 5.2436V5.7742C9.61378 5.89568 9.5692 5.9974 9.47983 6.07924C9.39042 6.16112 9.28621 6.20204 9.16731 6.20204H0.511601C0.495431 6.20204 0.480349 6.20864 0.46702 6.22188C0.453472 6.23508 0.446696 6.25236 0.446696 6.27344V7.8576C0.446696 7.87336 0.453472 7.88808 0.46702 7.90108C0.480568 7.91428 0.495431 7.92092 0.511601 7.92092H9.16731C9.84391 7.92092 10.4231 7.69004 10.9049 7.22784C11.3866 6.76588 11.6276 6.21012 11.6276 5.5606V5.4574C11.6274 4.80784 11.3866 4.25336 10.9049 3.79396Z" fill="white"/>
<path d="M25.4662 0H23.5904C23.5742 0 23.5592 0.00532948 23.5458 0.0157753C23.5323 0.0264343 23.5255 0.0422096 23.5255 0.0633144V2.07509C23.5255 2.24926 23.4333 2.38143 23.2495 2.47118L19.5064 3.9839L15.7632 2.47118C15.5792 2.38143 15.4872 2.24947 15.4872 2.07509V0.0633144C15.4872 0.0422096 15.4817 0.0264343 15.471 0.0157753C15.4599 0.00532948 15.4437 0 15.4221 0H13.5463C13.5302 0 13.5151 0.00532948 13.5017 0.0157753C13.4882 0.0264343 13.4814 0.0422096 13.4814 0.0633144V2.36822C13.4814 2.71165 13.5789 3.02566 13.7738 3.31068C13.9688 3.59592 14.2338 3.80696 14.5695 3.94425L18.4996 5.55204V7.84928C18.4996 7.8704 18.5063 7.88764 18.5198 7.90088C18.5334 7.91408 18.5509 7.92068 18.5726 7.92068H20.4483C20.4644 7.92068 20.4793 7.91408 20.4928 7.90088C20.5064 7.88764 20.5132 7.8706 20.5132 7.84928V5.55228L24.4431 3.95235C24.7786 3.80974 25.0442 3.5972 25.2388 3.31473C25.4338 3.03227 25.531 2.71954 25.531 2.3761V0.0633144C25.531 0.0422096 25.5243 0.0264343 25.5107 0.0157753C25.4972 0.00532948 25.4823 0 25.4662 0Z" fill="white"/>
<path d="M39.3984 0H37.5227C37.5011 0 37.4847 0.00660856 37.474 0.0198257C37.463 0.0330429 37.4578 0.0475392 37.4578 0.0633144V6.20972H36.6702C36.524 6.20972 36.3994 6.1464 36.2967 6.01956L32.6591 0.831616C32.2692 0.298452 31.7305 0.0211048 31.0432 0H27.9091C27.8875 0 27.8698 0.00660856 27.8563 0.0198257C27.8427 0.0330429 27.8359 0.0475392 27.8359 0.0633144V7.85716C27.8359 7.87296 27.8427 7.88764 27.8563 7.90064C27.8698 7.91388 27.8873 7.92048 27.9091 7.92048H29.7849C29.8011 7.92048 29.8159 7.91388 29.8294 7.90064C29.843 7.88764 29.8498 7.87296 29.8498 7.85716V1.71077H30.6374C30.7836 1.71077 30.908 1.77686 31.0109 1.90881L34.6485 7.09676C35.0384 7.63012 35.5768 7.90472 36.2644 7.92048H39.3986C39.4203 7.92048 39.4365 7.91388 39.4474 7.90064C39.4581 7.88764 39.4636 7.87296 39.4636 7.85716V0.0633144C39.4636 0.0475392 39.4581 0.0330429 39.4474 0.0198257C39.4363 0.00660856 39.4201 0 39.3984 0Z" fill="white"/>
<path d="M52.9557 0H41.466C41.4445 0 41.4281 0.00660856 41.4173 0.0198257C41.4062 0.0330429 41.4012 0.0475392 41.4012 0.0633144V1.64746C41.4012 1.66323 41.4062 1.67794 41.4173 1.69094C41.4281 1.70416 41.4445 1.71077 41.466 1.71077H46.2079V7.85716C46.2079 7.87296 46.2132 7.88764 46.224 7.90064C46.2347 7.91388 46.2512 7.92048 46.2726 7.92048H48.1487C48.1701 7.92048 48.1862 7.91388 48.1973 7.90064C48.2081 7.88764 48.2134 7.87296 48.2134 7.85716V1.71077H52.9553C52.9771 1.71077 52.9945 1.70416 53.0081 1.69094C53.0217 1.67772 53.0283 1.66323 53.0283 1.64746V0.0633144C53.0283 0.0475392 53.0217 0.0330429 53.0081 0.0198257C52.9949 0.00660856 52.9771 0 52.9557 0Z" fill="white"/>
<path d="M66.8873 0H65.0117C64.9952 0 64.9804 0.00660856 64.9668 0.0198257C64.9536 0.0330429 64.9465 0.0475392 64.9465 0.0633144V3.10475H57.3467V0.0633144C57.3467 0.0475392 57.3397 0.0330429 57.3261 0.0198257C57.3125 0.00682176 57.2947 0 57.2737 0H55.3976C55.3815 0 55.3667 0.00660856 55.3531 0.0198257C55.3395 0.0330429 55.3329 0.0475392 55.3329 0.0633144V7.85716C55.3329 7.87296 55.3395 7.88764 55.3531 7.90064C55.3667 7.91388 55.3815 7.92048 55.3976 7.92048H57.2737C57.2951 7.92048 57.3125 7.91388 57.3261 7.90064C57.3397 7.88744 57.3467 7.87296 57.3467 7.85716V4.81572H64.9465V7.85716C64.9465 7.87296 64.9536 7.88764 64.9668 7.90064C64.9804 7.91388 64.9952 7.92048 65.0117 7.92048H66.8873C66.9088 7.92048 66.9265 7.91388 66.9401 7.90064C66.9533 7.88744 66.9603 7.87296 66.9603 7.85716V0.0633144C66.9603 0.0475392 66.9533 0.0330429 66.9401 0.0198257C66.9265 0.00660856 66.9088 0 66.8873 0Z" fill="white"/>
<path d="M80.7699 0H71.6676C70.9908 0 70.4118 0.229595 69.9301 0.688996C69.448 1.1484 69.2072 1.70288 69.2072 2.35244V5.56016C69.2072 6.21504 69.448 6.77208 69.9301 7.23148C70.4118 7.69088 70.9908 7.92068 71.6676 7.92068H80.7699C80.7859 7.92068 80.8008 7.91408 80.8144 7.90088C80.828 7.88764 80.8346 7.87316 80.8346 7.8574V6.27324C80.8346 6.25212 80.828 6.23636 80.8144 6.22572C80.8008 6.21524 80.7859 6.20992 80.7699 6.20992H71.6676C71.543 6.20992 71.4375 6.16772 71.3509 6.08328C71.2642 5.99888 71.2209 5.89848 71.2209 5.78228V4.81572H80.7641C80.7855 4.81572 80.8016 4.80912 80.8128 4.79592C80.8235 4.78268 80.8288 4.7682 80.8288 4.7524V3.16828C80.8288 3.14717 80.8235 3.1314 80.8128 3.12074C80.8016 3.11029 80.7855 3.10496 80.7641 3.10496H71.2209V2.13862C71.2209 2.02244 71.2642 1.92224 71.3509 1.83761C71.4375 1.75319 71.543 1.71077 71.6676 1.71077H80.7699C80.7859 1.71077 80.8008 1.70416 80.8144 1.69094C80.828 1.67794 80.8346 1.66323 80.8346 1.64745V0.0633144C80.8346 0.0475392 80.828 0.0330429 80.8144 0.0198257C80.8008 0.00682176 80.7859 0 80.7699 0Z" fill="white"/>
<path d="M94.6362 0H83.1465C83.1251 0 83.1086 0.00660856 83.0979 0.0198257C83.0871 0.0330429 83.0818 0.0475392 83.0818 0.0633144V1.64746C83.0818 1.66323 83.0871 1.67794 83.0979 1.69094C83.1086 1.70416 83.1251 1.71077 83.1465 1.71077H87.8884V7.85716C87.8884 7.87296 87.8938 7.88764 87.9049 7.90064C87.9156 7.91388 87.9317 7.92048 87.9536 7.92048H89.8292C89.8511 7.92048 89.8671 7.91388 89.8779 7.90064C89.889 7.88764 89.894 7.87296 89.894 7.85716V1.71077H94.6358C94.6577 1.71077 94.675 1.70416 94.6886 1.69094C94.7022 1.67772 94.7088 1.66323 94.7088 1.64746V0.0633144C94.7088 0.0475392 94.7022 0.0330429 94.6886 0.0198257C94.6754 0.00660856 94.6577 0 94.6362 0Z" fill="white"/>
<path d="M99.0036 0.0157753C98.9925 0.00532948 98.9764 0 98.955 0H97.0793C97.0575 0 97.041 0.00532948 97.0307 0.0157753C97.0195 0.0264343 97.0142 0.0422096 97.0142 0.0633144V7.85716C97.0142 7.87296 97.0195 7.88764 97.0307 7.90064C97.041 7.91388 97.0575 7.92048 97.0793 7.92048H98.955C98.9764 7.92048 98.9925 7.91388 99.0036 7.90064C99.0143 7.88744 99.0197 7.87296 99.0197 7.85716V0.0633144C99.0197 0.0424228 99.0143 0.0264343 99.0036 0.0157753Z" fill="white"/>
<path d="M104.182 1.92484C104.101 1.8351 104.001 1.79012 103.882 1.79012H101.446C101.424 1.79012 101.406 1.7835 101.393 1.77029C101.38 1.75728 101.373 1.74258 101.373 1.7268V0.14266C101.373 0.126885 101.38 0.112389 101.393 0.0991717C101.406 0.0861677 101.424 0.0793457 101.446 0.0793457H104.02C104.669 0.0793457 105.229 0.335588 105.7 0.847644L106.326 1.58418L105.108 3.01782L104.182 1.92484ZM108.68 0.83976C109.151 0.332816 109.714 0.0793457 110.369 0.0793457H112.935C112.957 0.0793457 112.973 0.0846753 112.984 0.0951209C112.995 0.10578 113 0.121555 113 0.14266V1.7268C113 1.74258 112.995 1.75728 112.984 1.77029C112.973 1.7835 112.957 1.79012 112.935 1.79012H110.499C110.38 1.79012 110.28 1.8351 110.199 1.92484L108.404 4.0317L110.207 6.15434C110.288 6.23898 110.385 6.28118 110.499 6.28118H112.935C112.957 6.28118 112.973 6.28778 112.984 6.30102C112.995 6.31422 113 6.3315 113 6.35238V7.93654C113 7.9523 112.995 7.96702 112.984 7.98002C112.973 7.99322 112.957 7.99982 112.935 7.99982H110.369C109.714 7.99982 109.154 7.74382 108.689 7.23154L107.194 5.47322L105.7 7.23154C105.229 7.74382 104.666 7.99982 104.012 7.99982H101.446C101.424 7.99982 101.408 7.99322 101.397 7.98002C101.386 7.96678 101.381 7.94974 101.381 7.92842V6.3443C101.381 6.3285 101.386 6.31402 101.397 6.30078C101.408 6.28758 101.424 6.28098 101.446 6.28098H103.882C103.995 6.28098 104.095 6.23618 104.182 6.14622L105.944 4.07114L108.68 0.83976Z" fill="white"/>
</g>
<defs>
<clipPath id="clip0_1624_1412">
<rect width="113" height="8" fill="white"/>
</clipPath>
</defs>
</svg>
