<svg width="113" height="24" viewBox="0 0 113 24" fill="none" xmlns="http://www.w3.org/2000/svg">
<path d="M9.54413 11.5015C10.0532 12.3739 8.9078 12.6231 8.39874 12.6855C7.63514 12.7478 7.44425 12.3116 7.57151 11.7508C7.63514 11.5639 7.76241 11.3769 7.88968 11.2523C8.01694 11.1277 8.27147 11.0031 8.46237 11.0031C8.65327 11.0031 8.9078 11.0031 9.03507 11.1277C9.2896 11.19 9.41686 11.3146 9.54413 11.5015Z" fill="white"/>
<path d="M12.5986 9.94373C12.0259 14.3055 19.7891 13.3709 19.6618 16.798C20.4254 15.801 20.7436 13.1839 18.5164 11.8131C16.4802 10.5668 13.8712 11.2523 12.5986 9.94373Z" fill="white"/>
<path d="M17.116 8.26134C17.0521 8.19903 16.9883 8.19903 16.9883 8.13672C16.9883 8.19903 17.0521 8.26134 17.116 8.26134Z" fill="white"/>
<path d="M18.898 11.4392C18.8344 11.3146 18.7708 11.1899 18.6435 11.0653C18.389 10.6914 18.0072 10.4422 17.5617 10.3799C17.3072 10.3176 16.989 10.2553 16.6709 10.2553C16.3527 10.2553 16.0982 10.1929 15.78 10.1929C15.1437 10.1306 14.571 10.0683 13.9347 9.9437C13.8074 9.88139 13.6165 9.88139 13.4892 9.81908C13.4256 9.81908 13.362 9.75677 13.2347 9.75677C13.1711 9.69446 13.1074 9.69446 12.9802 9.63215C12.662 9.50752 12.4075 9.25828 12.2166 9.07135C11.7711 8.63517 11.3893 8.13668 11.0075 7.7005C10.6257 7.20201 10.3076 6.76583 9.86215 6.32965C9.48036 5.89347 8.97129 5.5196 8.46223 5.27035C7.95317 5.02111 7.31684 4.83418 6.74414 4.77186C7.38047 4.70955 8.0168 4.77186 8.58949 5.02111C9.16219 5.27036 9.73489 5.58191 10.1803 6.01809C10.4985 6.26734 10.753 6.57889 11.0075 6.89045C12.9802 6.51658 14.5074 6.82814 15.7164 7.51356C16.0982 7.7005 16.48 7.94974 16.7981 8.2613C16.8618 8.32361 16.9254 8.32361 16.9254 8.38592C17.1799 8.63517 17.4345 8.88441 17.6254 9.13366C18.5162 9.9437 18.898 10.8784 18.898 11.4392Z" fill="white"/>
<path d="M6.93473 5.27039C7.44379 5.3327 7.95285 5.51963 8.27102 5.8935C8.58918 6.26737 8.71645 6.76586 8.84371 7.20204C8.90735 7.57591 8.97098 7.94977 9.09825 8.26133C9.16188 8.44826 9.28914 8.57289 9.35278 8.69751C9.41641 8.82213 9.54367 8.94676 9.60731 9.07138V9.13369V9.196C9.41641 9.38293 8.97098 9.196 8.78008 9.07138C8.46192 8.94676 8.20738 8.69751 7.95285 8.44826C7.25289 7.70053 6.87109 6.57892 6.87109 5.58194C6.87109 5.51963 6.93473 5.39501 6.93473 5.27039Z" fill="white"/>
<path d="M15.2067 13.994C14.1249 16.9227 19.0246 18.9166 17.1793 21.9076C19.0246 21.1598 19.9155 18.8543 19.1519 17.0473C18.5156 15.4272 16.4793 14.8041 15.2067 13.994Z" fill="white"/>
<path d="M8.78125 17.7949C9.09941 17.608 9.41758 17.421 9.73574 17.2341C10.0539 17.1095 10.4357 16.9848 10.8175 16.9225C11.5175 16.7979 12.2811 16.7356 12.8538 16.4864C13.1719 16.3617 13.4265 16.2371 13.681 15.9879C13.9355 15.8009 14.0628 15.5517 14.19 15.2401C14.3173 14.9286 14.3173 14.617 14.3173 14.3055C14.3173 13.9316 14.19 13.62 14.0628 13.3085C14.3173 13.5577 14.5082 13.9316 14.6355 14.3055C14.7627 14.6793 14.7627 15.0532 14.6991 15.4271C14.6355 15.8009 14.3809 16.1748 14.1264 16.4864C13.8719 16.7356 13.4901 16.9848 13.1083 17.1095C12.7265 17.2341 12.3447 17.2964 11.9629 17.3587C11.5811 17.3587 11.2629 17.421 10.8811 17.421C10.1812 17.421 9.48121 17.5456 8.78125 17.7949Z" fill="white"/>
<path d="M15.6525 22.9668C15.5252 23.0291 15.4616 23.1537 15.3343 23.216C15.207 23.2784 15.0798 23.3407 14.9525 23.403C14.698 23.5276 14.3798 23.5899 14.0617 23.5899C13.2344 23.5899 12.6617 22.9668 12.3436 22.2814C12.089 21.8452 11.9618 21.3467 11.7072 20.9105C11.3254 20.2874 10.6255 19.7889 9.86188 19.8512C9.54372 19.9135 9.22555 20.0382 9.09829 20.2874C8.65286 20.9728 9.28918 21.9698 10.18 21.8452C10.2437 21.8452 10.3073 21.8452 10.3709 21.7829C10.4346 21.7829 10.4982 21.7206 10.5618 21.6583C10.6891 21.5336 10.7527 21.409 10.8164 21.2844C10.88 21.1598 10.88 20.9728 10.88 20.7859C10.8164 20.599 10.7527 20.4743 10.6255 20.412C10.8164 20.4743 10.9436 20.599 11.0073 20.7859C10.9436 21.0975 10.9436 21.2844 10.9436 21.4713C10.88 21.6583 10.8164 21.8452 10.6891 21.9698C10.6255 22.0321 10.5618 22.0944 10.4346 22.1568C10.3709 22.2191 10.2437 22.2814 10.18 22.2814C9.98915 22.3437 9.79825 22.3437 9.60735 22.3437C9.35282 22.2814 9.03465 22.2191 8.84375 22.0321C8.58922 21.8452 8.39832 21.5336 8.14379 21.3467C7.88926 21.0351 7.5711 20.8482 7.1893 20.6613C6.93477 20.5367 6.68024 20.4743 6.4257 20.412C6.29844 20.412 6.17117 20.3497 6.04391 20.3497C5.98027 20.3497 5.66211 20.2874 5.66211 20.2874C6.10754 19.9135 6.55297 19.602 6.9984 19.2904C7.50746 18.9789 8.01653 18.7919 8.58922 18.605C9.16192 18.4181 9.73461 18.4181 10.3709 18.4804C10.6891 18.5427 10.9436 18.605 11.2618 18.7296C11.58 18.8543 11.8345 19.0412 12.089 19.2281C12.3436 19.4774 12.5345 19.7266 12.6617 19.9759C12.789 20.2251 12.8526 20.5367 12.9163 20.8482C13.1072 21.7206 13.0435 23.0914 14.1889 23.2784C14.2525 23.2784 14.3162 23.2784 14.3798 23.2784H14.5707C14.698 23.2784 14.8252 23.2784 14.9525 23.216C15.1434 23.216 15.3979 23.0914 15.6525 22.9668Z" fill="white"/>
<path d="M7.82685 9.69454C7.76321 9.88148 7.69958 10.0061 7.63595 10.1307C7.44505 10.38 7.19052 10.5669 6.93599 10.6915C6.68145 10.8161 6.42692 10.8785 6.10876 10.8785C6.04513 10.8785 5.98149 10.8785 5.91786 10.8785C5.72696 10.8785 5.59969 10.9408 5.4088 11.0654C5.28153 11.19 5.15426 11.3146 5.15426 11.5016C5.15426 11.5639 5.09063 11.6885 5.09063 11.7508C5.09063 12.0001 5.027 12.187 5.027 12.4986C4.96337 12.997 4.8361 13.4332 4.6452 13.8694C4.39067 14.4302 4.0725 14.9287 4.13614 15.5518C4.19977 15.988 4.39067 16.2995 4.70884 16.5488C5.2179 17.1096 6.42692 17.3588 6.17239 18.6674C5.98149 19.4774 4.6452 20.2875 2.79985 20.599C2.99075 20.599 2.54532 19.8513 2.54532 19.789C2.35442 19.4774 2.09989 19.1659 1.97262 18.8543C1.65446 18.2312 1.52719 17.4211 1.65446 16.7357C1.78172 15.988 2.35442 15.4272 2.79985 14.8041C3.37254 14.1186 3.94524 13.2463 4.07251 12.3116C4.07251 12.1247 4.13614 11.8131 4.19977 11.5639C4.2634 11.2523 4.32704 11.0031 4.4543 10.6915C4.51794 10.5046 4.6452 10.38 4.8361 10.193C4.89973 10.1307 4.96337 10.0061 4.96337 9.94379C4.96337 9.81916 4.96337 9.75685 4.89973 9.63223L1.90899 4.33577L6.23602 9.56992C6.29966 9.63223 6.36329 9.69454 6.42692 9.69454C6.49056 9.75685 6.55419 9.75685 6.68145 9.75685C6.74509 9.75685 6.80872 9.75685 6.93599 9.69454C6.99962 9.63223 7.06325 9.63223 7.12688 9.56992C7.19052 9.50761 7.19052 9.4453 7.19052 9.32067C7.19052 9.25836 7.19052 9.13374 7.12688 9.07143C6.87235 8.69756 6.55419 8.386 6.23602 8.01214L5.15426 6.7036L2.99075 4.08652L0 0.410156L3.24528 3.83728L5.53606 6.32973L6.68145 7.57596C7.06325 8.01214 7.44505 8.386 7.82685 8.88449L7.89048 8.94681V9.07143C7.89048 9.32067 7.89048 9.50761 7.82685 9.69454Z" fill="white"/>
<path d="M8.84418 21.9699C8.65328 21.7829 8.46238 21.596 8.27148 21.4091C8.46238 21.6583 8.58965 21.8452 8.84418 21.9699Z" fill="white"/>
<path fill-rule="evenodd" clip-rule="evenodd" d="M64.9059 7.88753C62.806 8.38602 61.8515 10.0061 62.4242 11.9378C62.6788 12.7478 63.4424 13.6202 64.5878 14.2433C66.5604 15.3649 67.1967 15.8011 67.5149 16.4865C67.7694 17.0473 67.833 17.2342 67.7058 17.795C67.3876 19.0413 66.4967 19.6644 65.2241 19.6644C63.9514 19.6644 63.0606 18.9789 62.806 17.795C62.7424 17.2965 62.6151 17.1719 62.4242 17.1719C62.1697 17.1719 62.1061 17.2965 62.1061 18.4805V19.789L62.9333 20.0382C64.2696 20.4744 66.1149 20.4121 67.1967 19.9136C69.3602 18.9166 70.1875 16.985 69.233 15.178C68.8512 14.4925 67.9603 13.7448 66.4331 12.8101C64.7786 11.8131 64.0787 11.1277 63.9514 10.4423C63.7605 9.32069 64.7787 8.44833 66.1786 8.44833C67.2603 8.44833 67.7058 8.69757 68.0876 9.50762C68.3421 10.0061 68.4694 10.193 68.7875 10.193C69.1057 10.193 69.1693 10.1307 69.0421 9.81918C68.9784 9.63224 68.9148 9.13376 68.9148 8.75989C68.9148 8.2614 68.8512 8.01215 68.6603 7.94984C68.2148 7.7629 65.4786 7.70059 64.9059 7.88753ZM22.9082 8.32371C22.9082 8.57295 23.0355 8.63526 23.29 8.63526C24.0536 8.63526 24.1172 8.8222 24.1809 13.3709C24.2445 17.2965 24.3081 17.6081 24.6263 18.2312C25.0717 19.0413 25.7081 19.6021 26.6625 20.0382C27.2989 20.3498 27.7443 20.4121 29.0806 20.4121C30.4805 20.4121 30.7987 20.3498 31.5623 19.9759C32.0713 19.7267 32.7077 19.2905 32.9622 18.9789C33.8531 17.9197 33.9803 17.3588 34.044 12.9971C34.1712 8.75989 34.1712 8.69758 34.8712 8.69758C35.0621 8.69758 35.1257 8.57295 35.1257 8.38602C35.1257 8.07446 34.9985 8.07446 33.2167 8.07446C31.435 8.07446 31.3077 8.07446 31.3077 8.38602C31.3077 8.63526 31.435 8.69758 31.8168 8.75989C32.644 8.8222 32.7077 9.13376 32.7077 12.9971C32.7077 16.9227 32.5804 17.6704 31.6895 18.4805C30.9259 19.2282 30.2896 19.4774 29.2079 19.4774C27.6807 19.4774 26.5353 18.792 26.2171 17.5458C26.0898 17.1096 26.0262 15.6141 26.0898 12.9347L26.1535 8.94682L26.7262 8.75989C27.0443 8.63527 27.2989 8.44833 27.3625 8.32371C27.4261 8.07446 27.1716 8.07446 25.199 8.07446C23.0355 8.01215 22.9082 8.01215 22.9082 8.32371ZM37.7347 8.32371C37.7347 8.57295 37.8619 8.63526 38.1801 8.63526C39.0073 8.63526 39.4528 8.94682 39.6437 9.63225C39.7709 10.0061 39.7709 11.8131 39.7709 14.3679C39.7073 18.9789 39.6437 19.2905 38.6892 19.4774C38.371 19.5397 38.2437 19.6644 38.2437 19.8513C38.2437 20.1005 38.371 20.1629 40.4709 20.1629C42.5071 20.1629 42.698 20.1629 42.698 19.9136C42.698 19.7267 42.5071 19.6021 41.9981 19.4774C41.3617 19.2905 41.2981 19.2282 41.1072 18.7297C40.8527 17.982 40.8527 10.9408 41.0436 11.0031C41.1072 11.0031 41.7435 11.6262 42.4435 12.4363C43.1435 13.2463 44.9888 15.3026 46.6433 16.985C49.1886 19.6644 49.634 20.1629 50.0158 20.1629H50.4612L50.5249 14.6795C50.5885 10.7538 50.6521 9.13375 50.7794 9.00913C50.9067 8.88451 51.2248 8.75989 51.4794 8.69758C51.7975 8.63526 51.9884 8.51064 51.9884 8.38602C51.9884 8.19908 51.6066 8.13677 49.8249 8.13677C47.725 8.07446 47.6614 8.07446 47.6614 8.38602C47.6614 8.63526 47.7887 8.69758 48.0432 8.69758C48.2341 8.69758 48.6159 8.88451 48.8704 9.07144L49.3159 9.44531L49.3795 13.184C49.3795 15.3026 49.3795 16.9227 49.3159 16.9227C49.2522 16.9227 48.7432 16.4242 48.2341 15.8634C47.725 15.3026 46.2615 13.6825 44.9888 12.3116C43.7162 10.9408 42.3162 9.44531 41.8708 8.94682L41.1072 8.07446H39.4528C37.7983 8.01215 37.7347 8.01215 37.7347 8.32371ZM54.4065 8.32371C54.4065 8.57295 54.5338 8.63526 54.8519 8.63526C55.1064 8.63526 55.4246 8.75989 55.6155 8.88451C55.9337 9.07144 55.9337 9.383 55.9973 13.6825C56.0609 19.0413 55.9973 19.3528 55.0428 19.4774C54.5974 19.5397 54.4065 19.6644 54.4065 19.8513C54.4065 20.1005 54.5974 20.1629 56.8245 20.1629C59.1153 20.1629 59.2426 20.1629 59.2426 19.8513C59.2426 19.6021 59.1153 19.5397 58.8608 19.5397C58.6699 19.5397 58.3517 19.4151 58.1608 19.2905C57.8427 19.1036 57.8427 18.792 57.779 14.181C57.7154 9.44531 57.7154 9.25838 58.0336 8.94682C58.2245 8.75989 58.5426 8.63526 58.7335 8.63526C59.0517 8.63526 59.1153 8.57295 59.1153 8.32371C59.1153 8.01215 58.9881 8.01215 56.6973 8.01215C54.5338 8.01215 54.4065 8.01215 54.4065 8.32371ZM71.1419 8.32371C71.2056 8.51064 71.3328 8.63526 71.5874 8.63526C71.7783 8.63526 72.0964 8.8222 72.2873 9.00913C72.4782 9.19607 73.56 11.7508 74.769 14.8041L76.8689 20.2252L77.4416 20.2875L78.0143 20.3498L79.4778 16.4865C80.3051 14.3679 81.0687 12.4363 81.1323 12.2493C81.3232 11.8755 81.3232 11.9378 81.8323 13.184C82.0868 13.9317 82.8504 15.8011 83.4867 17.4212L84.6321 20.3498H85.1412C85.3957 20.3498 85.6502 20.2875 85.7139 20.1629C85.7775 20.0382 86.4775 18.2312 87.3683 16.1126C88.1956 13.994 89.15 11.6262 89.4682 10.8785C90.1682 9.13375 90.2954 8.94682 90.8045 8.75989C91.059 8.69758 91.2499 8.51064 91.2499 8.38602C91.2499 8.19908 90.9318 8.13677 89.341 8.13677C87.5592 8.13677 87.432 8.13677 87.432 8.44833C87.432 8.69758 87.5592 8.75989 87.8138 8.75989C88.4501 8.75989 88.7046 8.94682 88.7046 9.32069C88.7046 9.63225 85.6502 17.6704 85.4593 17.8573C85.3321 17.982 82.5959 10.5046 82.5322 9.75687C82.405 9.07144 82.7231 8.75989 83.4231 8.75989C83.6776 8.75989 83.8049 8.69758 83.8049 8.44833C83.8049 8.13677 83.6776 8.13677 81.3232 8.13677C78.9688 8.13677 78.8415 8.13677 78.8415 8.44833C78.8415 8.63527 78.9688 8.75989 79.0961 8.75989C79.6051 8.75989 80.2414 9.25838 80.4323 9.69456C80.6869 10.38 80.496 11.0654 79.0324 14.8041L77.8234 17.982L77.5689 17.3588C77.4416 17.0473 76.678 15.0533 75.9144 12.9971C74.3872 8.94682 74.3872 8.75989 75.4053 8.75989C75.7871 8.75989 75.8508 8.69758 75.8508 8.44833C75.8508 8.13677 75.7235 8.13677 73.4964 8.13677C71.0783 8.01215 71.0147 8.01215 71.1419 8.32371ZM103.34 8.44833C103.34 8.44833 103.34 8.63526 103.34 8.69758C103.34 8.75989 103.531 8.75989 103.531 8.75989C103.658 8.75989 103.722 8.8222 103.849 8.8222C104.358 8.94682 104.676 9.00913 104.804 9.32069C104.867 9.50762 104.931 10.2554 104.931 14.181C104.931 18.2935 104.931 18.792 104.804 19.0413C104.676 19.3528 104.422 19.5397 103.786 19.7267C103.786 19.7267 103.531 19.789 103.467 19.8513C103.404 19.9136 103.404 20.0382 103.404 20.0382C103.404 20.0382 103.404 20.1629 103.467 20.2252C103.531 20.2875 103.722 20.2875 103.722 20.2875H105.313H107.985C107.985 20.2875 108.113 20.2875 108.176 20.2252C108.24 20.1629 108.24 20.0382 108.24 20.0382C108.24 20.0382 108.24 19.9136 108.176 19.8513C108.113 19.789 107.858 19.7267 107.858 19.7267C107.285 19.6021 106.967 19.4151 106.84 19.1036C106.713 18.8543 106.713 18.2935 106.713 16.985V15.1156C106.776 15.178 106.84 15.178 106.904 15.2403C107.222 15.4272 107.604 15.7388 109.004 15.7388C110.722 15.8011 111.74 15.0533 112.376 14.181C113.012 13.3086 113.203 11.9378 112.758 10.4423C112.312 9.00913 110.976 8.07446 109.131 8.01215C108.176 7.94984 106.713 8.01215 105.949 8.07446H105.758C105.058 8.07446 104.167 8.19909 103.722 8.19909C103.595 8.19909 103.595 8.19908 103.531 8.2614C103.34 8.38602 103.34 8.44833 103.34 8.44833ZM110.403 14.181C111.103 13.5579 111.103 12.5609 111.103 11.8755C111.04 10.8785 110.594 8.94682 108.304 8.94682C107.731 8.94682 106.649 9.00913 106.585 9.75687C106.522 9.88149 106.522 10.8162 106.522 12.187V14.4302L106.776 14.5548C106.904 14.6172 107.095 14.6795 107.349 14.7418C108.304 14.991 109.703 14.8041 110.403 14.181ZM95.7679 8.19909C95.9588 8.13677 96.086 8.07446 96.086 8.07446C96.086 8.07446 96.3406 7.94984 96.4042 8.07446C96.4042 8.13677 96.5315 8.32371 96.786 8.94682C96.8496 9.07144 96.9133 9.19607 96.9133 9.32069C97.2314 10.193 97.7405 11.4393 97.995 12.1247C98.2496 12.8101 98.7586 14.0563 99.1404 15.0533C99.5222 15.988 99.9676 17.1719 100.222 17.7327C100.413 18.2935 100.731 18.792 100.795 18.9166C100.858 18.9789 100.858 19.0413 100.922 19.1036C101.113 19.3528 101.304 19.7267 101.749 19.789C101.749 19.789 102.068 19.8513 102.131 19.9136C102.195 19.9759 102.195 20.0382 102.195 20.0382V20.2252C102.195 20.2252 102.195 20.2875 102.131 20.2875C102.131 20.3498 102.004 20.2875 102.004 20.2875H99.3313H97.4223C97.4223 20.2875 97.3587 20.2875 97.2951 20.2875C97.2314 20.2875 97.2314 20.1629 97.2314 20.1629V20.0382C97.2314 20.0382 97.2314 19.9136 97.2951 19.8513C97.3587 19.789 97.6769 19.7267 97.6769 19.7267C98.2496 19.6644 98.5041 19.2282 98.5677 18.9789V18.9166C98.695 18.6674 98.6313 18.4805 98.0587 17.1719C97.6769 16.2996 97.5496 16.0503 97.486 15.988C97.4223 15.988 96.4042 15.988 95.3224 15.988H93.2226L93.0953 16.2996C92.7135 17.2965 92.3953 18.2312 92.3953 18.4805C92.2681 18.9789 92.459 19.6021 93.2226 19.7267C93.2226 19.7267 93.5407 19.789 93.6043 19.8513C93.668 19.9136 93.7316 20.0382 93.7316 20.0382V20.1629C93.7316 20.1629 93.7316 20.2252 93.668 20.2875C93.6044 20.3498 93.4771 20.2875 93.4771 20.2875H91.5045H89.5955C89.5955 20.2875 89.5318 20.2875 89.4682 20.2252C89.4046 20.1629 89.4046 20.1005 89.4046 20.1005V19.9759C89.4046 19.9759 89.4046 19.9136 89.5318 19.789C89.6591 19.6644 89.9137 19.6644 89.9137 19.6644C90.4227 19.6021 90.7409 19.0413 90.9318 18.7297C90.9318 18.7297 90.9318 18.6674 90.9954 18.6674C91.059 18.5428 91.3772 17.8573 91.6954 17.1096C92.0135 16.3619 92.3317 15.4895 92.459 15.2403C92.8408 14.3056 93.2225 13.4332 93.7952 12.0624C94.1134 11.3147 94.5588 10.193 94.8134 9.56993L95.2588 8.44833L95.7679 8.19909ZM95.6406 10.8785C95.7679 11.1277 95.8951 11.5016 95.9588 11.6885C96.0224 11.8755 96.2769 12.4363 96.4678 12.9347C96.6587 13.4332 96.9133 13.994 97.0405 14.2433C97.1678 14.4925 97.2314 14.6795 97.2314 14.6795C97.2314 14.6795 96.4678 14.6795 95.5133 14.6795C94.4316 14.6795 93.7952 14.6795 93.7952 14.6172C93.7952 14.6172 93.8589 14.4925 93.8589 14.3679C93.9225 14.181 94.3043 13.184 95.0679 11.0654C95.1952 10.7538 95.3224 10.4423 95.3224 10.38C95.3861 10.38 95.4497 10.4423 95.6406 10.8785Z" fill="white"/>
</svg>
