<svg width="63" height="46" viewBox="0 0 63 46" fill="none" xmlns="http://www.w3.org/2000/svg">
<path d="M61.3138 23.3051C61.0864 23.2173 60.8655 23.1113 60.6316 23.0442C58.9596 22.5598 57.289 22.0741 55.6106 21.6143C55.4103 21.56 55.1287 21.5897 54.953 21.6944C53.9206 22.3118 52.905 22.9563 51.8907 23.6035C50.3041 24.6149 48.7368 25.6574 47.1321 26.6404C46.1617 27.2346 45.3852 26.7721 45.358 25.6483C45.3555 25.5204 45.3451 25.3938 45.3373 25.2388C44.376 25.3809 43.4419 25.5915 42.5012 25.6238C42.0594 25.6393 41.5594 25.3809 41.1717 25.12C40.8113 24.8772 40.5619 24.4677 40.244 24.1086C40.1497 24.27 40.0425 24.4276 39.9624 24.5968C39.2104 26.2089 37.8821 26.8135 36.1869 26.6907C35.2476 26.6223 34.2811 26.5564 33.3922 26.2787C32.7307 26.072 32.1802 25.5192 31.5665 25.142C31.37 25.0205 31.1156 24.8643 30.9166 24.8978C29.6077 25.1187 28.3195 25.1613 27.0326 24.757C26.875 24.7079 26.6269 24.8113 26.4718 24.9185C24.8838 26.01 22.2093 25.8446 21.2867 23.5415C21.0968 23.0674 20.8629 22.6101 20.6252 22.0909C19.9947 22.7871 19.3667 23.433 18.7944 24.1241C17.4687 25.7258 15.9647 27.1299 14.2514 28.3054C13.5511 28.7859 13.1131 29.3776 12.8922 30.2366C12.1918 32.9621 10.9876 35.4693 9.47978 37.8513C8.4707 39.4453 7.63471 41.1503 6.73285 42.8115C6.02093 44.124 4.99373 45.0992 3.64094 45.7179C2.48195 46.2475 1.14078 46.0163 0.375876 45.1508C0.193694 44.9441 0.0631954 44.638 0.0296016 44.3616C-0.140952 42.9846 0.454693 41.8092 1.06714 40.6389C2.70031 37.5129 4.97694 34.888 7.44609 32.4131C8.76788 31.0891 10.1129 29.7883 11.4437 28.4733C11.5639 28.3558 11.7138 28.2266 11.7552 28.0768C11.9993 27.1907 12.2151 26.2968 12.4813 25.2491C11.3197 26.165 10.0923 26.0384 8.89452 25.8899C7.59207 25.7297 7.07394 25.089 7.05975 23.765C7.04168 21.9385 7.05199 20.112 7.04944 18.2854C7.04944 17.7481 7.04683 17.2107 7.04683 16.6734C7.04683 15.8273 7.32461 15.4036 7.8841 15.3894C8.4539 15.3752 8.74204 15.7924 8.74204 16.6398C8.74204 18.9184 8.764 21.1983 8.72397 23.4756C8.7136 24.0931 8.96172 24.2235 9.49792 24.283C10.6117 24.407 11.4102 24.0918 12.0239 23.0752C12.9749 21.5019 13.8974 19.9376 14.2075 18.093C14.2967 17.5595 14.6132 17.2934 15.1455 17.3283C15.6314 17.3606 15.9854 17.792 15.8782 18.3514C15.6068 19.7632 15.2864 21.1673 14.9504 22.5663C14.6494 23.8141 14.3005 25.049 14.0796 26.3678C14.6791 25.8537 15.3303 25.3874 15.8691 24.8164C17.0785 23.5337 18.2271 22.1942 19.4094 20.8857C19.735 20.524 19.8939 20.161 19.7052 19.6637C19.5373 19.222 19.6187 18.7905 19.9313 18.4056C20.0153 18.3023 20.0541 18.1318 20.0489 17.9935C19.9585 15.2731 20.6497 12.6716 21.2945 10.0714C21.6796 8.51737 22.1318 6.97121 22.699 5.47667C22.9625 4.77913 23.5815 4.21981 24.0143 3.58169C24.2443 3.24197 24.4058 2.85574 24.6319 2.51214C24.7792 2.28868 24.9537 1.98124 25.172 1.92311C26.0067 1.69835 26.8582 1.50072 27.7161 1.39996C29.5108 1.1907 30.5987 2.3003 31.4928 3.62303C32.0265 4.41228 32.1724 5.33457 32.2655 6.30206C32.5459 9.22653 32.0006 12.0283 31.237 14.8158C30.7447 16.6139 30.3454 18.4444 29.7511 20.2075C29.4074 21.2267 28.7588 22.1426 28.1619 23.2638C29.087 23.2147 29.972 23.1682 30.8855 23.1191C30.9243 19.7516 31.958 16.6785 32.542 13.5241C32.8973 11.6046 33.1015 9.6554 33.5188 7.75012C33.8922 6.04502 34.2733 4.34511 35.09 2.73949C35.9699 1.00857 37.4325 0.343328 39.1225 0.0371885C40.3706 -0.188864 41.2725 0.653345 42.0154 1.54205C43.3928 3.18772 43.8708 5.17956 44.0802 7.26056C44.3813 10.26 43.5142 13.1353 43.1538 16.0637C42.9031 18.0982 42.3294 20.0513 41.4728 21.9191C41.2661 22.3712 41.7377 23.278 42.2248 23.3361C42.9935 23.4278 43.7675 23.4976 44.5402 23.5182C45.0221 23.5311 45.3322 23.3619 45.3955 22.7432C45.5609 21.1001 45.8335 19.4674 46.0648 17.8321C46.0881 17.6693 46.1204 17.5079 46.163 17.2624C45.6513 17.4536 45.2185 17.6254 44.7779 17.7752C44.1629 17.9845 43.7261 17.8088 43.5608 17.3076C43.3954 16.8064 43.6279 16.4112 44.2262 16.1786C44.4264 16.1011 44.6203 15.9784 44.827 15.9487C46.455 15.7136 47.154 14.6751 47.5029 13.1547C47.7988 11.8617 48.3608 10.632 48.7355 9.35445C48.9384 8.66205 49.0223 7.92838 49.1063 7.20757C49.1735 6.63276 49.4565 6.27236 49.9552 6.27495C50.4488 6.27753 50.8545 6.65343 50.7808 7.21406C50.6413 8.27193 50.4695 9.33504 50.1865 10.3607C49.8299 11.6537 49.3492 12.9131 48.9177 14.1997C49.9048 13.922 50.8274 13.6598 51.7525 13.4066C51.9385 13.3562 52.1324 13.3239 52.3236 13.3123C52.8288 13.2826 53.1686 13.5254 53.2422 14.0202C53.3211 14.5498 53.0303 14.8404 52.5213 14.9967C51.2318 15.392 49.9449 15.7989 48.6761 16.2548C48.428 16.344 48.1411 16.654 48.0907 16.9059C47.7187 18.7763 47.3517 20.6519 47.0985 22.5417C47.021 23.1268 47.3039 23.7598 47.415 24.3398C49.282 23.1876 51.1891 22.0108 53.1117 20.8237C52.1129 20.0241 52.206 19.532 53.2048 18.8577C54.7862 17.7881 56.2967 16.6139 57.8291 15.4759C58.2258 15.1814 58.5927 14.8468 58.9803 14.5395C59.3175 14.2734 59.6858 13.922 60.129 14.2204C60.5967 14.5343 61.0967 14.8688 61.1239 15.5483C61.1885 17.1617 60.3448 18.2674 59.1134 19.1444C58.5384 19.5539 57.9286 19.9156 57.1895 20.3922C58.103 20.6351 58.8757 20.834 59.6444 21.0471C60.4093 21.259 61.1833 21.4515 61.9314 21.7124C62.633 21.9566 62.9379 22.5055 62.9909 23.2483C63.0465 24.0324 62.8578 24.7273 62.1072 25.0076C60.8461 25.4778 59.5618 25.9376 58.2464 26.196C56.4582 26.5474 54.6312 26.7101 52.8198 26.9426C52.3133 27.0072 51.8895 26.6855 51.8532 26.2154C51.8106 25.678 52.0794 25.3422 52.6105 25.275C53.9116 25.1096 55.2256 25.0244 56.5163 24.7983C57.8899 24.5581 59.2426 24.2029 60.598 23.8722C60.8603 23.8076 61.0929 23.6241 61.3384 23.495L61.3138 23.309V23.3051ZM40.0929 20.2036C40.1549 20.2088 40.2156 20.214 40.2776 20.2191C40.5541 19.2168 40.8913 18.226 41.0942 17.2094C41.3991 15.6762 41.5904 14.1209 41.8643 12.5824C42.2946 10.1682 42.6189 7.75913 41.8992 5.33974C41.527 4.08934 41.0722 2.8932 39.9611 2.09362C39.8099 1.98511 39.5825 1.91795 39.3977 1.93216C39.0837 1.95799 38.7801 2.08716 38.4661 2.12979C37.6418 2.24346 37.0888 2.85445 37.1379 3.69537C37.2413 5.44954 37.3679 7.20373 37.4919 8.95658C37.5746 10.132 37.5022 11.3515 37.793 12.4753C38.4649 15.0768 39.315 17.6319 40.0929 20.205V20.2036ZM35.5706 7.54469C35.5266 7.52793 35.4827 7.51111 35.4388 7.49434C35.3639 7.81729 35.2773 8.13891 35.214 8.4657C34.5589 11.8979 33.8871 15.3261 33.2669 18.7647C33.0201 20.1326 32.8301 21.5173 32.728 22.9034C32.6505 23.9548 32.9851 24.3669 34.0395 24.5555C35.0202 24.7312 36.0319 24.7454 37.0306 24.8023C37.249 24.8152 37.5797 24.779 37.6805 24.6369C38.178 23.9419 38.7039 23.2405 39.0269 22.4629C39.1432 22.1826 38.7193 21.6814 38.5527 21.2771C38.4635 21.0588 38.3963 20.8328 38.324 20.608C37.9325 19.3847 37.5074 18.1718 37.1624 16.9356C36.6921 15.2486 36.1817 13.5629 35.8781 11.8436C35.6301 10.4369 35.661 8.98115 35.5693 7.54728L35.5706 7.54469ZM24.703 5.76989C24.6371 5.75568 24.5725 5.74276 24.5066 5.72855C24.1784 6.57592 23.7404 7.39875 23.5414 8.27452C22.9574 10.8438 22.3488 13.4169 21.978 16.0198C21.6666 18.2079 21.7183 20.4232 22.8075 22.4874C23.4562 23.7172 23.5272 23.8192 24.8658 23.6797C25.3994 23.6242 26.0829 22.9241 26.0261 22.4978C25.9176 21.6956 25.7741 20.8948 25.7134 20.0887C25.4937 17.119 25.2974 14.148 25.1048 11.1758C25.0002 9.54947 24.9252 7.92063 24.827 6.29303C24.8167 6.11607 24.7444 5.94298 24.7017 5.76859L24.703 5.76989ZM27.5365 20.4039C27.5869 20.4194 27.6386 20.4336 27.6889 20.4491C27.8492 20.0861 28.0585 19.7361 28.1619 19.3576C28.6554 17.5414 29.1477 15.7239 29.5857 13.8936C30.0677 11.8759 30.6995 9.87759 30.4992 7.75528C30.3958 6.65859 30.5819 5.51154 29.9139 4.51562C29.3777 3.71733 28.742 3.09859 27.6786 3.17351C27.052 3.21743 26.4538 3.57394 26.4667 3.92529C26.4835 4.35415 26.5042 4.78171 26.5325 5.20927C26.7276 8.18025 26.9266 11.1525 27.123 14.1235C27.2613 16.2161 27.3982 18.31 27.5365 20.4026V20.4039ZM10.7176 31.7737L10.4915 31.6161C10.2279 31.9184 9.97983 32.2348 9.69818 32.5203C7.23933 35.0146 4.75858 37.4948 3.03883 40.5936C2.54139 41.4888 2.10338 42.4279 1.75452 43.3889C1.50256 44.0813 1.83333 44.3874 2.5724 44.2789C2.7998 44.2453 3.02721 44.1485 3.23006 44.0348C4.05052 43.5737 4.71594 42.9562 5.18367 42.123C6.53774 39.7101 7.92801 37.3178 9.25629 34.8906C9.80668 33.8857 10.2344 32.8136 10.7176 31.7724V31.7737ZM59.1703 16.8245C59.125 16.7729 59.0785 16.7212 59.0333 16.6708C58.5695 17.0699 58.1043 17.4704 57.6405 17.8695C57.6934 17.9289 57.7464 17.9897 57.7994 18.0491C58.2568 17.6409 58.7129 17.2327 59.1703 16.8245Z" fill="white"/>
</svg>
